<mxfile host="app.diagrams.net" modified="2022-01-08T14:15:11.247Z" agent="5.0 (Windows NT 10.0; Win64; x64) AppleWebKit/537.36 (KHTML, like Gecko) Chrome/97.0.4692.71 Safari/537.36 Edg/97.0.1072.55" etag="wdfJhdPCDK_2Jb5YG72v" version="16.2.2" type="github">
  <diagram id="V5bmwTmR9KmaiRpTgSpy" name="第 1 页">
    <mxGraphModel dx="845" dy="509" grid="1" gridSize="10" guides="1" tooltips="1" connect="1" arrows="1" fold="1" page="1" pageScale="1" pageWidth="827" pageHeight="1169" math="0" shadow="0">
      <root>
        <mxCell id="0" />
        <mxCell id="1" parent="0" />
        <mxCell id="OKugaLKOANu714c_Y-tR-11" style="edgeStyle=orthogonalEdgeStyle;rounded=0;orthogonalLoop=1;jettySize=auto;html=1;entryX=0;entryY=0.5;entryDx=0;entryDy=0;fontSize=14;startArrow=none;startFill=0;endArrow=classic;endFill=1;" edge="1" parent="1" source="OKugaLKOANu714c_Y-tR-2" target="OKugaLKOANu714c_Y-tR-3">
          <mxGeometry relative="1" as="geometry" />
        </mxCell>
        <mxCell id="OKugaLKOANu714c_Y-tR-2" value="" style="shape=image;html=1;verticalAlign=top;verticalLabelPosition=bottom;labelBackgroundColor=#ffffff;imageAspect=0;aspect=fixed;image=data:image/jpeg,/9j/4AAQSkZJRgABAQAAAQABAAD/2wBDAAgGBgcGBQgHBwcJCQgKDBQNDAsLDBkSEw8UHRofHh0aHBwgJC4nICIsIxwcKDcpLDAxNDQ0Hyc5PTgyPC4zNDL/2wBDAQkJCQwLDBgNDRgyIRwhMjIyMjIyMjIyMjIyMjIyMjIyMjIyMjIyMjIyMjIyMjIyMjIyMjIyMjIyMjIyMjIyMjL/wAARCAGqAoADASIAAhEBAxEB/8QAHwAAAQUBAQEBAQEAAAAAAAAAAAECAwQFBgcICQoL/8QAtRAAAgEDAwIEAwUFBAQAAAF9AQIDAAQRBRIhMUEGE1FhByJxFDKBkaEII0KxwRVS0fAkM2JyggkKFhcYGRolJicoKSo0NTY3ODk6Q0RFRkdISUpTVFVWV1hZWmNkZWZnaGlqc3R1dnd4eXqDhIWGh4iJipKTlJWWl5iZmqKjpKWmp6ipqrKztLW2t7i5usLDxMXGx8jJytLT1NXW19jZ2uHi4+Tl5ufo6erx8vP09fb3+Pn6/8QAHwEAAwEBAQEBAQEBAQAAAAAAAAECAwQFBgcICQoL/8QAtREAAgECBAQDBAcFBAQAAQJ3AAECAxEEBSExBhJBUQdhcRMiMoEIFEKRobHBCSMzUvAVYnLRChYkNOEl8RcYGRomJygpKjU2Nzg5OkNERUZHSElKU1RVVldYWVpjZGVmZ2hpanN0dXZ3eHl6goOEhYaHiImKkpOUlZaXmJmaoqOkpaanqKmqsrO0tba3uLm6wsPExcbHyMnK0tPU1dbX2Nna4uPk5ebn6Onq8vP09fb3+Pn6/9oADAMBAAIRAxEAPwDyDZycY6elLtPJH1FP98cij0+veuC53WIinQDOPrQFPPripflxkgj3pnYcdadxCYPHAx9acoxzhc0i8k/XrnrUgAB46d80NjAD5Djt6dqUg5OcAY5FOGMYzTec88ge9SUNOfvcde1RueWAz7e9OYk5PPA7moHbj196uKIbI5GOetQs3H40Oe+fwzULHk8YH0raKMmO35JP8qXfk8D/AOvUVAPGKuwrjy3U9vc00mm5/P6Uv6UWEIPoKevB6Uz/ADxTl/WhgizH+VWATxgEHvVRDz+FTAgAg/mRWckaImLcdOcdjTHOQeDSF8DqcUxzjufwqUgbEU8nNSBzjOMccnNV88Hr9KeG5zzVNCLO/j39KRmycgYPeodzcHt70uTgUrDuOGSeO3ODU0ZwBx3qFfT+dTqTj19qljLMbcD19CatRyjjqOMGs4N0zj8qk87n3rNotM1Y5umf/wBVWY7jIGTuGeTWItyAB1qaO6xgbsn1FQ4FKSN9JgepGc+tWUcc8dqxIrlSoyauR3Hyj5jk+tZONjRSNEv256ZHNRSsVGRgioxNkYHA+lRSyf7PPb2pIbZDOxA5ODVGU881Ylf06c1TkbA6f/XraJnIrv16U39falckNjHHr60g6e4rQzFU/Spl6n+RNRL6c/jVmMHPtmpZSHxg8571YQE9aZGp69+tW0Q54P6VDLSJohx05A608nBx/IUiKQMcY6YqQqfT6GoNLFSQc9+nSs6YNjOM81sPEzZA/E1XktWJxt469KuLJauc5cgndwR71kXGQxGPwrq5rFj0Gc8/SsufTSScDjrmumE0jnnBmCM5PpS478VqHTcZ4PXAxULWDjHBx9Ola86M+RlH3NHvj8KtGzcdev0qMwOAOO2afMhWZCeCPSjmn+Ww7H8qTaR/CfriquKwmSOmaMc0uccZ496TpQAfhS+lJ1pfw57mgBMdOPxpR9OaTHJpfp0+lAxfqKOaTJwKPTn8KQC4J+lJg+gH40Y5OaT1oAdjB+tGOaOo6e9HrxxQMMMeeKMcH/Cj04/HFLjgd6AEGc4pe9JzS55wMUAHGaOM8/lik5+vpzS9s9qQBR+VFJ17AcUAGTSjrjjpSUuCfmx16UAHPTjmjmjt0PFJmgDaD+xyR6UBuMc/Soge/U+mKeGOME/WuVo1HZIPT9KTjrTSzbf9rvTlyeSOP5UDHqM44/Gn4wvTjuaam7PPTFPHT1B7VLKG/Xr6etMYjoMj1PrUjHC8c+2Krv1x+uKaExrsMcj8arO3c9frT3fBI/KoWYdPm+lbRRmyNzknv74qM+melSMcUwkfU1oiBnbnrQR6049xQetO5I0daTv9Kd34HBpenWmMb604H0pPpS++OaQIkRh3qQMPX61FyM/1p2TkDjFS0MmLADmombr1yKM56DtSfWkkMQnGf6U8HHamD3AJ/lT+hyOlNiFDDNOVuckcDmo84OMU8E4/+tSaGiZSMc9D6Uu726VGCSORxTS/HPSpsO5KXx3GRTDNz1qJnx0phbP+NNRFcn81scHipEmIxgk+57VUz1PGfXFOB5yPrQ4hc1Y7k4wD+Zq6lzk9f1rFib0IzVmOXC5B49MVjKBpGRtLcAkc/X2FOaYcAjkjms1JfXGO9SGYkEZ9zxWXKXzFh5AemOearyEdff0pGfLY7+lRMx+mO+O9WkJsaxwe5P1poPPPWg8/h6UgBP8AQYqySVG44HHrVuIHkE/jVSMZIPUVchBHY4qGUi5D15/z/jVuJc4x2HINQQj0wMGrcYAb8+aykzaJPGnbBzVhID1Cnr1H86bEoOB356VqQRgkDBz3rJysapXKotM5AUY+tO/s4sfu963Le1BUfKOTxV+OxBGP6VPtLD5TkH0vOSVqrNpGQOK77+zxwBx7VG+mKSePpVqq0HIjzptKPXb9KryaXnoo46V6DJpQySACKqyaXnPy/pVqsS6aOBfS+vy/iRVd9K9FOcd+K759MAycfN3GP84qsdMIBG0Yx6VSqk+yODk0rJyB7dKqvpQ/H6V6AdNPXy+PU9qgfTTnpx6VarEOicC+lHAypGM81XbSz0xgfWvQG0wYA28k+lQPpuRjaD17VarMl0TgH09hkjpTPsTcZWu7fTMoRhdwqF9KOenfmr9syHROG+yydSp6/nTfJYDP9K7NtLycbc81C2lkYJHX0FP2xPsjkNjAE4pNpx0PWuqfSefuD3OKhbSueFxz05qvaoXsmc1jjv8AlSCuhfSRgZU56VE2l4OAv/1qpVET7NmJ/F1o4rWOltu4Hbmon01gSAD14z2p86BwaM7jt1o4xVw2L5PBzTGtJOfkb8RT5kTysr5yeTR0Ge9StA4/hJGOoFIYnHY+5ougsyPIxjNGc4NO8uTPQ4+lJtb+6fqaYDcml/AUYPofwo5HByP6UCDIo4HufSggnHqRSZOOtAxQefwpSQPX0puTj3pScHrQBeVsnp+GKeGJwOPrmoFJwKk3YUE+o6Vi0XclB6EDJz0FOQ+w5Haq+8+9TJIPXipaGmWlYcZA496eTgDHPPeokfC9/wA6UuPT25rKxpccx4Jxj05qtIVIOetSOxIxnr7VBI2Tj9KqKJbIZOCahPpzUzE9eeaizwMj/wCvW6M2Mxk49aP89accDjnNJntiqEN2kdelAB7j8Kft9P1pCOeOlArDMUvA6An8KXBwTS45oAQDpnvS7T3FPVc8jr9aeE7evSk2NIjC8HIOD0pQM/4ipVQYzjnFOCHr+pqWyrEezv8ApSbeuBU2zkgigpwc0uYLFc8duKU8D6fnUpXBH14NNI46807isRd8Ypc4GcUrDg8f/WppPfP40xDi3UHqKYW5zzmk3D8Pp0pvPUninYBSST0NJn/OaM9f1oA9T39KYhevTNLk46H29qb2Jo4HSgCVJO3P51OknIGaqKe9Sow+n4dalopMupJj1wfQ1MJOQp/OqKvzxU6MdvB+orFxKTJy5AGMnPv+VAbjOPwzTOcDHcc5p4TvSKExkDp7EU9Vx2OD70KufT6mpgu3r2PQUXBIVR8px696sRn5sAce/pUXQ5xT/M44wTUMovxPzyOPrVtJR3POOeayVmA6HpUq3HIxjP071m0WpG5byjeMjn1z0rcsmDHBFchFdAOBk4rpNMuMlOKxmnY3hI62zjDEHpxWrFFwOKoWBzGvp9OK2YEzisUW2ItuCOlONrx0q7HFmpvK4q0iOYxWtuvy1A1rkHit1oPaoWt/aiw1IwHtBgnFQNZg9vyFdA1v3xxUTW3XilZj5jnWswf4RURscg8c10Rtvbioza9floux3OdNgT0BGe2KibTz025NdIbUZ+7TDbe1PmYHMtpwP8Jz6GoW0w46fjjpXVG1z2pn2UelPnYaHJPppzyveoW00noh5rsWtOfu01rQHjHH1p+0YrI4p9NJ6LwO+KgfTT6Nj0ruDYg/w1GdPU9qpVGHKmcO+mcZ2n3BFVzpp6Y/Gu7bTlxwoz7VA2lj04qlVFyI4ZtNyOF+n+fWoW0w4xiu6bSwT0/SoH0vkDFP2pPszhm03LdDtz6VCdLIHCiu6fS+Pujiom0rqdg9qr2ovZnCtpmc5Xt3qI6YcnK4+ld0dLOMlccVEdLOC2Dj09ar2pPsjiG0oYyRzjkVG+l+wPPWu3bTACRt+hxTG04jt+GKarB7I4f+y+Qdq4+uajOl8dB9K7c6dnIPT6VE2mnGdvWn7Ul0jiTpbBT8vTtUTaaQ2Nhx6g9a7htOIJG3vj/9VRnTP9k5z+VV7Zi9icQdNYAgA570xtPcchTXbNpg/u9/TFRNpZPQcD2601WYvYo4foAf60ucH6HrUeSOPT0ozz04zxXRY5rkoJB69PepVJySRxjiq+SPenAkY5P+FJody2r9fpgml3t7H1NVd/GcnPvS+Z9MVHKVzE7NweevvUZJPIPHfmmbwc5Jz9KQnjr+lNRE2NO480HIH+elIT7/AIUn5+vSrRIYJ9MD8qACePrRmlXknOevpQAjA8emcYoxzyTnFLjjp+YpwHHv3GKLgNwe2QTShDj+XFKo4zx+XWpApA5H60mx2GhSTipAvb+XNAB5yPoakUcnjGPaobKSFCHoM596XaD3PTg08A/j2/WlB5ORj6/596i5aQ3byR0B5pNnB64zzzTt3AYgj1pu7B6Hj+VGoDSnGccdTUJB5PQVOx9/wqJiDyB+OetUiWQN9M1G2Rn1qVjwefyqInnmtEZsbnPf8KSl5FBPb+tWIWkJOOlISP8ACkJ9+1IAJ9BR15pOo6c0Drj+dMQoOMHipF/yaQL7GpkQ46ipbGkOTOParKAnGP1qNIznkVZjXIPr1BNZSZokPRfxqUDnG38hVi2sZZiAoJ/CtZNCkCnzPkI7N1rnlUjHdm0acpbGIvbgjnmlB/OtWLSElcgS98L71a1nwxNpdkl0d5jccEjH4UlVi3Yp0pJXOeL44BqNpD2yR9ajdiOvSoS5IPJ61skYNlgz4HGSaX7Rnocc1RMh3dQR9KUOQeccU+UXMaaT/MDnrXTaPc5KgeneuNjboOa6PR3+dQT3rKpHQ1py1PT9JmDRr2rpbU5rkdFb5Bk8/Wuste1cK3Op7GrFjAqwFyPrVeHOBVtR0q0ZsjKZ/wDr0wx5H86sEcU0inYVyq0Qphh46VbK0wj2oKuUzBTDAPSr20U3YOeKVh3KPke1N+z+1aGwelIY/bmkFzONv1pv2f2rS8oUhiGTRYLmYbfA6fpTfs9anlD0pphpjuZZtvakNtz0rUMI9OaTyf5UguZJtgc8Uw2vtWuYB1pvkcUWHzGO1oDnimG05PpW0YOenFN8gHg0WC5ifZOOnFRmz5+7xW6bfjp+lNa29qLBzGCbIegxTDZDJ4rfa1HpTDbDPT8aB8xz7WC/3f0qM6fkfdHXn3roTa8dOaabUenNGoXObbT+fu/jTG04dhzjpXSm1GelN+y+3FGo7nMNpvX5fpUbaaecL+ArqDa+36U1rQdxRzMZyp07nlcDGc1GdNx26nkGurNp7Uw2g7r+NHMw0PmsKT9aCuPxrXewIxj9BUBtCuDtHPavVVRM8zkaM4gnjtRz+farptiG5FNMPyk469sU+dC5WVCTjjHHtTSxzirRhGOnuKjMJHOKpSQrMh3dOTSg/wA6eYyCODz2xTdmO+fTindCE3c96M9acVIycd/SkKnB60AJn37U7I54596Z9M04f5FADsjGcn8qcACee9Rgg9M04HsaQyUYxnHf86eo55wB3NRhjn+tPB6ntUMpEq9fw/KpB6jH51CJG6c04P37etS0UmTbvlJxwe/rSEgn0+p61EX7Z/Gjdxn3556VKQ7j9/OD2603ecDp7VGXHr9aQuCSCTj3qrCuPL55U/jTDyeo475pm/n8aCflx+lUkK40kkdevrUZJz1x+NKW59c9qQ9uPwq0QMzSmnY7ijjHX607iI88UhzmpCMUbOM+tO4WIx+vpT0BOAP5U9IWdgApyTWhaabLKQcH64qJTUVqOMW3oNsrCS5IAH1robHw48hyVP48ZrW0PTEtdrSDryfaurtIlYYVAF9a8uvi3e0T0qOGja8jlB4TY4AGewFX9N8Gb5Q0z7Yh1J710QBExySEB5J7/SsLxF4piQta2rfKoI4B5Nc0atWeiNnTpw1Y/VtS0zRoPK0+JTPjb5j9j6isOx/tHV5XMYYo/DORwP8AOazLCyl1m/DNu8vPOP5CvUbC3isrWOCKIIV68Vc2qatuxRTnrsiPQPDFtaFJJl8ybrz0re8SaeupaHLDgZVeABU+nhQ2dg6ck9qmgfz5ZVOSCe9RFvdjkr6HzrewNDcNG3UH0qnsJPT2rv8Axp4cltNTedYyY3PVRXLi0I2krXpwqpq550qbTsZAgbPfmnrbtnn0HOK11tVJIIz6VItkCcYqvaCUDISIrnNdBo+4MvHeqxtMDgVqadDskUY71nOV0XCNmd1o2Nq4zyODXWWfbArk9GJAXkc8cV1doRgZri6nT0NmHtVtRVSCrqdK0iZSDFIV60/FLiqsRchK800rU+KTbRYdyuV5pNtT7aNvtSsO5Bt4o21Nso20WHcgx9KMVMUNJtosFyLFJipdlJtpBcjx60m386eRikosMZtpNo9KkwKTikA3YPSjZxS5pjSAUDEKDmm7RmmSzgDrVY3gz1FA7Mt7B7UhjFVxdjgZoN0PXii6CxKUFM2DJqI3I9aZ9pHrRdBZk+welHlj0qIXAqQTrgYNAxDGOfSm+UKd54Pek84etIBphFNMIqQSg0bx1o0GeNy6UBkYA9sVSl0vAPyY9a9Ek01GBwP0qpLpKkcA568Vaqi5EzziTTOT8mOcH/PeoJNMJ/h5r0KTRwQeB14wKqyaPjopORnNWqxHsjz46c23P5VXewbPGSB+ld8+kcdAOe4qvJpOAMgZ78VoqxLonBvYOCMLTTZttztrtn0leQVwe3pUEmjgYwnfA4q1WJ9icWbVscKeTxxUbW5GMc12LaQCQNo5PbtUb6Swx8v0z2qlWI9kce0BHXpTTGQcHjjiurk0nK8L36gVVm0llH3QfQ9M1arIl0mc4UIOO/pil2kHHGPpWw+nMOOcD2qNrBlI479qr2qJ5GZmwgAnApwBwT0Ht2q81ocdBg9MVE1qw6gdOOe1PnTDlZV7A8Z9qN2D1HXjHapTbn0600wnIwOc8U7pk6iZA/EU3d1PGcUpQnpnrTfLOSc8/WnoAhb3/Km7j7fhRtP+TSbeM5xj3piFye5qRWyMY/OoSOM+lLgjoeKdhXJSuTwfrTdjZwPypA5B68VNEN7AEY9ql6DQLCeDjg0LAxONv410+k6K12AMD866O38GO7hwvXviueWIjFm8aDaucBFpcshHB/Ktm08NSzMAUNel2HhKNApYYOOR/wDqrorPRILdR8g456Vyzxb6G8MPFbnmmm+CpGb51x+FdMnhu3sbcSOg3Y44rrpI441+UAEdKxdYuBFbMWPauOdacnqzphCMdkcs4U3G0ZwOMZ7VvWqiNCG2gev+f881xk2ppHcbg241Be6/KI3/AHmB05am6UpbFe0jFFzxN4ja2BgtnA3Z3Eda461Sa+uVXBYk9etVJZJLy8J3Eknqa7DQNMNtAJHXDuM/SuxxjQp6bnNFutPyN/RrKK3RQigbcAHuTXQQg+YM5wDWNbsQcA4z29K2bK2e6kUhsc9RzzXnvV6nbsjsNIijeDJ7irE1kFkDRHHqDUVlZvHGo80j8K0PLDLhiW966YpWsckpNO6MrVdJi1CzKSoGOO9eT65oj2VyyqhEfb0Ar23aqDAOfbNcz4l077RauUh3HFNPlYviPIVtzjkcA96cIwGx6etas1hchm3jgdsUz+z5gudretbc6J5GUVhXkY+tWbaPawbHOeKf9klXBKHjvTFDRPjaad0w5bHV6W2BiuqtD0rjdKmBx16cV1ti4IGDXO9GX0N+A8CryHis63bpV+M1UdzKROKMYoHSlxWpmGKTFL+lFACY4o20ZoBoATbxRtpc9qXdRoA3bSFacWFMLjFGgaiFaYwA7UNKM9RUEswxUlpCs4FRGYD/ABqlcXm3PP61nS6kAfvfSs2zRRNszc01rgDvXOtqfPDD86Y+qApkNxU8xXKbsl2AKqS6gB3/AFrn59VAH3hjFZdzqjnpuwe9F7lKB0VzqgUE7v1rLfWQrcsPwNc7NeSOxyTUMe9mHbIosOx1S6wMAFvan/2uCOpzXOrG2OMH3/Wl2P74Hc0rlcpvnVhnrmlXU88g5/Gudwckc5HUelSJkMM+9K4cp0i6geOevepV1EEDB/WuZ3sDg9c4o8yQHpx+tFw5UdP/AGjn+Kj+0RnO7iua89yDg8VH9ocA9c0XDlR1q3wz94fhT/tg/vVysVy568emTVlbon2ouLkOpNv144qNrcelapjHNMMPaqsZXMhrUfnUTWoz92tgw5zTTBz0pWKuYbWK/wB2oXsF5O2t8we31phtvajULnONpqHnHtzUbaWmfuj8sV0htuvFN+yjpindjucu+lKB071G2kg9AB7V1RtR+NNNoMjjkUczDQ5J9IUkAjn0qtJpGT93nvXaG09hTDZdeKpTYtDg5NHyT8uT9KqPo4IGVOPSvQmsFOMr9KhfTlbIx71XtGLlR54+j8dD9RVd9H9BwK9GbS0IGRUbaQpXGOvrTVUXIjzZtG7bTzVd9HbdnaRn0FeltoykAkd6gk0UHGUGMdQOlWqwvZI81fSWx91gB6VVk0xh0B4FenPofP3eOmarSaGSOV4PTNUqxDonmsmmMOCD+XUVC+nuN2c4FekPoW7Py/l61C2g5BxGcY7CrVcn2J5u9i4bofrUbWb5xjk+9ehSaAQ3KduDUEmhZ52ZxVquS6LOC+xt/dP5VbtbRwwOOc811q6L82ChxzkZrXtfDO6MNtB96meISWoRoMm8GRKZUDjBHHI969LjgjCDC8YrzyCxl0g7wmB1rpdN8QJMoRjhu4rz6msro7Iq0bHQBcNgdqc544NV0uFdNwPPvUbykZPas2xpFW9u1gBBPP0rjPEuqb7dlU8Cui1FBNIcZI9q4fxDE8aEYO0nOaKUU5FSdonHy3paTrj/ADmq1zctKuATyOlRXLAPng+mBUSuWYHGK9iMEtTzXJ7G1oNqjziSU/IvJJrrxMzsqqAPTHUCuXtAYrAbQAzHv2rXtJXdQwJGfX/9dcNZc0mzuovlVjp7ZgigBSx9fWup0mdYRvc1w0V4kZAYhiOnvXQ2F9vTCru4yCe9cbi0zobujtINTE/3QcetWWvWVR0H1rkoL+d5BGoIJPTFXL6O4FoWDkEDNaKVjHkRux3byyZLfLVm7jWa1YA8kV5Zb+Jp47jyz0U4Ndxo2rm+QKM+lDk1uHJ1RljSh5x4br0NXotIRgP3Yx61vpYj7xHWphDtGAoqeV9Q5+xz50eDBytYuo+Ho3+ZBg+1dlJExJGKje2LdVpptbDvfc8/h06a0fcVOAetb1hcdM9a2ZbFWU5UdKyZrJonLIMc0+d9RcqZv2soIHPStOFsgVyNretEwV+PauhtLxHA5rWMkzGUWjXU06oI5AQDUu6tk9DBoUmmFvehmqtJLjIpNjSJjJ703zR61RkuQO9QNeBSeaWpVjV8334pDKPWsn7aPX8M01r4AHJoDlNV58VXluwAeePrWRLqajI3fhWZc6uoVju6VLZaibsmoAd6oz6iNp56VytxreTkN16VW/tQyEfOB7VLbLUUbF9qZGeeayGvZZCfmIqEyF/4s8d6kiQA4wSOeneouapDg8pA5PJ5zQPMYckmp1VFA449aGKgZI5qbjsVjG7Kc5x71E1seSOmeua0U2n6dMU1sdOOffrRzDsZDW5BAA/AVNFBhsH8KtEKWYAdsZFPVMNyBye1LmHYelvx39uKk+zcE7elTwx5wcAenNWVixngYqWwM77IenGKT7H7Y9K1fLHoTR5Iz90UrjMs2hIPp2zSfY+Pb0Na/k9sUoh7Yp3AxWsmPGOKheyx/gRXRfZwc8D2prWwPHb607gcy0LRgnv3pq7w3p6VuzWgK9M1V+wjJ+Xn1xTuOx3OPypCPWjPFHWtjjDbSbQaWloAZ5fFHlDFS+lFAyHyhzxR5GKnFOApAVvI6+1J5A9OauAUu0UxXKX2b2ppthnpWhsFGwGgLma1qMDI5pptB6VqeV7Unk+1Fh3Mo2nPTmmmz9q2BCMUeSKdhcxjGz5+7UZsh6VueSOOKabcelKw+YwjZei/WmGy46Vvm3pn2YE9KLD5jBNgD/DnNNOnL/dGfpXQi29qd9lHpRYOY5s6Yv8AdH5VE+kRcgp168da6k24Hb8ailgAHSmHMcVc6UsBLBcevvTre4iiADDGMZBNXPEVylpblsjr0rz261K4cs0ZNLkch8yR6DNJb3tsUBHT1rz3UppdJ1H5CdpPHpUum61JEyiUkZrV1fTDrOmmeIAsoyOetKMeR+9sDfMtNyaz12Uwo5GQenFbC3U9xAHA2qQckmuF8NXyR3gtLnsSMMevbvXaarqtta2hEZAOOMVFSFpWRUJXVyeIOD5krkexrgvE7XN5cNHCxKDPJ4rqtIM+pRF3lJRTyAKxvEtoyLuhfgcYxRS92Y56xPOLm08okliTRZ2sk8gyCB6mt230xbpmabhV6gVNJGmwwQoEOMA46mvQdbSxyKlrczWvFWQQxgsE4FaVlLNJ90McckjsKgt9GkVgHO3eeWI7d66fStNi+xsdu0cAEjOQDk1hVnBLQ2pxk3qLpGjTXN2iP0YkDrxgV2mj6QtpGxkA3E4X6CjQ1ihhknY8ljjgcCp/7SSR8RnjsK4pTudKVti4tugmXA5Bq5exeZalPbmqdpIJJhnt1rScBgQelOJMtziT4b8yRnUYLv8ANx0Fdpo2lw2MCgde9U5JFiXK+vWoJNZMJPUAdaTlZ6hZtaHWLMpzkigzIK5WDU3fcR/OpxdySMFXmn7Qj2RuvcR56iovOV+lY9xHcSD5TUBuZrZCrA578UuYpQSN1mDfd5NV54gVIxWbb6hxuY/nVv7R5i57elCYWsZ1zaZYkEj3qrDPLaSZJJFXridU6ms2S5iZtpZc59aV7PQvlujftdYDYDHmtWO/VgOetcnDZs6h1/CpVkeA4JNaxq23MnSTOqa7UjrVOe5GM54rFF1Iw4zVe6vzGh3HgD86tVEyHTsW7q+C55rDutbVGIBP1qhfXzupK5HHWubujM7Z5xWq1JasdWNewueeDUVx4jCKcEZxnk1xbGVcjPbiq+ZnJ5JHr61XKhXN688RyEnB4HoazZNalkB3FselUGhYg5qDyDu6U7RFqaA1Ekkkn6U6PUGz1yR61QFsQM9x6U3yiuB/kUOMQuzfh1E5znjNWU1JePmBPpXPKhH/AOqnO7L1P1JrPkTNFNo6YX+7B9+DTxebsDPeuWS62nknp6Vaju8Y5PSpdMpTOnjuhnqccd6mE+4/TqCa51bzgDP0xVqC7ycg9KzcLGilc21AY46irMa7sYU49SDWdBP/AA54rRifPvWTVi7l6IHAwR+dWAMDoPzqtEPmP1q0Bkd6kA708dOvFN6CnL0FIY8Aen4inhM5/rQmMVOg96pCYxY/WlMYqdVGKeEzmqJuUTAGPb6Un2YDtzWiIxTTHTsLmLGeetJ70uKUDJrU5wFL7YpQpp22gYnpSgZoA/OnBaABRTgKULzTwtAhoFOA4zTtuKULTENA4NOApdvtS45NOwhoGKcB15pwFLg0wuIBxTtoxRinYxTJuN20bB14p+PypcUxXI/LpPLFTYpDwKLBcjEYzS7RikeQLVG41BIgfmFToikmy1KyqMnFY+oahHChyR7H1rM1XxCIoyFJzjgCuB1TxNLKWQ8c0km9itty54lv2vTtA+UHrmqWmRQnaswUk9cmsG+8QDywpzuJ4NVU1rYx+fPfFaezk0LnimdhqmlwSKxiwHHPFS6DfyIBbEZjK4PHSuXj1/dtYFioIzzWnpWu2ySlXiyGHLjtUShLlsVGabMjxTp8thqgu4idhbIKmteC2n1fT45omJBADDPNdJcLp2saa8UrjKruYdx7j1ri4tXk8PXbQB9sO7gjkUrucUluh2UW29mem+G7BLTSyjKFLD5gRzWZ4ksYCgZM5P3VJ/UUmneJrTULVWgkbzNpJIHT1p2qu2pW8RTnAOW6rnB/LvXNqpam62OAMhifYvOT0q1pdt5mrKlyNiseGJ4Jq3ZCy8w/aZdkyuQrMPlYen403V7uC5ts2mY5IwG+uOMVve+iIStqS6rHDbwOIiTlwFA5wcYP4cU201YR2IhZAHWTLZHUVgW1/KzPHMSwb7wPb3qxfyhwJYsByMMB1PvTVPow576o6bTtSkkRlDHCgn0J6f41PCHjlJDZGRjmsfw7YXU6LNGQfm2sD6dz/KuotNOnikkWVSoA7/xDPArCcUmbQeho6VK5iJIOT0BH61sK7mMBvvVm2yCMb25c4JNXPPxgHGazTE0QzoxYeneqs9qJTWlI3mcA8d6i3IgA6sfakxopQWxhPXg1tWiov+8azXYs3HFPinEWMnApp2Bq5u5WqV5Gjx7iBzzVV9UjT7zZJ96hn1ONo8K4/Om5IlRdyvcRxtKoU9OvNWlm8pMdSa5jUL2WMl4yVJrF/wCEjuxJ+8b5c8cdaqCcthyVjt7lVmiO5gPrXJtMsV+EVy3zeuaxr7xFeSZCOyp2Aqz4fsrm8lE0mTg55q3S5VdijO7sj1LScPbqMckVPe2OVyKo6bN5QAJ5rfQiaOpjZqxMrxdzm/K29aqXFoZs9a37i2AYnpUSQjPT61OzKvdHHXWlspJqo+n5TJHfv2rubq0VojwK5S8cRzMoWtlJkWMJ9MDtwvPTrQdFwm4Dg9a1VlGQcc1bjlRuO3Q0ObQcqOTn09lBHUDrzWa8O19o784r0CSzSVMgD64rCvdLJbKJ+lXGdyXE59VBQ8844Hf/APVVaQfNkdK2J7JoQTgcVlTNsJBxnPGa0i9SGrCxsqqB0pHVWXIHBquzHPXnrSpuBwRVWJuRSgIT/OmI5DAZ5PXnrU8qsV6dP0qiwKNnpVJXJehqQNk5J+orUt1ycZH0rm47sxsMkfnWla6iFFRODNITR09svzKAcZ5xW5aw5UccjpXKW2pgsPmH410llfIwHP0z1rknFrc6ItM2Eixjn61MBgVGkoIAH6U8sMDHFZFiHnnt60qc8fnUDS5OB1qWFt2P8aVx2LKL3xxU68U1BnFTBeBVohiqOeamUfnTFHtUq1aJYY44pCuafiiqJHBfyp4T86VVFSBa0MRgXFLtqTb3o28UARge1OVKeF/SnqtJCuIFp4XjpTlFOAq7E3GbeKXb7U/FLTsK4zbS7adigDmiwXExRtFOxS07CuNx7UuKXFLigVxBS4paTNMLgeKgmk2CpWkAHWsjUbsIhGefSpkyoq5Fe34QEDk9OtcvfXE8+TGT9asOZbiQntTooQPlI+tc8pnRGNjlblnMTM6E7eDkcVhzvbTvgj5j3PAFejXFlE0TgxjDDmuR1jS7Vozt+SUHk5qoT1CUbnM3Wk2csTESDd6ViyaSQ48slgCN1X7vTrqOESpPwW55rMe4vLIByuQep+tdkG3szmlbqjpLLw4t1pm6MkSrngH7wxVC1tpLPcJQQQTyR+Favh/XZIxFFKhVGGM4rQ1a1iubWVFdQcZjZep+lYOclLlZsoRaujCjujJLuSUpIuNv096dfR/2rbSI6hJ0GSR0Pv8AyrC02WZr9raVTu5XA7n29614LqS1likx5jL86sV7Zx37VpOLi9NyIyutTAs9R1Dw5fsOVUnGDnB5zXXr43knt+EWByOqn5W/Dt+FaVzoml+KdKb7KAl4o3bTxn6VweoeGdZ0XfuhkMa9SpPyj/Iq06db4tJCtOltqjpJ7+11CApcSbJX/IH07/nWbFayRMTBIXJHKM38s9a56FTJIUuXdQf4x2Occ+1bFnDcJMRERLlPlOTyMj8D3/Wm6fItGCnzPYuWGnyzaqkbgqWboAcjtjFdzp3hON3khmkDOMFCf4fb3FUPDVlBc3kfmO3mKA0T5OQMdD/n07dOvfUEijkdUYzwDOwAjfxx+Pb6kVxVKjbsjphCyI9OsbbSYpIslFMh+UnocHpWs0chVQTkEA5HcEcVj6hcx6laFogQGw4cDkdME+hrbsYZDpkKOTuSNBn/AICP/r1la5V7GVdS+TEc5yBx7/Sora5d2JJ4HT86tapAy7SFyq4496dZW8cWC477jWVnexqti5DEWQFu/T2qQ2Q3bsfjViMKFU4x7VZDLtyTVqJk5GFcwtExYAnPpWLe321ScbVU4BPrXSX89tBEzzSKi+pNeb+JvEEDfuLbcUzyx701TbdkUppK7INR1qTeIIZNzHiiDUpUiAZiSeDWRpkbXc33WJ7Af0rp4vDoEIllz0yAO3NaTjGOg4yb1K+5rpgTli3pV+Pw2JeTk/hU9pp6iRQAAR2HYV2Gn2oKqGrJN30KlZLU4FvCkiygH7prtdH0dLa1VdvQVsy2SuwwtSrA0adK0fM9zHmXQxp08iTcBxWpp90GQZNYOrzMjnPGKk0eR5MdQKzTtI0avE6C6cMOKqRH5qutEDFyaorxLjNOW9yI2sW2TzExisG/0wFiSuea6WFCwApl3agpnFXZ2uRzJOxwdxYHnGeKhW3khYHBwK6x7TcSAKgawDcYpXZehmQfdwT27U4wqRuwB3q49l5Q6dOnFVLjIRhnFMRgasqYbB+tcrJbgyfjXR3odiSe/U1iMpEuAOa2g9CZIjSxUL05z3pwtguCT9MmrcSk4yO34kVIYsrnI+tHMw5UZ0sKqCpz1/nVCaBWJIx3rUmjBYc45/KnR2u8Z7dKrmsS43ObmtWz0+vNMELjp7V08mmsckL+lVW06QdF/StFUuQ6djBWR4zkbsZxXQ6TqLF1DH8KqS6azIWCn16VFHbS2xyBjHUUpWkgjzRZ6VY3IdAdwORV3lgK4bS9UeNlVjx0PFdtp8yzopByDXFKDizqjK6uKsJJq9Bblev61NFGp5q7HGMZpKI3MjjjwM4qXZ7VIE44p4XOatIzuQqmKkC4+lSbfakJqkK43NJnP0ppP5Um4UXAuAU8AUgFOzWhgL1pelNFO4piF9qcOKaDThQA4U4UwGlFO4h4NFN6UtMQvalHekzkUZoEOozSUnSmA7NLTQe2aXrRcLC5prHFL1qKU4WhsEipdzFQcGsK5YynB9av3coIOTisW5vUQHB5Fc85HRCJNhUwQaryP5T8ng9wazLm+cJkPhT2qjJeSXRVAxz0JFY3ubcpuT36ImzepY9qwbi0kubv58hWHHHFRuRFMonbD53Z+lZmqeKoraQwwYb5MA5q4xk3oKTS3HPohvZxBFIFyTk+v+elUNR8K3kLGNFUxk9fwJqgfE5s7kEtu71fPjKSZA+8HBPGMda3UasdVsY3pvc25vCypo8TwyMZosMVHfoSPw5/SuHvdUuNI1QwSgtC3K57A/5/Suv0XXJZ4P4gVBGCSPofwrnvHttHKi3MeDt2tkDswJI/Orw93PlmFX4OaI65s4riyTVLHiWIgyDPUev5YrQ1OxRYdOni4iYFNxPC7iGGfYEtXL6JqD2ukyAOeTgqc+o/mMiusTN9oCQL99cgencgH3wP0q6icHYUGpIpaVqC6Zq8RuVzCSyMqnGDjqMe3P8A+qu+06eC+s90gS4jxgsDuZQeOV9wPpx+Fed67pMkMpgk3B/Mby3ycfLznp6MPyrPs7690+IyRylAz8DdyPb3+lZSpqa5k9QU3F2Z6dL4E0PUZZZkDAyrxt6DjGffj1rnLrwvcaCxe2hDwoSjp13f3W4+vbB4q74f8YyXE8SzlkZCQxOPmB6g++cHP0FdDNevqOiPJFsM8O5cjpuXjH4oSR7isnKcdGaJReqOPtBvlNxYlkmUf6g9R9PUHp2wT+NPg1O4vLgzOuJITiSM9JEPG78Dj8wfXG1puiw37rO0jxX0LlTs+64Bzj69/wAc96XX9MnsfLv7eBZEX75AOBkcjjt2/Gounsaept6XDbXFtIsY2xuc9c4Pf+ldPZwgWkak5KgA++K8o0/W47a7aBJH3bQUB/LBPc9R9TXd+H/EUN7Eh3ZyMg/pQrp6inG60L99D+8lYj5FG7p3rDDsv7xzxnoOa37+RJYC4bA6HHpmuY1HU4bGN7iY/Iq5CqKUld6Dg9NTTuNSitoS8zLGqDkntXB618ThDI8On25dgSA0gwPriuW8ReJU1afEkhht1+6oY5b39q1vh6/hebU2j1JRGpwQ0g4xzmu2lh9LzRzVa9vhZzV/4v1XUbgG7mwpPROB+lOjj89gxYt71a8XaPpUmt3/APY8iNbpKdm08f8A6s5rn9Gunt7r7NKfYZrpcIuN4dDKM3dc2zPSvDcMUMiFgM9hkV1ZYkBcHJPU1xWlStE6vkY4yfWuw+1LIipHty3BPpXk1Nz0I7GjBCqsAgAFbFuRGBk9e1ZtsmwqCc9+tWnBZgI+ahMJam5Dh1G3GKn8rctUbHeiANVwykHiumLVtTkknfQ5/WrINknGB1FVdN2xsFB+vNW9ce4kQhFwDWFZ+dEwD9znisKmkro66avA7IuDFjNZYYLOatWhDQgse1UpXjFycHmiWyZEVZm5bONoqeXmOqNocqD2q64ytbRfumE17xQMeWqQQDHSpgnNShQBURRTkZlzCNp4rGubYvu2iujnTcCM1RkQChlxOLvNKdicLjiqS6FI3LDr613ht1bqB+VMa3VV6UJsptHAz6fJACAtZ0hdMArjPSu6vrcMpG0c1zN5a4bhRnoKakOxz2HZgccdsVtWVuxQcHkflUlrpyghiBXQ2lvEqY456e9Ep9hKNinBZqVAYD8RVoaPCVyV/OryW4LZFWhGwBpITMcaFC2f3Y49qp3Ph+N+AvGa6TJB6dKidwByPxqtibnD3OhNBllHTkD1qXTrqS1kCk/mea6C6mjOR+tYVwkbPlev1pt3VmNaHW2d4rqp3D8DWtFIGHXmuBgvGtox83/6q2tN1hZ8DNZ2aKaOsXDCn9Kow3alc5FTicMPf0q0TZk+TTGpnmg/SlLUCQ1uB2qMtinEZpuwmgo0eKWkxSgVoc4vpSgUAU4UxBil5pPp+NL+FAB/OnDrmk6UtAhc0uabSimA70oopR9KYgpMUtFABjJpcUu2lxRYVxpOKz725ESnnFXpTtXPauK8Sap5KsoNTJlwV2VtU1mKMN8/I9K5O61rzHbBOP0rC1TUHeVvmyScYz71RVZHiJYnpzkVKpdWbc9tEa0+sMjkg5P06U1NeeMq+O9ZEyquR8xbHWqTq5XAUk+1aKlF7kOpJGtqfiATNuXOSuM+tcvLdOzmZ+Sc4q00Bi5lHUnA75qp5Et5P8kZ5PQV004RiYVJSkyGNGlkyRjNXord9+wKfm/XFai6bHawKzjDnp7itDTraCSdWkUbVI+UE5I71M66toVCj0Zp+GLZrMvcOAQnJyDkDoetT+K4YpLVFjQBXVicHtkHP05z+dUdQ1D7LOy2xMafxqo5xjr/APr/AP10TeNIY2dyIiNhweUJA49OQK5YpuXOdEmkuU5K6fyYnRRgE9Peum8LXkrJFiXEgOwqx4YdgfxGB7mudvrGVovtB+7kg4HfP+f1pNHklSUhGOSDgA85AyP5V6E4qdPQ5IScZnrs/kamsKyRlXmyrBh35Un64H61zvijSdmkW3lqoWSeR0AH8W0DHHuG6dxUkeuxyppkof8AeR3KZUjpg5z+O4/iDVj7eLzS7iOYEm0nF3Ch6OA3zr9du5h9a86HNCSZ2SakrHC21xNaX8Ehb5sqT+P8jXq2kXqW8M0qxhraQMXRRkxuB1xjkEAAHv071514tso7a7cWozGdrKw5zwcg/hk1FYa1MthGLe4dZ0+XaWIDKff0/wA9q6KtP2sFJGMJcknFnoo1F0vrgW8ax7AJAy9MELyPYk9fcH1x2lrcWus2Hlvhg4IwT1wcg/XjNeXWFudXtbeWGYR3Ucfk3NtkAMoZjx+GOPTGOwrT0XVZdP1U2MpkMJAAY5JGByD+OOe2frXG4cr0OpPmRu6r4MtZZ4ZbbMLM4yQBkcYI/AgEfQ+tcUsWpaEkrlGUo20KpOCQTn+X8q9Rt7qMRrLK37thnnjb06/Q/wA/asrU7i1uYZQyJJvABbHU47/hipU+jBRdyvY6q914chkdcPIMsPWvNvFHim5+2zxQSuIowA4DkAt2HFegSW6w6PiPgpk49jk14dqUhkhLsPmkmZmPvXXgqcZzbZhipuEbIpzXE9xIZJmLFvwpY2fGVyMelRSZG0Y7U+3cJnIJJ6V69lbQ8ndli3vZbeZXDEYOeelTX7jzY7iPIzg8GqL4bjk/jT5ZC1ugJ6Hpmp5Ve5cZO1j0PR7oz2UcmDwOv+frW3ZaizyooOApAHeuV0X91pCN/ERwDWjpDOb0ZJ2g88/rXi1YK8j16cnZHrFmBIiZJJx69a04tsTgKOvc1z+kXXmYbPJHNa8b5m5PPYelcsWaSRqtOqKPXFQNqCR53HFJebYLbzerYrhbrXJGuSrR7QDzk1tJtEQgpHbTXqTrhSDWNcx7ZBjv6VUsrh5DuUYqaUu84yeO9YOTkbKPKbloA1vzwMVlSqRecZIzV6K5SCDB7Csg6kktzwQea0lblREb3Z1NkCyirr/KMCsmwuc4FabNketXF+6YyXvDlzxmnkmmR8inEgYFNaGb3GuuRzVR4wTmrbnjmq8hwKUi4lVvlOKhlfA5NPkbkn9azrqfbk5wBWblY2UbkVzIp3DP4Vg3RUybuv8AKnXd2HYgNweMVSM6dT+JPpSTbNOWxO0vGAMH1FT21yyJn16H1NZP26NQ3JORggmq0usqrY6L3x3qlFsltI6qG9YMpz8p6ir/APa0cUfJriE16PGO46c086rA5CsxBqlGSJfKzt4tRgcEkj3zUFxfW7cB1z0xXOxIs8R8uTFZd7ZXcJwjsc8cU466XJasbGoMrhijZ+hrDuJXh3E5PrTIWuYyA/J/E0lxcKxO77wrRKwnsIbzKHd1x0xxUMOqfZpflcjJ9arTlnjJXNc/dSyRyHOcD3rWMEzKU2j1XTdZEkS7jj05rdivA3cH8a8VtdZlgxyfzrotO8TScBm4PfFZToSWxpGrF7nqaXBPHarUbbl7GuHsdeWQgE45rrLG4EoB9ay1T1NGkaipnmnhMUkbA07PFWjIn79qeKaKeKsyFApRRj2o70yQxS45op2KYDQMU7FLilxQA3FKBTttOxTsK4zFOFLiinYVwxSgUopRTEJilxS0UxFK+bZCx9q8n8UXhedlGR6nNeparIEtm+leL+IJHur544x/FWL1kdFPY58BZJmLAt7Zq60iwQMGwDt5BNXVt4tGtWnnIaZgAq56ZrNs9LvtdvMQxfKc4Hp9au6foVZr1HaZZ/a5wrDO48KO9dmPCtrbW4lu225x+7jHJ7VpaToVroMasV86/YBSw6J9Ku3hjhgkmdgHRTljzznoPzIrnnNyehrFJLU4nU9L0uKdncKF6hWbnNYN/fWOmq/2SLMmD25FWr/ZNK900hKnOCf4j6D2rn5w11IIzhUAziuinHuzKpK2wlvdzX0yGQZODkjt71utd21vbiVYypHIZRkD3/8ArVLomjQpYvKzRhmP3COc/wCFUNUWTy2tkiCpnII5/HNKTjKdkJKUY3e5AsrahctKn+sVD8rH749B6/Sse4eeIxiKTcuPvDtnsatNC8BVo5CJOGypxzVy2s0lkWdDujfh1UA4Jxnj61umo69DNpy0M4TskP2acfuZDuBP8OemaSOGNTHMkYzFJiVM9Rnj+orW1CygW3CBN0ZG5XH8P09s9j09uayiocGMY3DjjuPr/n0qoyTWgnFp6kzWrI6yRuSEBkRu5wScn/PY1o2txIbN5I8g4KBgO/y4J9+P85pLGxeaBfLmRn+YAAnLLxkH3HHHoTVWK1uolUwebGZA2CpIwQRn+f5VDaejNEmtUTRQzX9uIt3mBN2U6bSI8qPzz+VYssCQfvY2LLuRSrDoSpP6dK6HR9UKm4SXas5O9Pl4JwcgjuOTx6kUybTo5bK6mGd0bhUXrtGGyfc5Cn33e9VGfK7Mhw5ldEGialClxtkC/wAAJJKlV7gY79MZHTPtXXeVGw8s3aPdgGS3mVsM4GQVJ7HHOPUH3x5tCGjvlJVTlT36it6G58uJWEb7omzgng+36fWprUru6KpVLKzOwtPEDpO1ldMfmXZvC/eH8LD+Xt+dR6VcNdagIZyQd+CD09R/X8qw7S4jLRzCTfEz5VnU8Z7e3p3H5Vctb02mpLI8L+WTy45Fcjglc6VM768twLTyiMkKRXhniDTjbXt3aAcrJ5kee6mvco51ubaORM4I4PavOfiFpkkbw6lHHny/lkI9K1wc+WpbuZYmPNC55zG8UkYWQbWX9asW8lucjaBjpmtCewsrmyjnjkCysPmHTH1rG+zeU2fM/GvWUoyR5koSix9xOW+RVAHrSWlrLe3EcMaE89qsWelXuozBLaFnyfvY6V3Gk+Hjo1o0k6hp24yaitXjTjZbmlKi5vXYgkj+y2sUAbBAwalscIwALAtjmmzxlnaRgTj9av6daB8O4K44X3NeXKWl2ehFe8dfot3Ha2u6U4OO9b+m3BvbkOmdmeuK5HT9Mae4XfJthyDtB616BYRW9nCAihfrXKo3ZtN2QmuT/ZrFnC5IXivJ2kmvNRLNv5bt0r0rVX+1p5bPlfaucNrBatlQCQeveqc9QgrI0dKjWK3QsecdKZqN+sR+TBNZ0+pkL5aEdMZzVaO1kvXwG69c9qmMe42V7nXLmUGMZ544qfRUczb3IwTng02+0KdVAt13HqSTgD3JPSn6eYLOQLc3PnSD+CDoPqx/oDVzWmgos7rTUBGfStkDjpxWJp10GiBQBF9v8a0vtKkYDZzRFqxjJNssbgP4uT6VIuAMnOaZEoxuJ5ps8oVeKeyuTa7sNluAoPSqclznp+lVbmdnfAzTD8qnd1rFyubxgkNub2RFyHI+hrl9Q1a5eby43LHPfkD8DW5cbpGKr93k1BZaQGk3Fc896SbZpojJhtp7l900ETDGeF2H/wAdx+tS/wBiJNwvmRnH8XzD8x/hXXR6esUZYjmiG16nbitUmZuaOHvtCWxty2N3q2c/yrlLqEsxCgkk9cV6pc6dJcFmUspPGR6VFH4atyAHjUN3IGAfqBWkXYltNHmMFjI+DtPB/WkurXyz8rHdnp716nJoEMYKBAB1PvXPan4bJJeEY9qrn1J5VY4m2vru0bIJIHqatS+IJA48xST71qr4duFDPIvGOAKydQ08QEsycg004t6iakloXrLUY7t8OMnp64pLq2jZiyZz3x0rno5GgbOD1qeDUhI4Utj5uKbhbVCU09zZhtl8vaRk1XufDZny6ofrVu0lDuBnNdPbvH9m5AqOZxZXKmeXXWiyQMw2kKO+KrohhYYBrt9RCSSMAvJPSsS40ZpMlAfYit41b7mUqVtilY3jRzAk/ka9F0HUg8SqTk49a81exlt5funHXPat3RbloZlG489SairFNXRVOTWjPWYLkMB61ZDbq57TrkyIv06VuQnIrCLuaSVjSApwpBS962OYdmlFNFOoAcOlKKaMZpwpiHAdadiminVRIo7UuKQUuaEIDTaWkzQMcDmnZpgPalB4ppisPoJ4poNB6UCsYHiRyllJg44ryOd0sJZbqU5kJJUZr0zxjdfZdMlkdwoA9K8Q1S/e7ulSNt+7jhaiMOZm8ZKKJ4RPrmppEqfMTyT0HuTXolnc2+k6c1vaR442tMRyzYJ/yKy9BsYtP03zNhMjAO7jqfYe3p9anuZT9tt7dgojgBmkUevB/wA/WsZy53ZbI6Ix5Vd7mrZTNd3H7sNlXRcnqepJ/Sq+uTCa0upuWgEW1AD/AB5PP6inLdNbMzqApfIJH1H9Cazb2R5NGjizlQwJHb2/lUJWHa5xl9I3krEPuoeOmKrabardXm1n2HGFycZPp+NaN3bNIG2Y64AFNsdLlllDxp36E9/xrqUkomLi3I0JnuLRSjIrRjptrn7yd5J8yBhzwa6e+RfK3t/rMbc+tc9dWztKRK8cOf755H1ABP6VFKz1KqopvGblT5b98AHj9K0NNaIxgMxjmHJPTkdz60+KysURd11Ixz8wSHjPsSwJ/Kr4sLDskkhPzbhIoI/McVpKStYiMXuVpruJlaCYLJGw3Ha3c8bh6H/DpXL3cb20vmwPujH8SjBH1Hb+VdPNaaeFUNbzRDnkDv6nJP6Yqpf6WvkebbTbwecYKnPr3/nVU5xiwnFyRn6NdvPcNCVBB/iBxj8f0/pXVRpJ5YCNslJYBujK23H4EdRjrXFQLPa3SuYwGPAYH/INdro140ZjknWFnUDcSeRwQGx+P8qWIST5kOg76MzL/R5Va4nijEU0J81wOigHHB/4EOnHFVvOEscoKnbkIShwcjPGPXqM9wo4rr7yyjlgBilTO35QGyJF5+Xpw2OB68elcu9urSFY1ZZHUltw+XPp+PBz2qKdTmVmXOFndGRewqsrMMsW43AdD3yO34VFbzmF3VywVhkEdBzwfpWm6H5WjLEqoOFHIIOP6fpjNRmKN4QVxs9hgEH/AOv/ADxxW6krWZzuOt0TQEQ2qsFOSeh5xz1x74/T6V2emR20+myROkbNKoAwBwen8+/+RxCmW2nSM8gZBx2z/iK39P1J2lQNt3EnkrjnGPTke38qwqK60Nqb7nT6CJLMvazIFjDfK4bIrW1Tw/HrOnyWzDhhwRWPahZoxIsgJYZAP8J4HBrbgn1BYcW+xiM9Qa5eazubON0eMax4G1LSrtosOIScK5GFP/16NE8K77sC8RiueSOfzr1TVBql9Ay3Nunljk7Dk1xsj3OmXHmbGZcnIxgjB/T8a7Fi5zjy9TD6tCL5md5pWj2FlZrHbwquB1xiqGq2cedx2jJ+XjNR6V4ktJ7SNZpFRiOQe1Xp5LdlZhKGBBx82R07VxSvfU6YpdDnFsVkbc8WFzj/ABNX4NL82VSBhByAefwqWJ4bk+SOMdXJ4z+XNdBYW8cKJGGDKBy3rQ2x7FeG1MRBRcuBxnkCrSxzySZlk+XqAK1FhjZcoB9RUMsRiQmhRI5ipMVRNoBz61zGqzJGpKnB71o6nqCwKS7DHp3P0rlbhL3VJikEEmOpwuSR6+1VGNx3sJaJLeXO2Laqg/M7HAH412FrNp+nwbiwmkA5OCBmuSs7BICI5LyPPOY4P3rHPuML+tdClk8UO8QxxKMEPdtu6ei8DH1Bq7K5PQwNc1u/1aZ4rdZGgj+ZvLHyIPVj0H1OKm0a3VpUE1xDuHVEYufwKgr+tZuqPpguALzULi8KZ2RJ8qKD2XPQewFa2g38JYC3tIoVHAY8k/nx/Krmvd0Jg9TurGOPygAHYdht2/41bRAjZ6D3aub/ALZk4jyTzxjpVuC4ZiHPQnPWsG0iuVnVQspT7341UuSpbAc/TpVO2uH/AAokk8x8ZGfSm5aEqOpNtiGBglvc0pRW/wCWa8VBEjxku5yM8Cr0SCRQR61FrlvQrw2weUDy12+uK1orREUYQUkSquAKuKwxW9OKMKk2V5IlbC4pwt0AwCKkfHBPWoTMFzVuyM1djZEVV6cCq5IHNJNcgd+tRxSeawA6Vi5amyi0tReX+U9OxpEsS7bnHHpV6KNRyakLccVol3IctdDNuLJCmNoxXE+J7SCO3Z9oyP1r0GU5UisHUNIS7DbxuyelLZ3Li+54w8hlcosZUZ7d6jXTZElDKpHNeg3nhRopDIi4X0A6VHBpG2TLqBg9QOa19qlsJU77mFpWm3DOpwRXUxWLeSFBFWESCzh5KjH61CNUiGSMbc9axcnItKxHHo6q2See+auCyijUAgZrPn1tA+FOMGoRrgcks4CjpQk2Ml1LRI3hZ0A3H1HSuZazNpOOB16V0Ta/C5K7ucc9OlUZZEuTvXaeatN9SbI3dHmzGoJ5+ldLBINorjNNby2I3V1FpKSB9Kz2ZT1R0ooBpopa2OUcP0p46Uxe3NSChAGKUUdKSqEPzQKT+dLQIdS00UtAhTTTSmmE80MELnjFOFR5pc0XG0Sg0MeOOtNU0rNgVV9CbanC/ERQnh66c8tjj657V41oUBu9TVcZC8sVr1/4gw31/pzWllE0jSEKQB271wWk6PNo8D/aYDHMTzu/z71POowfdm0I3kjdR2LJtOI4hgKO7e1VIpRJqskQO4shj3HpwMZqkL8wRuVHLHg+g5pbEqZUmTkqCzD2xz+oH51ilodLZuai2I4UGMPGBwe+SD+PAqCVdymPGQijp/n6UjTKbRRIdzwHP58/4U1vltyzD5jknBqGNHO3czxyYRsZOQT1PpWpbTssO5iwUjliM/lVCXYZ1JQMc8DPX60XFwxQggemMj0rRq6sQtHcZf38jMVhBQEEE5ySPr+PtWI8TO+OMetXJiOcHkknNMghjjPmXDEEYKxJ99gfr90Y7n1HBBzWsfdRnL3mTW2n3Mw8mPLSZ4G3J59PWtmDR4IVAvL+IOc7QCGx6jjJB7c4rHluriSEx7zDDjGyI/eHH3j36Z5PHamG4YIB5jnjuetRK7KjZHVW8GnOnlpezHBPzFOvt97n8qq3NhA8ZFs6y/7oHPv7VgQXRkkA2GQngAJkk+wGK3bG6JY7FycDcQQR+YH071nKLRcWmchqlgYJSzBuD0yeKn0ecyMiSbHKHKBiP0rq7+yhvYjuHX3HNYP/AAj6JKMTKFJHUito1VKNmQ6bjK6NvMsECruAQDCLtz1OSKzZmYXDMH2h15JH9Mev9a3LJYDCsbSI+1cdRnFXP7PtpV6Dp6VzqXKzZq6OMMyQhUVWAzhlxjg9/wA/50i267nIjUJjIAHUng/XmukufDcZjcRjr3zz61hzefAn2WQsvl9JOua2jUUtjGUGtWZ06gxowBxn5WB3ADrgHr61XSdorvIJJBA5J+b61duE2qhUbcZ6cYGOnvzUQZY33MikBsjjv/kitk9CGtTq9JdpHRgQnGNpwPqeprsLKSSFiJH4wCCMc5/HmuN0fVrJ2ZXRN2Mg7c4GenX1/lXXRyxG2kNuYwAOOeOn0/WuGpo9Tqjqh0mpkTNHuAI5wPy65/8Ar1R1SaxFvvuoR1ySByB61jT3LecWmO0c85OG5wcY+n6Vf+1w3UawsySfKc5Ptjnj1/nU2tqWYE9ppd85a3nABP3SNu059e//ANerdtZzRbQIzIBwrIM49qq3tt5DF0hXZuxle3TJ/Out0GfyoUVkUqRkE9auc7JEqOpnQacVUSSrIGHSMD+dalutwxVF3hAOcmulVLdhuCrux1rnb7xBa2Oppp5UmeQ4VQM5z3rO0mPmR0lkVW3BovopJID5YC5HVgSfwAp+gWd5bmSW+8tVc5REOdq+5ro4xCwwqjnuK6KcLrU46lXleh5vHo8azGWW3klcH78zYH6f0IqtqV9a2dt5ckw8sHIhgUKOPfGT/nmu81fR47iJnDlTivKNat1juzEqPOwPpx+QpuLTszSE1NXJl8S3DqUtFMa9Bgkn8zWTqmsyiIpdFXX1Xhxz6gdfrmrEWn6i0f7qynZMcBIj/hXP6to2su532M0Q9ZML/PFaU4pvUJy00MvJnu/3blkY5DHqR7jtXY6ZYBIkfe2SOBXP6V4d1SWRUEMRAOeLmLj8N1dzBoOpIiL5UeAO0sfH60Vn0RNLuyPzzHtUjMh7VvWm6W1Xbgk+lY7aJqMl2iGALGDyRIh/kc10VvbXMOIkt5NoHUDNczRu2rDZLxbRPK4Mhq1p8JlIlc8mo30ozSiSSNsgdxSiaWGUxKjdOOKm3cV9NDSCgj2WkS4WEuM8A1WSSQIwIPPtVMyF5gpyAT1qmxJXN6C5BfNWvP8AnxmslCEcY6VdwcbwOgq02ZyiiYykuc1mz3oTcCec1JLPtOQaxbkl7o9waici6cSwsjXEnB+WteACOMf41jRSRwRHLcipo9QSVsBgRUKSRpKNzdV9xFSswjTLGqUEwK5HpT2JdQM81spHO46kMl182O+elOSZRy3XPekEAB5P41Itsh57+9K7HZEVzJG8ZBA+hrmdSlSONivAHeulubUbC2RxXB+IJVTA39+maHqyo7GHqOptIxAPAz171SE8jABc4A4xV2z0uXUCSfu9s9634fDoRFU4x34rTmitAs2cYfN+ZiTk9zVfzZJHJycV3t1oaMh2qAo6DHtVGDw5GSS64GO4pqohODORWKZm3KWINb+nwS/Z1HJb0rcOiQrHxHz9KfDAqAIV/GlKpccYWM6ESrLkAg/XpXS6c3yru6kVAlug52jNWLcbXGOlZvUo68A5pQKcBSgVtY5LiDqOKeBTQKeKBBijHPSlpyiqFcQClx6U7FKBTsK4zFGaceKb3pABHekIz706k4NAxhHejPvTiKaBUjHLzUu3IqNRUgPFWiWRSRJgnaM49K4jxRYO8LSovIzXeMMjFUrqzWeMqRxUzjcqErHi7Rxz7o2G2TPp3pLa1e2kK9mzn6V2Or+Ei8xmt8ow9O9YNzb3VmSlxGcE8HtWOqOuMkzNlfCcjLO+ffFW7qcpYOxHAXHSqpjV2JDcik1JZE01gO+F/XNHVFbJnOS32ycFjuwO/ao31BZSUVi3oAKzbolrhu49Pep4ovIiBIO89/7o/wAf89+OvkSRy8zbLfmmDcVUNMRjJ5CfT39+316LEAWDyElzzkjJJNRp5ar0LN6Y4p7MHJBQBsdqzZSLEdqrYGS7HstTLYF5lgVTuc8D/Pt1pbDO/CDJxzmtiEGJMkjz5wQPZM9uO5/9BI71jKbTNoxTRQ+xrC5t4DuBzvlA5Y+gz0HX69T2AsRpFY25eeUZX5ggGQvvVl18lnkyFJXCnviuO1nUDdXH2WNzsXliO57/AOfrVU06jsE2qauSa34xEbmK0G445JPArjp9Tvbpy8s8hJ75pty3mXcn90NtH0HA/Sq7HBwD0r2aNCFNaI8erXnN6vQsQ313btujmcH1BrqNJ8YahHwZTKQPuSc5Hsa5bC7FPXio4pDFcKw/hNFSlCotUEKsoPRnrek+MrTUDskPlSDAZSe+f/1Vc1W3guIBKByVPAA/KvI7xjBerJESCQDmuv0jXTJp0kM0jbgO/avOrYTktOGx6NHEczcZliaIvAGVdwGegrPmnK98Dvn1p/20SQkA4xnBycVm3MpckhiBRCLvqE5di7a3DCTO4nHALHpXWaZru1UjeZwhyGXdyPyNefxzNG5+6R71dguSjiROo9PairR5gpVrHoF3seNZPkRS2UIOCeef5/pVFmecKI3Kp1VS2AOenX3FZSag09kVxjKlcE54znj0psN+bKMGSFZsZwBxjjuc9P8APpXMqTSsdLqJnZaTb/aplFzEAyDDBv8AP+cV1NlHa3cLrZOpeElGUdQR2rhfD+sxxSxzzzqqjgpjjGfXv/8AWro/BMqXOsajeBWEc8pKLjqKydN31KlLQ2b1bqCwkaEkTYO0dfwFY+gWElzcfbNTtXW4U/KzcYHoK7t41Vmf5SepGK53WdRWEBbUFnY4YqM49abjymcZ8xrm+Sdjbwt8yjkZrXsz5MS785965jR4mtw87yD5+fmAzWnFeTTz7V4T6VUJW1ZnUhfRG1cSb4GKjJx0NcHfX88E7qiKpJ5BmI/QEV2U1yILYjK78cAsBXnWrXOqQ3EkosZzGT1xuX+taTbdiKKsQXurTQoXKWo9Cct/MmuPvfFN6zFUvoIz6xxAfyWrOp+I3mzFd2ETAdni2Z+u3BrLtdIsdQbzzDLbfMTwxdPYYPI+uT9KuEVFXkVJtu0Te0rVdQMO+TVJWHuWIrS/taVoHZruXjjgf/XrHubUWcKuCHg4G+M5XPp6j8cGptMjN75h27Yu3v8AhWUrPU1jpodBpZBs2mad2dssATS21yRfiEFmLH5mzWY0zQHYDgJgCtPT7KSG4a4k+6y5GeorFmljqGuHjh+RzwOgrAvb+WHUEZ1BQ4wR8pHPqP65rTaXfGQpyMVl3iecqjbwODQ2TFG5FM80eYpCeMkE8ioTNIc7mJIPcZFUrWZoVBbg+tSi8jN4A5GG60rjsatvdFlBYKSO2MZq691GITxj6GsgoFkLA/KabKz42nODVKTI5Ux9w4cHZIuSOAeD/hWNf3slmN7oVY8c+lJqE4W2f5sFegrlZ/Ecqo0YYMoPKOAwNSouRqtEXLzxCzxKqN14+tXNCN1dzIU3bcdT6Vz2nQ6frk6xxk2c4Y8csh+h6j9frXo+m2qadbxQ4HyJ1HQ/jVSgo6CU2zUso3VRv6Crb3MSDlqzpb4KAi4y3Skgs3lI3sffNSn2Ia6sJNUTccnAFU5vE9tEdqvk5wBV2bw4k3/LQ4PXnilj8MWUfzPGGI6E1SixOUTMbxA1wCio3Iz07Vy17ptxf6lySEzurvbiwiiUlUAqj5KoC5xkdQaLtMaaK+m2UVrGPl6cCr0kkeMAj6CsS71dIG2hsqBzVA6syoX3DPbilqOx0Tyqcr2NNAUnGOfSuRbX3jl3NyT0q5Fryl9zMMdelOzQWR0xiBXaO/Wo3suNwHU84qnaanHM/Dduma1YrjzDtzkelNCaaKTKQfx5qSHG4c9K0HtNy5qosRVyMd+9NoV7nUj9Kf3qJTTga2OUkpc00Gk3UxDx1qQGoQ1OLfSmmJokzSg1EGJpwNFxWHE03PNKKDQwQZpRTRxTgeaAY7FNK9qdmgmnYQmOaWk/ClxQAoNOAzSAdKcOlUJjGhVhyBWRqmkQ3ULBkB4PatzNQz8xn6VMopocZNM8A8QRS6DqbxliUc5BqlNqry2axkcnJP8An866L4hWpn1aPA4C/wBa5qOzHyZ24HGcVPu21OiLkVLfTyz+fKAT2Bqee22pkg565I/rWqyhFCg52+nqap3m4xcAD3A68VHO2zTkSRlJJtYgLg9OasrCCNwxjr71TYgMAD0xVkXBCqM4bPOea0aM0aenRug3ZG88DgZrUtkX7W85bcFG1eOMD/GsiCUqFLEZ6jHbvT31QQR5HAA5561zyjJvQ6ItJakfinVhZ6fJ5b/vn+VQO3v/ADrjtIB+1usjdVGM81d1EnUZCzngDge9YXmz2F0vmAkJwM9xXqYemlT5VucFeo3U5nsNlgEVxKhH3WIqE2u5uDgVoXKJfJ58bgS9xjrWcWmhJUqR+FdcG2vM45xs/IXaiNtbdiolG6XjJGaV2eQAEcCpLaF5ZljjG5icDHaqvZXZFrsv2tm9/OzY+WNcZ7Us8LW2yRTx39q7LStLjsLDa2C7Dk+/+f5VmajaLslfHGDwe1cH1i87dD0PYWhfqZFpOTEPmwPeniQSSEdwdp9KrWQVTtPY9qeF8hXbaeTxkZFW4q7ITdhZgi4OB19KZF87gAkUrHOB1J7VEgdZNgU5BwKpLQV9TpbRo41RiwVxgEEZ49P1pbtRPKWQDJ5PHX/PNZ8KlECyyADtk4zWraoHiDIyuo9MH8OK5JK2p30lzKxnTBhe28YOF2gn3Of/AK1ex+C4vsdipY4Lc49DXDpDpV1osglCi+jIaN+4PcV2+hOE0qD5uCmRxWFSpdIt0uVvzOsmn3rj5gMc1ntYojmQAFDzjFV/tW0D5h+FON4X+XB2+9YuSe5Ki1sP84OPLRQBV22ufJUIMH3xWYGUH5CPxp8rmGLeyce9KNwkkX7ySS7j2pMi/grfoa47UbXxPZzZsXtXUn+GNVP8gaj1C8jkJKTSRnODxkf41mQ3OqxMXguJJIgc5V9w/Lt+NbJ9SOUvnUNXhG3VNHjuD6yxZ/WnpLo13GEk0t7Z2OMxHj8vyp1l4luJ5lgkRWQD5iRW9Pb6eI4pHDQu/dRkfiDSk+hSRi/8I5atJ5lnfGMkY2SAYYHsc8H6U+80ZtPt91rb4HVlTP6Z7VevdFuJEaS3mjlPXKdR+FYFveahazmBZpGGcMr9vqDUa9Sl5DhAJ2jlIx2YHrmt/wA1fKCqAMDpVKy1eJ5zDdonP8WD0q5cx2+9WhnEeeiueG+hqWiri2zCMljypJyKmmiRlJXHPIqjDFMtwFlBHcehqWeVoVA56+lSBRuJmhYIeP7pqqS0l3HKFyOO1ad1HHcW4ZwQVHGD/n2qvAsSLkSnHHB70JFXNaLfLHleueKiu7x4F+ZOvBFSwZVFKMMelMuBHOhBIJFO1iepyOrXTGF5CcA5/GuKW4ka4YiLdnquK7XW4VEZAYEAc1zkF3p8U5XyWZz3J71vSVk9Cam61NXTrqKzgWVY13MOeOldFFryQwAOSydTk/yrkJZ403SfKpxkLn+lZlxqrzlYlzgH16VLpOTHzqK1PRY9VBmN3I37kD5B71ftvEEl7JtgRsE9e1cFZTXN4sUeMRJx9a7rTbbyLdWjcKCeAaylDl0KumdNBdMFG98GpDetuI/h9SayWkIXJbp6muf1TxZaQ5hE6vKp5VTx9M1Su9jNpHT3erQtuHUL1PauR1DxFkyqgPlr39TXK3us3N5eKVlIQgYAPHrUD3Mhcx7Szsc7s9M8/wCNaKm92LmS2JLu/lmwWJ29ST0z3ohnknjDZJ44GOajt9MmM3kEGRh82F6D6/5710Njo0/7uNVxxhz298f41UnFBG73MFLeacscN2xx0qTJijMak788V2LaAUOFYtnoPepR4ahEgfq3Xdms+crlOMF1PA2Q208A89q6XRdVIw0rMQTgZ/lV6Tw7buPmQsOmKa2iqSVQBMenahyTFax1VndLMnLUky/Pkdqw7XzLaQISeTXQIoeME9aE7olqzNYU8cUwGl3VojAdRikByadj1piACnY4puaepFACqDmloz+VL1pkijpSd6O9FMBwoIxQCKcelNCGin4po60/jFNCYgFO96TNGaaEOozUbSYqJpwO9JySBRbLGaZLyh+lV/tSjvTHul29f1pcyKUXc848cWx+2I5HAz2rjGkxLgAAD0rvfGQ+0Y2k8c5FcA0f7zv/APXrA646InLNgBeSe9Q34cRlsc4/KpoevPek1B9yBR19qSepb2MJFO0huSasRRA/MwGAeafCoDYxn8elVr24MMYVQBzwc9P8/wBK3vfRGOi1Ibu9KFlRvris4yT3DgZOOy0xczzgE5JOc1u2VkoJOPTP+FatqmiFebKtvZuo5Xr3pL3S1uoQu0A/rW7sVeMDPt2qBp4wRhcfWsY1ZXujSVNWszhrnTLuyfKqcdiKrBrlmx5RJ6YxXbT3EDE7h8vTiqjTxKD5cI257iu2OJdtUckqCvozm4NMvLtx+7Kr6kV0un2dppcYbG+Yd/emCaR+OQvtSNHn5B+YqKlWU9HsXTpxhqtzVhvGmck/lUV7uns35zjvU1nastu2RuJ5JA6UkqkJsyC3YdMCuRNJ6HVq1qc3HbmO4JA71ptpklzDlV4x3q1FZBnLFec8VtALGoQDk46VdSu09CadFW1Me30Daiuy5IA7d/Sqxtisrqtm3mA8YFdnEoRUXK7iemelaljpyOVdgCOp4rH6xLqa+yj0ODh8OXV587RYyOKtWfhu+05pSoLrIemP8+9emrFHGAFAHGeBRIqpGX25IGaTxErWGoRi7rc8e1CSewnDrGeeCpGB+Ndxoep+fpEaSP22gCjV7SG6t2Z4hntx04rhbee4s7p4YZDtDdK1VqsPNGcpOEtdmeqQyQhskrk9Catfa0LbVyT9K47SY7q52u8jYPY11VpbfMCfvewrmlFRNE76l62R3bJ6mn6jefZYsMOMdMcVZtiiNyay9fuoHiKNhuOlVFaEN6nG6owmkaS3dsE8qa0tE064ECy7mQscDGc+9UrGw86+XaTsLfNiu5Ags7MyYARB3qpysrDS6lHyLO3IaWMJMedyj9cU298yUxsR+6T5s9c1kX8huzvjO9nwc5+6BWrZ6hE0SRbt2OCP6ViaWLLSSNAQpZGIBzVGx1p55Gs9TtknC9XP3hjuD1rXVUZhGUXnqBUMujxCZpD8rN3FVF2JaTM660pZpfO02TzPWJ/vD6etQmOSSHy9mG7qf88V0EFtEiq7N82cZqzPaW14iM2FlHRweSff1p7ivY5S2u721vEjlBaDuGHStK4uI5YQY2Ifsrf0NaJsjuIKA+mOarXWlQSKCVwynnFIdzHnncQuMc+mOfpVS1mZk+dAWbpzWhd23kIEkIKD7h7isGWC7s7gjYxQ5KsPpTsO5tQ3rooHIPQE/wCH50TXLQozl855x6e36Vm/2jbuVVk+dT1NSXFzDKu8EOcc8UcoXMvUXjmjOZCWPOMVgTqbRjuwOOnfFbVzKgRisQBHOTXHajPI0rFmzjqTXTRjfQxqytqTXV1xkMcYxg07SrVrpwxX5ckkkdqyDIrsoLNz1rtNBsXNtu2MqKOSfWtqvuRMqb55GvbzRQxIFyFj9utXn1JUidv3gU4A4xg+tc/eqtkME7jgHjpWPd6hNIhh3ABuSTnJrkVPmZ0Snym3q+tyAbI71thGOATnmsK3sp7+6BjLFT0bb/nmpNK0sXsxaVi7rkhQe3HP5mvQdD0KWC6czIF+UEeo6EL+HH+RWkpKmrLczSc9WchJpE9pMwC87wjMw4GAOB6nocV0ek+HGkuVlaM+SACNx5c9yfTn+X410raWl2yGZFOxsoB+ZNbcMUUUIUlSf4VUVi6jkXZLYp22kWkcO1IQpz2Herv2KNFAUfIOcCrEKFgOcY6UNuYYL8dgP8aQrlf7Opy7AAD8MUojTHbHYetSfZ2IxnPsarzowbOSxHpRsAOFI2qfbNJHBHjGM1SknmUk7eKS3vdrEMelJSRXK7Fl7NTIGA71fiTEeKbA6yKDVgAbf6VaREmTZ54pwpg60o61ZiSLQTxxTAcmhjmgBw5OakBqNTgUZJoAmB96cDxUCk9ak38Yp3E0SjmlxUasaXzOlO6JsONNL4pSwx1qB3HrQ2NImD0GYD/9dVGmAHWq0t0FHWlzFcppicA0jXSgdawJdRCfxAVn3GsBMjdxS5xqmdHNfKB1rNn1ML0auYu9c29G/I1lTaw75weam7ZooJHYNq4GfmGR71WuNbVV+/8ArXFyag5ydxz0FVpLxm4Lc+nrRZjsje1PVFuU2k/WubfG7I/SopLkk/h69aj88kgdf60+QdyQH52I6dqr3szKhHOcdelW0CkZNZ2oOCT7DgURirjk7Iowz7ZWDtjI/KqWqPtGCf8A61OZtrE46fpVHUW3YbBJ966qcFzHLOWhLYEbyx+6OldVZFTHjLYPOa5CydmKqBwT1rq7JgkfTnpUYhGtB6E8rlmO3bt9KzriN3Y88Y7CrySMzfKDt9atJArnBB+hNc0Xym7jzHOrYYxuXJJ6mhLULNllyB0B7V0b24ZiFGFzgEVBNBFBkt19M1p7W5HsjMksyqb0AC+pPFWrLSzIA45OMZPQUoY3EoTaQvTI7V0VvBiBQOAB2PQ/1rOdRouNNblOKy8uDk5B4xjH+f8A69QNZEsXYcgEkD1rfYwwqpOAR0HrWdeyh4wiqSx7juayTZpZGOHRZCF+gpiapEZti9ew9/8AOavwaDczTM8rFIyOw61Zh0KytZVlO3IP8Jq+aC3JtLoZWmW19c6n5kpOzvnoK7oXC21vhV3HgDFZUMnmr5dtGEHTJH51f0+z27mkJORnk1nKfMylHlRqW5Mse9j1XofWobxt48tDjPXAqVJQUKLn257VUkkWDdyPqalIRn6mQlo6j75GMY6Vz9roas5lZeSckAfrWtLKbqVn/h7ZP8q07SJVRR2+lbKTirIlpPVjtMgESCPb8uO9a6RqOarhNkR29etQS36wIdzDPfms92MsahcNawmTjbjJJ7Vw2q6iLqTCs2ScYU96n1bxDM0bIBuXHX/PSsrQoTNcl5Yxt+8A3YV0xjyq7MW7uyOisEeytkd2ZQRxkda0IrmWe0aCRs+Z0z2FYV/qZaPYjfKO+eh/z/Klt7zzcAyNGgPU9KxlFvU6E0tCV3ks7mSEKvK8flx9ataTYSlllkGG3EjB7Vn2eLq7eSQ/dbDEk11NtJGYUMX3F6nOM0paaAtTStoHK73dQR/CKtTH7SoiLgOOOveooD5q53FFJ9eajkghS5EnmliPu4NTYjqTRW/lYWVicetOITAYMc7uxrOudTjjkCgFucHNZjao6XRMRYIc/KaPQdjsVu7cQBN2T0Jx0pJLVJVOOAK5y1k/cC4c4Bbv296vxa7C5WFJAze9Wn3J5exauraBoghjViDyfSqstpCU2Mgb1FQyXnky/MzfNyBjk1UfXQHINu2B0JpXGkypP4WtXJf5gT2zWFeQyaexWP5lU98muobVhd2zmIMwAweOa57UcMAAxLHHryKuLd9RWObmkup3ZZMKmc8CsPUrYAZJG3rXVT2G8+Z5mAeBg8msLVLeTy8KNwHdev8A9aumm1fQwqLTUxdHtftuqrGMbRzk16F9pW0g8mPPygfMf4m//VXH+H3+yTzYXnj5sc5rQur8u5OOMEKRnqf51dZc8iaLUY3H3LvOSDgj+JyeaZ/Z/wB0XBA3AkAHtjOTVe3kZv3ruqojZMfqex/OuksdEutce3uYgEjcZy3ALA9CO/p+NZv3TRe8VdItJLK5kbcAGf769sf/AKx+QrvbfWIggjRiWQYwOScZA5/WqLaU1tblZIEYmBQoPVmIyRn2Iz+VRQwxWDBEVSIpfLD7upOK5ZvmdzaKsrHTwzlVBCgbl6k9DSm8hRtqtnAxx3+g+tYM17cyjFtkszBWlbIVFI7Hvzx/+us6+vltriOOzbc23axHLOAeSB37c9M5x0qVcLI6OfXPL2woGLHqOc9OtTW+oSyAlyAB6EZFcalzcO7SMRDKxPyk4OOOhHX/AOv1pss2oxTCK2jXCDcQoyRnu3r9OKLMbSPQPtQZN5bcP7obrUkb+YMsmxQM8nrXG2c16xRncu/3trArx7ACteO8bzQvmc9wV6UXsLlNuW2SUd8fzrPubBlOUB4PUirVtcM4ySSPU1c8xXOOn0p6Mm7RVsSygbia1FOeagCRqPk5PvUyHC5P51pAzlqLuOaepHemDJ5FLn0qiB5YZpRyM0wL+dPHAoEOUk4FFIGAFL1zQA4dRTgKYFJNSYximhBnjFNY4prZBNRSybVNFwsOaUDqaq3FyE/iqpc3ezJJrBvdTIJ+Y4ziobNFE1rjUQM81j3Wrqp+8PzrDu9TLEgmsmW6Z8lievXNCTZdkjYutYLkhSay5b2VmJL8/WqTSEgE5/OoiSx5zjPrVJBcstOWzuyc8jFRF89SMiozz/WonJYg4Jx6VSRLZLJMDnH4cUwNkHB/lUQUt16d/epSF28/qeKoQx845PfrURBxnvUr9f61BJwMHoc800Jjjd+WMc5x1zVG6n3knqPaiRS+DzVGaJlYnnFVGKuRKbsDOTg5yPeqt0U8s8jNNkn2tyc4qjPIZMDPSumEDCUyzp8wSbJ5weBXX6ev2jZt+6cGuIsYy0o4712mkK0acknjgelZYpI2w7Nt7eKMDauWxweKrK8quwAyOlXoF+XJyTjv0pJSiR4OMk4+lefc7TO+0Sh8tyBjAHrVSZ3c5PTPI9aledTM2wZ561UmvIw23dvOeAnT8a1jEzci7ag7ueFHetFrx2CLFkZPboKyrUvM3znav90VqRxEuFQdeoNTJalp3WhOsZwCWLNjqetaFpbp/rZRnHYiqiBU4GDJ1ODwKljvlBIB3KPXv71m7spaF+XzLvagJRP4VXinpZRwJiRsk9TTILpQcjv0+nrQMSzne2SepJ/Os7Mq5MpXysRKAuOT71NHlI8SPn1qpcXghUqmAAeD6mqkl6oi3E5Y+/amosTZoz3YC4TjjrWZdO85ADHGen+NQS3hKHngAde9RLdqMc5Hoe9aRiyW0aEUaxwDjkVdiukC4zjPfNc3LqeUGCARVG41ZoskSfrVezbJ50js59UhiibLgMBxXEanrMkkzIjcHoBWZc6rJM2QcHGKv6Ro8t9OJXGRnJBFaxgoK7M3Nzdol7QdJk1PMkr4QHODV7UDHp7eVb9SvIH+f84ro4BDp1viEqX25IHWuQ1a6WWZkiXaT9764rPnc2aKPKjPuW82VSNuFGSQOp/rVhftMYjldcx5xz0ptlC8kY3R8Z69OfTNWS+/FvwZugz0B/z/ADqm7aAu5o6a1pNcEvujVjyg6nrW+1uqgeWAM9B0rHsNJjt1DPkv3Ynp79avtfrBnZiR8cD0rCTu9DRbGgbiWJFjQs7ehIyf/rVHF80255OowQGBqnbEyb2nQqW7nitSCK0SMtExLEYyetJCbGypbZQuuffdg0s0NtIgxBxng7ab9jFxLvaU8dMYHP41ejmEK7JQrKBx600K5DBZsIjvG5G4MZxx71lXulCG48+FvLPOFI71pNfM10scDLu3fxkjir0i+euSzc9RtxTQtjDtYb2NN02yUDoT1AP1q1bqEQhot+T82RV5zDbozMhY45Oaba26OFmVfvc45z/9Y0dQuZf9lW5kmdWZVkGSqdB6VWh0e5ffkqhCkAyDOa6mGERSbi2B3BNLIkUkvysyk9cgEGrRPMefXOk300TldiBAcnIHFYnkkRNGzqwOSSDmvUp7W1cbWTkj5j6/WuR1Lw9A6lo3Mag/KFPH5VpCVtyGrnDCD7O0m0jr/kVUdwZRJISBj5UA6j/JrWv7M23yltwL4PHTJNYAjlu9VK4bzHkCqv1NdUddTnlpodJoHhuTV3diCoQclCOPz616dpogtrVIY0CqB8xx0bHP+NYvh/SX0+xRSzDK9CcD3OPeujjto2w46j7/AD+HUVw1ZuTOqMVFCy2ct2FYuQysQig9BkZNDWFvAwjaHcN284HG7nkcdeT+dTxSBLhXB2B1YsT656foDUuVjDeYDkNwWAyR/wDXrND1GG3EoMYiPlqoBPRT7k+noOvf0NURotokpuYY1VyDtkEfI7fjjsKujVIHuGt4pMRx4LuScZz61JDe2+Qr3aspBIAI/r2pqwaopWelJDIZFV2kP8cw3MB+PTqfzqR4YIgzOpJP8TcAn+tTyajI5IixsHcDj/P40q3TMAZBFjOSS/P6UaCuzLksP3jSLE29+p4UEe5Of0qa3tCgK7xIWGSxPf8Ar+NWH1GAZBAAPTZ3/rT4r6IthRgjq239M0tCrsaLR1BOD9AOBS+VKjZ/h9K0IpEkXI596le3LrwarlJ5u5StQzHFXWIVeabDC0XBFMum2qTnmtIqyIbuy0WCj6VGXyRjpSMdxwKesJUZ/OmZjlPX1pwyRzQi4PPSlP5UwExzUygKvNQrw3JqUHf0oQmPDCmHJ5zxSkUmfSmIRjVG9l8tTk1ebAUtWBq0xwwHWploXHUxNRvcZwea5y8uiWPPTj61bv5TzzzmsK4cmTB6VMVc1vYSSXeOTnHUVXJJOR09P89KCeT1PHrSqpY9elak7iv3PGfp1pox6cmnsf4enFNzg8etACE84/I/5/zzUbKc5PQcdKshRtznn34qEgk9T7+9ADfu85/Gmb2LZB4+ntT5twjIHrRGnygstMCE5BwP5VC4JbP64q2yhTyMnHNQOpIP1zTRLIdvBwcH1qlPj/PeruOOB3qtLCS2QM1cSGZM0G/npzVdYBuwa05I9v5VSl4OfftW8ZMwaResrZAQ2RiugtZVRcD8ga5eK6KLxn/69W7e7fJYthR3JrGcGzaE0jsYpcxjB5qvO6AlXbn0HNY8OpsflizwPvGmtegE7RuJ6kmsPZM6PaKwl27ZbJCKecCs1XZW/dZHYHPNW1jku5jwxzwPetOCxgtOZAHl/hTOcfX/AD/jWnNyozs5Ml06Bo4PNnbYp5ye/wBKvPdiNSPuJ2UHk/U1lT3m12JYMw6c5C1WmugVZmJwvYn9Kz5HJ6mnOktDVkvwE2g4Zuw7D/69FvOCpdyNqjnnr/n/AD0rmxdNJIMklj/OtKNzIwT/AJZp1I/iP+f8ap07EqdzoVvRDB55/wBY33altbhlVpGbJI5JPQH/AOt/nmuY+0PcXW9uY0OSBxmpru9eKBYefMY5Y5/z/ke9R7MrnNaS/MxLbiFB4BP+f8moJLzng8DgfpWVFcbVJPUc9fb/ABqJ7tFjG88jpVqmS5mjNfgceox1qjNqmEIV+T71kT3xbJXpWdJLI7ZXOPc1vCj3MZVWbc2o5GAxAPv3rNu7uSRjhunaoYYZZTjkH61px6Qzqdwq/dhuT700RaWPPuFD54r1DTZ7fTrHOz5yMdK8/sbHyJyDu4GK6xR5UA2Nvx0AOf8APNcmIfM9DpoRstTatdt1I0xYY68HiucuIme5kkcbdx4J9Kllumis2jQfMx5J71XVtsQLPnA575PpWKTRtcjvX+zWyRp992+VV6+341ZsNPMIEk5bzCOgqGxeWeZJGbCA9GOQa1JXmkjChMqc4IOeO9OTewLe4yW7mkYRxjAXjOMY/wAKLeOQSgTM+OuQP8adb2TXDrgFkzgjv0/Xv+VdbY6J5MAxF5kLcsp7HvxUW7A5JbmRFNAi+XHF+LHOKes8sbBAGYEcYA5+nr9a6D/hFV3+dayFN38B6f41DJpuoafn935qkZyQWGfbnijlZPOmZcN9cRyESLhPYdvrVwxpL+8OBgZGSRmqV/qVxGyBImZsZyilh6daw7/Vr/fgRSRsDgsRgCjlb2Hc6FVtXkaRZgrc5C5Oe/BNXI9TtxF8lxuIHQnFcLGbwSyfaITC/DfvAQpXrn+X61os9sJvNe3IVv8AWFecfTHGDT5bC0Zu32uwiLIA3DqpGM1mf8JVsgeSJSAOjY4FZ15c2LlS7ohVucDgj09RVe2+yLfTJIuyNs/LyM/h9P51SjpdgzUbxZO8Ss8ZCMDyPrzT7LX2kmEplGzdt2jt+X+etRz2NpcyrMLnYhIA2DqBx+HHH+eY9M8O27xyF5dpOSmD93t/jS90eqJm8Qy733H5V+U4H+NZtzrxu5k6pGgwTnrnvUkuns+o/Y4oFC5IDu2WxjqSAB0qrqdmLSORHRSirlT0HPT9aqCVyZXLE1tHqGmkvsZyNyuvH51z2h2Zttf83GWQ53HoKqJqZt5I3AdUQkMOeR3710tjHFJcQsEZsgEtnGWPGM9h3/H3NbtOMWjDSTO5tE324cDJI4wDVtD5SurxnawycDHPrmi3Ve7IOMev4U26McZLSjf6bMcD/P5Vxs3uVtRmAjijSX94HUFDj5gcfl/+uqkp1B1zEWyrcliDu5IyB7DafxqDUZYZ4WeMLMImRXJyrLk9semfpUssiutxHYzbdpAkmf5jjGc5H1I/D2NKxWxiXt3awXsTzJJKQMCJiQOp+Y54JPp7e5p0epxyudlvFBGxyCZQd2OnHf6ZwOnarV6rCLMQW5cDcZ5VBVB+OBkgdOnPbg1yOo2t7d3JaQyKGPChOc/QZP4/4VrGKloTKVjoJfEkUTBpLhyoPJQDax9B/kms7UPEJeQqzTlD0WM/zzgH9f61zGpWmpRFEKycjIQQFcgehC4qxYaJfyksLbAcbsf6w4+hUn863VGCV2zJ1JN2SLreIrjmVJpVyNpSRv8AE4P4fpWlZeKGt3RQ+SRzuySKrReCtTMhbbtLeqKAM+/b8q39P8D+XEvm7/ODbi3BVv8APrWc1TsOLmdDomrecAQrDP8AebcT+VdjbNujBY8964mx0mWzf5Tg5/g6Y+vaur08NtAdiSO//wCuso7lVNUX5DgZrndVujGCWOPQCuhuOI+K4vXGUhsnJ9M9a1lsRTR0iMQ+c9+lWfMwODxUKqGPTnPNTiPC+1IljvMGB6nNICe/ftQAN3TvUqjOeM0yRyRZAyadwgx3pGyFzUQJYmmBMPmx7daHdVX3pcbQDUUmSfrQIgllLAjoKxdSyQfWtuRcKTisHUnC5PtUS2NInG6oMyHA4x6VkSoxBPvWrqUimQjPHf6VlTPu4AHHXFOJbIHUdcdfamtJgYz0FPO3I71XGDJ0yQccVYiQZwSSAafGBySB9aRGUYJGAT+dBbLHIwKQCu27gfypuRjGB/hSlwQAB0POaRQAe3HqaBibNxLMO1HyqAPbFTBhggHIxVbBaQZOPai4DtoYjp16CmBd/G0AetS7iHwOfrTJHIG4DtTuGhWeMZ56f5zUXl/KePwqyFcsB61KsIQdOO5NNSsTymPcwZqjJbbwOOPpW7cpvXA698VH5G2MAKCx7jtWkZ2M5QuYDw+Uhd8+y+tQiR5F3OdiDtjrW7LaDG58Fu4rLuYTnGOe1axmmZSi0RfbQDtVdoq1aFp2OPujqx6Co4NLLL50x2Rjke/tTLiaRgIoRshHYd6bs9ECbWrNpL+K3XyrYgueC+Ov+FVpr9lJVG3MRy3rWfHuhjHTew/IUxpACAT1qORXLdR2JzOxOSfxp9ySEjhB5IDtxjr0H0xg/iarwFZrhUOdrEZI7D1qeS7R5ZJMKpdiQB2z2p2sJMns7U8y/wAR4Ue5/wA/yq47xQQ4Xp0UgdT3P+fas6bUPLhO0cgYHPc9T+VVTdSNJGvcjnPqaXI5asrnUdEbtmEGGYgKMuenHpVG5uw87MxHJyB7elRXV48dmiJkGbk+u0cAVmku4yTnPaiMOrCU+iLxvT5bgHt/WqU0zykY6Yp0cLNvHPI9KuJZ7lXPXGKu8YkayKaW7OASeoq1BYnONvGeD71rW9qufp2xU0qBRj1Pb0rKVZvY1VMbZWCqFfAA+layoFyOgxVSA4QM2AQeMf1pzy5LAde1c8m2zeKSQ7YGLMQtStMGcBSC5A7D9KpSzFMBT1NOiJLhzgcdfXilbQLk8rMMdD9TTXk3ExpHvAxkKRkevHPrT03zfIvzAdV6n8BWloXh97udZbe+aJyedobBx1GSBz7H9aFbqDZq6Jp1pdRMpglEv3cOhTA9sYH48V2Om+GbdU/1GFOMhznJHcg96s6ToBgKtcJGzD7pCgY+mAK6RE2oAooUbu7MqlW2xmx6DaJnCDaegx0rRt7OOCPaoGBUgzx0p4IHetVFI5pTkxFhUDgDHpilMKMMECnZWg+oNaWRndmbdaFZ3J3NAhbrnFRvo1u4+eJdw7/yrWDEdevenHBqXCLLVWSMGXQ7eaLypIw0fIK44I9CK5abwLBb3bzQAgZ4AYjg8Efh1HuPy9FK8VG6rj3qXTRcazPG/EPg2e3LmOFGtXJETKoBQ54BHToAM4965DVdL1HTLyMFA8CoCVI4Bxyue3p9RX0RcwxywvDIoKkVy2teFob9f3Wcl9456H/Co5nF9zeMlJanh8Or3dkzKHMkOAQxHUHpnPQ/1FbNl4rKqqytwTypPQ5xWhrvhX7FeSQm38yEglTGp4O7jP5j2571xclkkIJRlJC45J5OOTz/AE4rVKFRbBzTgegpq0F248t44WYjc/tjp/n0qG/tbjGGuPPgAHMa555x/jXCWupSQyHDgBOTnrXQ2+utMiOJmYoMBATx74/z1rN0XB3RoqqkY2paebiTzkkKIp5Jbn8f8K7Xw20M1xDFHJGdkS8NnA+XGemO+cnHpXM3uoPNCIyCgPQ44I/Aev8AKui8FRv5rTStHlvlVWQ7go4yP5c+lXNtw1MopKWh2524wrLwOoX+v+NZctwGjcSTM7KuQoCnjr6/rV+eX5nCyiNwMhAmd3t1rl9XeRoDc58pVfDPtK8/3SMDP446Y5rjWrOnoVb3WUSRIbby44WGGwCNv1z/AJHOKjS+gju3QNGkJJQtKRsY9eM9T06c1jXWnXsMVwtuDOyqHLI24MvBJHH+1VeyRxYTOUZ1Q7irqCASPf610qmrGTm7ne20h1J1h3PIiDI8rdEq/X17+nep7z7PYGNLaySRQc73Znwf9yvPbLXJbeVBbyqGXpvk4B9ORgfkBXoGjNdyxmS6uCysCSGKuQfqMnFRKDjuCknsQLDJqbyCG5BhY/OzwHII9Bn+Z4otbKaK62xJO8adWdwu5sdgMmtOJbaO4eWG7CIOGiD/AHfzOKuPJFHGHIj2HvjGfyrO5Vx9sswQBR5bEchify5q1G00bfvyp54+cE/yFVreOObMkcBjf3OT+vSris+0B+SP9nNJAyVFSU5HGO2KuRN5XHPXr3pIOVGAR9DVtY92Mgke5q0iGyrfXBFsQo5I71w2pzFpCqjdjqcV3V+ibCG6egFcnqSGQFE4qpDgdaqkPjHGKmLHaBnr14poyTj+VSbRx/OmZCLnIBH41JjPIPTtmo24YjnFPDhRxnAPNAhxTjGaIvvAkCm72focCkLkDg0AWBksQcCmP8rHAzgVHuwM55pwYnGMAd6dxWK9w2AcCuY1uYgEAcV1Ewbn+71rn76282Q7lzn1qJGkDgroguT3qg6ndtHJzz7V2t1pSOy7U5GOPWkj0WJVwEzn7zUKVi9zivs8ruSAce9PFjICeOBxXdJpMaqQE478damj0wbCNgB78U+Zhoeem3ePqOcmoWV85P4D0rub7Sk2EBAD6isC40l1lwiMx7+lCkFjFXKoxPU9qawZyueFz19a0GsJshigCjpxUDxNu4VsdOKq4WIgABx06fWkUqScKTnrg09422gDv0FN27Ex6jt3oAYGD/w49aV0GM5GOmf8/hT1TavQYpPvMMjpQAoG0gAdMjJ70SHgnIFHzFyBgAnrRtG4HqcdSKQxnlKqB34x0yKjYF3JOcZqeU5J+b8hUWCwAxz2p6iIZYgEOOR60fYY1TdKBnsD396tMFjZVABPcGoZS7kkD5f92hMVkZ053tg847D+VV47YFyXHHetFbb5ix98ZFOWINuI+9t5FaKViOW5kvCGdj+OapzW4z059q3ngQjHYdKrG3UfNxz1yKqMyZQMaC1mR3df7jj8CpH9aqrGWmCHIGcE10nkkKO/B4IqIWq8sBk89fpWiq9yHSMSTmRRjkfMfxqxBAZLjjk+n6VLLbuZGIHYY49hUtrDJGd46g7hweMDNU5aEqOpFdx+bdMqnhflA+lPhtFO38+lVheeUSGUk+uKaNTOT+npS5ZNaD5o31NhIUXjt3NTRbMEnqBxWImoMxOTxUy3pBwTx2rN05FqojaMiqMAg+pHemeZ5hyCTn1NZhut3JIx3p6XYY5ycfrUcjL50a7ShIwoPPtVZpxt3DrzyT0qo87MM57cA+tRNOV+UHrSUAcy6JC7DPQcA1sWFjc3TKsUW/PHBA/n1rAV9qhuPatPTbS7vZMQhWJPIL8/hgj8uaHEqMjrrHwhf+cjrGX56kJhfrnJz+FelaXpa28aNKiGXGCw/wDr1l+GNNltLNPMkkPA+V8cGumVsDvms1YmcnsiTnGBxTgD61Wkm2HOce1RfbNxwKHNJkcjZf698UqoM/eNZrXTJyTxTPt5B649qXtEHspGx5fHBpMMKzYtRycVcW4Dd6uM4sh05LcnD5NO3dqreYAcg1Kp3c/yq0yHGxJvOOaaTz6UueMUyTpnp+NUJDGKsCp/PFU2gkTjcCM8dqleTdyMcenNMZxjJf8ApWTaZtFNGPq1glxAUKjJbJOOfr9a8u1jwtDaNLLHAoOT5Rd2Kg9h+HvxxXrUylidrEH1rkfEdteeQ8kfnyFeydcd+O9Z3aeh0Rs1ZnjN7bqt4WvHkZh1ZMcnPOM/55qo8kdtcYgug47EqRjH061t6pEUuJpECsGJ3Qknj3wRzWFcpA5DRr5RPTBH9cV6NN8y1OSorPQtm5uJXWJxkNjaw+bP0Irt/Dt1brHFDFEZGzy+OPTrnHXpx68d685ie4PlxyNuAbClXDcH3zx0r1zwpp9vHDHdPEuVUBEVs7B78YHY+uSeaxxCUYl0ZNs6OOygazHnlRIQDsxkk/Wuf1q6iQG3jCMk3yspB4P8q6CSSSdG2opB6HJ/wrEvNOlnmCqIyhBDMRmUHrkDo36VwRtc6+hzpv5FAijTa4ZShjBx2HQeuOntUsWnTNPHeaek8gU7Jy5VfM+gOP0p1xZ2+kXcMao9y8uGEj/6vJz+vB65rcsJnjbz7i6lOMKFRcr+P+e3Wt27LQz3GWXhmZD57W9nHv8AmIhUsy+xLVvRWEVvGGg8xmbrtI59hnFVodT1GVyI9G8yFjlZAwAI9T3/AAxWnGLsFf8AR4wCfm2kAj9KzlruNOxUfSJmuFuFSTdjqMnt9aE0nE2+RWMgOflkKj8q2A02AB8vqGamz280iAoqh8diamw7lYRxxkEttPqB1q1A642oSxPY9qqvC6fMGYP3AAAP50hdgVZ5hG30GPzpbMDahTcPlAH41ciXaeuMVRsDzy2W+taBVlyRjdjpmtooykZequ3PYd+OtcjdzMrkYP1rp7tpJJGLKAM+tZc9uJAeAaUty4aHTIzgEjFLuYnHeoosY5qQDBySKZmSDABGMe5qNhkgDGD1o3gvz+dNLB/w6CgCRSMHHSljyfYeppgGRjBwacAeP6UAPyC2BzgUhIyQO1NPyDBH40wct1xQIdIM4A/KoJIMruA461YwT0xmgqWIBPHYUDMxrUvyFGaljtRwdoFXgqjHQD0NKcA8ZH4UWQ7lT7Jx0pfsoXnHNXAAw2g8ZpY485zx60ybmTLagudy5rPls1EhwvrkYroZlGOmTmqTRDIz3qGi4swnskI+ZB9Me1VZtPiHSMAetdOYUK5bkD1NVXjU/wAAyOcmk0VzHHXWloudo5AJbj8axRZtsaRo/lz8vFd/JArhjgcnDGq09rG0ZTbwePwpXZVzhng2EkjPtUJXbnjntXWS6TvjCdCP/r4rMutLeIcITkVSkFjBPTpkevrSFgsXK4I6Y71oQ2MnllmjOCeh4qu1odx8wHK9cCquhWZTRXfBZTz0Aq0kIRSzHDAYHNSOvkqCQQT1z2FRiORwrvnee340XGkQD/j4OR+Z7Uj/ADllXkY5qRoXJ+6TngAe5xUiWrxwjCEk9SRz7UXQiquMbM98n2pqDEpA+6fSpYIZGlcFcDB6g1G6S71GOO/0piCVSqoMdcCofJDPg9auFCF3Nwx6CmLbv5xcAhfU0IbRX8pQvTB6CmMgXp1+lXDEqkkg5FRtGXI5GP1p3FYqeQu3cAMjqetJDGNwXAOQRn6jFXlh/dngYyeKrSqy/Mh6GmpXE0ZDaaC5Ld/aqU2mKASg711DwjO7B2tyMVXltlb7uQPWtY1WjOVJM5iSwdVXbwetQPDIhINdTJFwFx06VBJY+YhfofQitFX7mbpdjmWL8ZzmpEnkQAAYFbq2abCcDJ71BNYgggA5+lX7WL6E+zkjM+3NwMdPShLrMm5s1ZOmbQPzzUEenPLLtUEg9OKq8GTaZYjmWZwN5x2wM16h4E0yFmSQRBmHd5OV/wCA1geFPDcbzq0qsCO7D+lexabZQ2luqxqBx1FcdaotkdEItK7NOAiNAuOAKfJcADgVVaULSCZDxmuVzL5O5lX+rNBcYkXCk8GmHUQ6gxkVeu7aG6U7gDWRLpBUHynYemO1Z3ZskrD7jVNiksfxqmmpxu+fOX86VbWaMbZF3j1qN9Ls7wbZUCt6jg0Kz3HsaMV8DghulXf7WSNcFxn0rnU8MNbSBra5kKd1LZzWmdFimh2yfex61py22IuuptWd+JlBDcVqRzYXOa86TUv7HvxZSSE5+6f6V2VvcrJbA+1XFtETijVM25flPNIJ93HBx1qgJQBioWudkhAPHeq5iOQ022FSwXDduKqNcDftkyueh9ahjvlLbSaLnymGWVh3yKL3Go23HuNuSrAj0NU7gCdDhdreuKSC8RlK5JXP0NMllXG9Of7wpDSZ5p4u0eeS6kkMaFtuQfLAYrj2HOPzFea3SCN5IpDuIJwfU/zz/hXvmpol5bSKhAdeQrdVbsQeorxjxZbqshJj2SEklh3PcEf1+ldOGlrymdeOlzDsY4/Od7gbokxle7dwB9cfgM/SvU/Dd/LeoFZAoJLbB1AryWOcNtHmGPCnzCByfp9eK9J8ASM6Yg4wckldzn8a2xcbxuzLDStKx3ckqRJ5TzbWIyBuwf51marqjCMIjhQgO4kZz+XfHNW7wSRSea4OMfeOP1rFvbiEB53ffI44QfcXHf615sVqdzMY3sU02EhcmLpIx+6e3X/PFaFpqlzvwq7go5VhuyT2OPyrNt7nTpbuWK6HnyN/qxng+grZin8223Q2caBeqgkE4PU1tLToZrUupqHiNtq2kdvED/AecD+YregFx5IYHzJ8ZJU4BP0rI/tVI7UskBkfaBxn+tV4IvEF5D5oZrRX+5x0H07VluUdTHPLAjPdusKAZLE8D8TSpc2csYnW9+Xtlv6Vx11o+s3amG81SRoR2C9aLfwxa3OyAXLrgDLKuD+dHu9wszuvtsTEfOrK3A5FI8asQwjBU/pXMxeDXgOY7+WYDny5cEGtnTzJAohngaJgccHg0AbVpEiEGPA56CtSbDWxyeMVk28SRTBkzz1B71tKFkhxWsTGb1OVcEykK2R+OasQ2m/HB/GrclnsmOVP1NWoowoqeUty0G7diZPOBUZlHZST70OWxx0qIA55FIQ8OCTmpIyNwJ6VCvA56U9WIOAn50ICVpDuAzgZoLrwATn0qPHfqabuwzFuKYrEobkZx+NOULnkgE1EDzzTgQCDnmgCfcqnAGTUZkI7nOePelUjOTjmh9pbA6UCGZJ459uaft3Z+bjvzTM7hjPFKpA+goGShgmfXHrSGTPzHgA5xUajLd+albnjvnigQhIbk9PyqOSM88ds4p6p070hOAfbkk0DKrqwULjr3pjx4UYXg1Z/1i84x6ClMWQeeaQzNki5wuevNRGIDHXBPPFXTGxB42j3qMqWXkevNJoq5QePgnjJ9aqTFQm5hxitORFCbsdCCaqy2K3JVGAKZyQep+lS0UmUPJSQLwB6ZqM6ZC27CDLYLHua1zbjnYgyBxTRESWAHQnGPrSsO5z13oS3FxCi/LGpG73A5NXI9HgwPlG4Z5781qPCynoMZOaXY21iOMZH1NMLmWNHg85SUB6k57k/5FWksLffv8tc1eEGeSTnPSpI7U7myCBgYHuaLCuZT6TatIz+Uu5htZscmntpNozE+QuevT2rZ8kIAT0zUhgUNwQOKdhcxx0/h+Oa7Zz8qAjAH0FZuoaSbJBIo3KTjAJzXftbIRyDjrVK7sjLlB90gj+lDuhqR5ubWQSsSrfdDYHGMmkeM7uD05rvGsIjKGKZbqcg9un5Vnalo6yxsbeMCUkYbpj60XHocklu25yEGMDJ+pqrLFkhQOSRlvx6V3dppMUaMsgOWG0kH8ajfQoTuUA7DgDHbHWmpAzjDGPMGcYHp/OhoWKjC9a7mx0KC3VkZd5DcFh+VSvo1s7FzCN5PHtT5g0PPBBlyAowO5FOa0cqu1cAjsK72PRLeONx5e7PXPOal/suLmMx8AenQUc4rHnUWnuc7QNuO/rSLp0ksmyNA2BngV6Nb6RFGDhBhuuee9XYdNVHyEHI60c7E0jyv+yJhIVaPoec1q6VozvMAY269zwK9EbS4j96NcnvipbXTIoG+WLGeuKbkxaDNLsY7eIZXpV+ScrwvSpBEAPSonCqO1YspFWR3Y5JOPamLuznd9KnKg5Geaj2jOc1Fi7h5rKRml+04GCelGFIzxVWZQuT1qWNWLDShh0GKzb1DgsnGPSp1YH61OsSyLg81SVwbsYdnrTwvsmYcetdFb3kc4DAg5FczrlnHAhkUYPrisjQ9eWO8ETyfLnGTW0YvoRKzNDxPayPq9vMi5UGuusR/oPBycdqotcW16wVWVj7VPc3CabpskrHCqvemyUTW11vJVjnHvUlxtUh1bt0rj9M1lrnzpOvORzWu2oNNCQmFcDJDHtU7aMtrW6JJbxop8gAIxHPYE1s2dyJowMYPTaT1+lcrPewtHHJg5HDxnr7j9auW90bcFGbK8bW9eODTjoxSV0WNSf7BciVR+6fr7VPFKkwyO65wP4h7Vn6pfpc2LeZyU7jrWbEmp2doZjZ3AhjG8SNCwTHrnGMdKpRu9Cb6akmqztY3USS5a3lB8uUdVPdT9B+lcJ4yiWW0clV3k5Lp0YgdfxGPxPtXWaxq0V3pRK/MoIfGeQR1H6g59q4TXZfNUKr7kkA2t2I/wDrVvSVmmRU+GxwsaZnVBghiMV7V4BeCC0KwpJwBuZhx9PSvHbSB5LtcNsweW3Y/WvZfDNjcW9n9nuBJEQqssZyMKwyD+IIOe+a6cY/dObCr3mbGsX4cEowYL16VxEry3olH7wowPXjb711kukw284eTLNJnEbZbP4CsfVILmDzcQsGYZJC8Af4VwQOyRx8rwWzCSMZmTjLevrWhpWrG8fbcGTIP8JI3f5/xqpb26STBpfuc/nV+GxWe6jtoE3yOwCiNcsfpj0rodtjJXTOu027jt5yCBKAMg+h9K2I9QuVjY7Vds8Ij8fSuWs7eBCIikhGMZ9TW5FZrbTfvIpo5SNwRgc46gjvj9K5ZI3RoLd39y/z6fFs935q0kYDDdbbeMnbWa99Hbj5pZUyccqecVdttSfdsa2lwqCQttP3Om76e9RZsZpRRKcNGW47Z61ZVUYbXTJ+tVBdR+UkrkpFJnYxGA2Dzg/Wp4d1yf8AR2MvU4BzwKpIll+JQVC46dK0IWwgHf3rLtnJYA8EVqBTtB9uhFawMZDJAC3H5UgU5FLjcckYHane2eaoRRVcjk80/YMdah3bfmzQbjcCFHNZljh8pzxTS+M4GaZ8zE5p4zjpQA4cDJ6+9IUy3PPvTV+9yScGnhsmgBpwBxx6U5ScEsaQ9TSPwBigBwb5jjrThknJ71CMqTmnOScbeR60AT9eB09aRjgdQBSAqvX0qM/McUCHByRtHT2pwkCD5qiX5frTZMk0DJmlOcKRjFRs7tkdvamKT6Z96R92Mr0pAWYc7dp/Onu4RPlOW/lVEuVXljz2pdzHkfjRcLCB2aTL5x6f1p0qhoiAe3FIiNklxxnrT+GYAHoeKBlJElErQtkj1xUyxlXzkY6VbYL945pMAjkEMRwRRYLlQZR+cgdqQAbzgVZSJXjZS2WHr2NRbVKkgYYY496LANK4+Yr1PNPMaqBhOCM5qVDlQD1NSrFnPAx6UWC5VEQYbl456U9UYkkg1baD51OeO4qQKN+Noz3p2FcptGduAeOKVY2kbnHX0qcjc/tnipGTbIuO55osK5WMBxgevNRrES/TofWr+wqCxOaDGAuAATj9aLBcy5LZSWHTI7fWofsuFORjg5P1rU8tQ2Bz060PEuCDznPFKw+YyPsuSNmMDr/n86eLfC8itMQIsZxwSewoZAAARnI9OKOUfMUjCN2UUbgQG47YpBAMuwGS2O1aSAAuCOB0qNOG9QBjFOwrlI24XDbdx6YPQUogyQSvv0rQCK20H0zz2pAqyNweBzRYLlIWwBGO/NTRxBRuKg+lWF2CUdOhqOaVQD6e9FrBqMYqACR0qMzxg9RWTqGqJDkA9K52TWpnlYAYX19aycr7GigdVeagIULZGB3rFl8RWwfDzJux0zWVd3E91EFB6iuYn0CeWYuZDzzgGqjFS3YP3Vodz/b0TnasgJ6/e/WpI9REhGGzmuNttIMAyHYkejVqRQzRAES4HoTUyppbMuMjqBLxnPFZWr6zFYqQz4bHSqE19cxpiOVOe5PSuM1xLyVXkMhfmrp0eZ6kTqcq0NweMGRsYGK17DxfFIQrnB7ZryA6g0ZKsAGzycc01dVkSQbSc9RXd9VVtDk+sPqe06zex3Vg209R0zXnkNnLJfEqx5bgikstZlltxGzdua1tCZWvFLgHnr3rHkdNM1UlOx13h/Trq2USO25e2TVHx5rIh0vyAw3MQCAa6G7uktNOeZDjauQK8U1TUb3VtWaSfOwPj2qKUOeV2XOXKjq/Dkrojc5ytbV9fbURgfnA4YfqP89aydKRbayMnGQuee9ULi6aS42jorHGDxzScbyLTsjasr17hQCTyrHBPQgZH8sZratbsS2vPzYyuAf0/wADXLWsgjmU4AHP8qVr94eFbaHH6/8A1qHAOY6XSbvddXU0YEphtJZ4YnXILquRkdyOWxjtWjq015pl7eS2eniSGG0SddUaVhJIWCHeXYlXUsSvl4xz25rgZdQntpkvLGZ4J423oyHG1v8ADqMe+KvHxxO1uHj02zWWMhlIklaKNv76RFygbPTjHtXVSso2OWqm5XOkikurbxNq+n6dPqdrFHB9q+xaccv5hEe5QvfG8/THtViW/wDEOr6n5aDxppEAt8CR4dsSeXH1ZiOrFeT6tXBaZr9pbXGqXGoNczvcWjxjbKVeR2kRuXwcdGOcHp703SvF2iafqkd1Lp+pxIqSpvOomYKWjZRlCg3ckd/eummc1RD/AARcX+pyag9zZ/aBNeJLd6tLLAGj+VxszNG/3mYH5QSduADmvZ/IbSiPNlu2tIUQx3N6LdEYY4j2rCGHQrtAyPQV4L4F8TWXhue7upre4lupAqQ+SkYPv+8YFo+33Rk5PIwDXqp8VWs0drHCwvbZFdZk8gwI+5gQFBJYFcZ3Ekkk56mirNKOpNODctC5BfW73iv9phinlLxJF5zRuTIpUbWCNj73B9QOKyLvWLS2e/tpdaUzSQTWrR3GsSSxoWUoTtFuNxGc9fxrK1O7T7X9ptXnhkibfFggtHjkHIHX3pn/AAl7waTdvc+ItWvrq4tJYBYvERGjuCu4uW5AByOOuOlctCStZnRXg07nE3MZ+2Swx30UsUZ2rLCTsf3GQD+YFdXDC3hfSB85Gt6hHgsT81pbt/J3H5L7msPwtHb2t617c2kly8C7rW3KZSSX+EyHPCj7xHfGK2Vs7+a5kubstc3c7l5ZX5JY/wAvpRKUYq63LjFydnsTWmpJHLFEkRmIYAxjOX9uPWvRZFurLRlmezls5UsrllZLlmNsNuVQknIY4LdsYwO9cWmlyQxocbHX5tyEgqfXPr0rSmuNLaS0mmS5upra1ji+zBSqzOC/DuT90Z54Oc8d6zoTirl1oydjS1sMmnzQTvdSpHfx7BcTNKwHk5OCxPfNXrOe1kjtWhijSMRXJgSRZGZYA7qwY7sHhScds8Vk3dxDqs32y6a6N9IkSyKIwI0YD5znJyMdAAOtaNhfWunTQiCO4volBiaWSIIscTElgiE5Ykk8nsTVqa53qrGLi+RdyHVLvTZILeKSJSTAjW7orhRHlwQQxPOQDnvk1sR2slvd3MdrpkAt/s7+WdkpLEw5xkNjBJI4/DmsKdLR7URLczXUoASN5YfLSJAWJHXJyW/+v2qS1n8u4knvZpXMkMkRZc94yoGB07VmqkVPXy7FuDcNPM2wbiPT1kubaOCYzsn7sOAUCAg/MT3Jq+ZXe4nQ3BBVGYA3MynITI4U4A9cVzls8ix7fMkK8sI2bOGIAJ/QVtvd+fu8lL0xkbeIYCCCMH7yk4PPWtKNSLd1psRVpySSeu5cRZlTy5XLOsxBHmSOF+Qf3yT/APrqT68VWhuC6rGy3GUYnMqRrxtAAGwAVODmlVactB0k1HUy8FqkWMKKB0NL61zHQNJwOtKr5XNNfoacv9KAEbkU6LAamn71LTAczbabuz3pJelR/wABpAP+8cVMPlGc1FHRL92mA1pAz9RTt5A56VB/F+dPX7tIZYyAtN6ZJNR/wUH7opiJV2bfehjxyOOwqE9vrUzfeWkAghJ5qMo6nP6VZPUU/wDhNNoLlUOCMHoaAijlD17Usn9aj7rUjJklCoQ3TpTsoCVUfjVV/wDWD6VKp+c0BYfuVZNpzk9DVW6jdZGYKQrHqKtnv9al/hP0p2uF7FG2SUEOwOfWrobamQMgUo+7+FKPufhQtBN3JBIGG4tSAkgMetNP+rH1pkn3xRcRMvVcjmmZbzOScelCdacfv0wHF/lGe/amLuyeQcGnN2pq96AAKQ2aRmySfQdaV+v4U0/dNAIZG8jOefl7CnuSuMjjH60q9TSzf6tfrQArOpTpz0qOPKq2B1/SmfxD61In3noGMBJaTOeeODTFZl47YxT/AOI/Woz94/U1Ixu7afcVR1G6EcZwatS/erndWY7DyfzqZbFQV2ZU85lmOXBXOKlSK3OAQAaz4v8AWfjVtPuL9KzNWWTHGiZB+lYuoTvHnZjjirpZsH5j37/SsrUOjfWritRPYwbvVLiEkr09j1rKbxNdIdmG496t6h95vpXPXH3q7aUIy3Rx1ZuL0NX/AISWcfNgfjUi+IVuYysmAT2z3rn5fufj/UVTPU/WuhUo2MHVkWtWiiMvmRMMH3rPjBBBGSc1K33T/n1qNeo/Gt47WMZPU1oJmRVBPy9q7Dwz+8nXJxnvXDnoK7jwp99K5MQvdOuhudVrZmktDbwEbguSM1wkNqXuCWT5ga7yQn7e3J+7/SuXYf8AEwk+v+NclN2R1yRHe362kKxq4G0/NnnisIakjzkq2ACeCelVNZZvt8nzH73r7ispf9Z/wNq7IU043OWpN3sdkl8PNC7uCmQe2elU01ASl4WYBwcqM9SayyT5UfPdaq3P/H0/1/xojBA5s3WvCyBs8dHH9azGu9pdVPDDJx3qIM29uT1Hf2qJ+rfWrjFESkxXuWJB5z0JFV5WZiVwefapT0NWoFU/wj8qtaGe5BpltMbxCEJAOeQcV61oWnTyWqAJswP7prL8LwQ74/3Sdf7or0K3AEQwO1cWJqN6HVQVjFfQiYnLHOe1ZEXhJTOZZXXHpjtXXSffNU3P7yuPncdjp5VLcpR21pZNshgy3TJFW1DtGNiKBnPSlTlznmrCcA/Q/wBaE+bVjM2Zrx2AZFwP5/1qzHCJArMg3evpUr9Got+tK4ydbWMANkjA44pst2kMZycY/WrY7/SuT8SM3lH5j+dHURYiEepXHnO5dVPAycVqxWqoDsdl4rA8Pn9ytb5Jz1NOW9gRYiDRsNzbq6OzkDRdsVzyfd/CtjTvuVVPcipsaJYYPpRuOBgUz1qQ/cra5if/2Q==;" vertex="1" parent="1">
          <mxGeometry x="90" y="170" width="147" height="98" as="geometry" />
        </mxCell>
        <mxCell id="OKugaLKOANu714c_Y-tR-10" style="edgeStyle=orthogonalEdgeStyle;rounded=0;orthogonalLoop=1;jettySize=auto;html=1;entryX=0;entryY=0.5;entryDx=0;entryDy=0;fontSize=14;startArrow=none;startFill=0;endArrow=classic;endFill=1;" edge="1" parent="1" source="OKugaLKOANu714c_Y-tR-3" target="OKugaLKOANu714c_Y-tR-4">
          <mxGeometry relative="1" as="geometry" />
        </mxCell>
        <mxCell id="OKugaLKOANu714c_Y-tR-3" value="&lt;font style=&quot;font-size: 14px&quot;&gt;Differentiable Model&lt;br&gt;F(x,W)&lt;/font&gt;" style="rounded=1;whiteSpace=wrap;html=1;" vertex="1" parent="1">
          <mxGeometry x="340" y="184.5" width="250" height="69" as="geometry" />
        </mxCell>
        <mxCell id="OKugaLKOANu714c_Y-tR-6" value="" style="edgeStyle=orthogonalEdgeStyle;rounded=0;orthogonalLoop=1;jettySize=auto;html=1;fontSize=14;" edge="1" parent="1" source="OKugaLKOANu714c_Y-tR-4" target="OKugaLKOANu714c_Y-tR-5">
          <mxGeometry relative="1" as="geometry" />
        </mxCell>
        <mxCell id="OKugaLKOANu714c_Y-tR-4" value="Pred" style="rounded=0;whiteSpace=wrap;html=1;fontSize=14;strokeColor=none;" vertex="1" parent="1">
          <mxGeometry x="650" y="189" width="50" height="60" as="geometry" />
        </mxCell>
        <mxCell id="OKugaLKOANu714c_Y-tR-8" value="" style="edgeStyle=orthogonalEdgeStyle;rounded=0;orthogonalLoop=1;jettySize=auto;html=1;fontSize=14;startArrow=classic;startFill=1;endArrow=none;endFill=0;" edge="1" parent="1" source="OKugaLKOANu714c_Y-tR-5" target="OKugaLKOANu714c_Y-tR-7">
          <mxGeometry relative="1" as="geometry" />
        </mxCell>
        <mxCell id="OKugaLKOANu714c_Y-tR-12" value="&lt;span style=&quot;font-family: &amp;#34;arial&amp;#34; , sans-serif&quot;&gt;&lt;font color=&quot;#ff0000&quot;&gt;&lt;b&gt;&lt;font style=&quot;font-size: 18px&quot;&gt;∇&amp;nbsp;&lt;/font&gt;&lt;span style=&quot;font-size: 15px&quot;&gt;W&lt;/span&gt;&lt;/b&gt;&lt;/font&gt;&lt;/span&gt;" style="edgeStyle=orthogonalEdgeStyle;rounded=0;orthogonalLoop=1;jettySize=auto;html=1;entryX=0.5;entryY=1;entryDx=0;entryDy=0;fontSize=14;startArrow=none;startFill=0;endArrow=classic;endFill=1;spacingTop=-5;strokeWidth=3;" edge="1" parent="1" source="OKugaLKOANu714c_Y-tR-5" target="OKugaLKOANu714c_Y-tR-3">
          <mxGeometry x="0.042" y="16" relative="1" as="geometry">
            <Array as="points">
              <mxPoint x="765" y="274" />
              <mxPoint x="465" y="274" />
            </Array>
            <mxPoint as="offset" />
          </mxGeometry>
        </mxCell>
        <mxCell id="OKugaLKOANu714c_Y-tR-5" value="Loss" style="rounded=0;whiteSpace=wrap;html=1;fontSize=14;strokeColor=none;" vertex="1" parent="1">
          <mxGeometry x="740" y="198.5" width="50" height="41" as="geometry" />
        </mxCell>
        <mxCell id="OKugaLKOANu714c_Y-tR-7" value="[0,1,0]" style="rounded=0;whiteSpace=wrap;html=1;fontSize=14;strokeColor=none;" vertex="1" parent="1">
          <mxGeometry x="900" y="189" width="50" height="60" as="geometry" />
        </mxCell>
        <mxCell id="OKugaLKOANu714c_Y-tR-16" style="edgeStyle=orthogonalEdgeStyle;rounded=0;orthogonalLoop=1;jettySize=auto;html=1;entryX=0;entryY=0.5;entryDx=0;entryDy=0;fontSize=18;fontColor=#FF0000;startArrow=none;startFill=0;endArrow=classic;endFill=1;" edge="1" parent="1" source="OKugaLKOANu714c_Y-tR-14" target="OKugaLKOANu714c_Y-tR-15">
          <mxGeometry relative="1" as="geometry" />
        </mxCell>
        <mxCell id="OKugaLKOANu714c_Y-tR-14" value="" style="shape=image;html=1;verticalAlign=top;verticalLabelPosition=bottom;labelBackgroundColor=#ffffff;imageAspect=0;aspect=fixed;image=data:image/png,iVBORw0KGgoAAAANSUhEUgAAAoAAAAHgCAIAAAC6s0uzAABeOUlEQVR4XuzV91vIf/zvcaSM7J2VFbLJCtkjkZQ9s3eyPsome4+QkZVNJFv23jskEWXvvfM9v50fXs/H830dP5zjus71eFz3nx7/wC3Z/3Acx3Ec9/98ycyD4ziO47j/+yPAHMdxHPcPRoA5juM47h+MAHMcx3HcPxgB5jiO47h/MALMcRzHcf9gBJjjOI7j/sEIMMdxHMf9gxFgjuM4jvsHI8Acx3Ec9w9GgDmO4zjuH4wAcxzHcdw/GAHmOI7juH8wAsxxHMdx/2AEmOM4juP+wQgwx3Ecx/2DEWCO4ziO+wcjwBzHcRz3D0aAOY7jOO4fjABzHMdx3D8YAeY4juO4fzACzHEcx3H/YASY4ziO4/7BCDDHcRzH/YMRYI7jOI77ByPAHMdxHPcPRoA5juM47h+MAHMcx3HcPxgB5jiO47h/MALMcRzHcf9gBJjjOI7j/sEIMMdxHMf9gxFgjuM4jvsHI8Acx3Ec9w/2dwBfCbgM27nyl5bXkL2wMyO2wVYmu6cV3ywa1iNsFOxJhLPWtqQ7sBb5x2rNCWsPcx7WDVZmfF+tK2N8YeEpusF6r/HS6jP9HGxlyHrYxD47tZp19IadqjoSduzqWa3nc7fD5u7LqtW62nBY+PCRsKSD27XWBnaG5d+RH9Y2216tzEmOsDUe02ALWt7VKjEuErYvkzusSeUHWvm+uMK6tuqrdTV7J9j4ledhy4Z/0xqzOz3Mp8lx2KBVMVqNb62HXdndE5a3lKfWlCyjYVevFIX1OnNZ6+FYf9i5qA1a1Z83hb26PRkWVGqJ1rHhWWCDN7jDDvVvppXdqQOsUd4wWM+vtbSc052Ava31H6xHtQCtI7t7we7OXQpbMKOI1sSuobCiZd5o5fUuBMvU6xfsY9m3Wp4X7WGmmpYjwASYAJvuEmDpLgGW7hJgSS8BNtW0HAEmwATYdJcAS3cJsHSXAEt6CbCppuUIMAEmwKa7BFi6S4CluwRY0kuATTUtR4AJMAE23SXA0l0CLN0lwJJeAmyqaTkCTIAJsOkuAZbuEmDpLgGW9BJgU03LEWACTIBNdwmwdJcAS3cJsKSXAJtqWo4AE2ACbLpLgKW7BFi6S4AlvQTYVNNyfwfwHzdf2OFuMVrRXeJhM1/0gu3e91LrZpoUsK8fi8K+DU2n5ZfsGex41o1aUy/vheWLLws70qee1opjR2Dpb7vCOg1z07L/tgW27+AAWNHbzlp9PDfAnL2OwxJKpNPKlvMDLKbqYq0enYNhrarsgBWeelzrvN0F2Khau2B5PnpqFZ0WCSvYqweseNs+WjWDFsF2BFaBpbibXuvjheYw5y5DtBYElIT9mTADdinnAK0Tb3LCPvq0gqXtOV3rrOsp2Gy7zLAcDX9odeqZDbYpZSysQS8XrfolNsBKdPHRKhuQFfbDcRpsysvfaj/vwQb2fwVLlmm+VsV332ANffLCYrbM14q+vwJWMpsNzO56e61zD1vDjjx/BVtee7nWty6JMI/s7bV+LlsH2/nHDlb73DWtvf6zYaaaliPABJgAm+4SYOkuAZbuEmBJLwE21bQcASbABNh0lwBLdwmwdJcAS3oJsKmm5QgwASbAprsEWLpLgKW7BFjSS4BNNS1HgAkwATbdJcDSXQIs3SXAkl4CbKppOQJMgAmw6S4Blu4SYOkuAZb0EmBTTcsRYAJMgE13CbB0lwBLdwmwpJcAm2pajgATYAJsukuApbsEWLpLgCW9BNhU03IEmAATYNNdAizdJcDSXQIs6SXAppqW+zuAU51JBrNJeU7ry81nMPtpEbD6u5toxQdthWW4/QdW49AsrXcPssBaT+qrdbjMHdi5y5VhH6f30Vq1Lxssw7LMsF1zF2jdWXIS1iu/A2zw58NarXP+gY33fw7LdKGgVt/0o2GHFpTSGrjOFpY4eRbszfzOWuNsZsL2RPyCLbh4Smvu6xUw39knYEUX9dOqvOkjLHPBbzCH9ze11h2KgBW9skKr+szLsGe1ssA+puyr9eXHMlj7Xndgsxv/0mob5gYLWnEZtuLaaK1LL6rCtoQ3gNmOfK91/PAi2PVFd7W+hZWEFbzVDpY2YpfWh9OeOIdDsMYOlbRmDtgA87h8H5Z4wVXrT+kHsLsPvsP2Rh7QWuraDPbbdybsv3cdtfKtOQR7bXtYa3ORWrA+kd1gn2dP0iq2Oj3MVNNyBJgAE2DTXQIs3f3fSXoJsKSXAGtJegnw/+kkvQRY0kuAJb0EWNJLgCW9BNh0lwALdwmwmXSXAEt3CbB0lwBLegmwpJcAS3oJsKSXAJtJegmwpJcAS3oJsJaklwBLegmwpJcAS3oJMAEmwATYTLpLgKW7BFi6S4CluwTYTNJLgCW9BFjSS4AlvQRY0kuAJb0EWNJLgAkwASbAZtJdAizdJcDSXQIs3f3/BODfLomw800aaqXvdgBWauhAWOCgA1ovZ3aAPVu2AVbsW2etVZ/+wIZWqaO1stg9WO0ChWDZx2/R8v2aFvZr1TlY9/oftVo/SQ9Lvy0Ulq7HMK1ZHsNhN7+Nh62e1V1rtutY2L7P6bW6n1wJm/o9D2xvk5dafe3jYC5D+sMyfVqt5fjDGzbQNxhWNFOC1sJX52FD7X7B7i2pp2U3zxd2tehiLf8uPrBO20bCfM/m17rlGAF73DYHrFqqdVord3+DbXdJA2tVd7VWAcdgWNSRz7DB+0ZrpYqfC5uzLpNWpQ49YAHzXGEtbLNpLcoVDWv5MzVs/u0mWgvHToI5fQyFfV79ROtMzTBYbFt/WKdKYVot7maFfXf1g7WsN04rXeswWODWLlptR1SCNfw8HxbcfqZW+2QuMFNNyxFgAkyATXcJsHSXAEt3CbCklwCbalqOABNgAmy6S4CluwRYukuAJb0E2FTTcgSYABNg010CLN0lwNJdAizpJcCmmpYjwASYAJvuEmDpLgGW7hJgSS8BNtW0HAEmwATYdJcAS3cJsHSXAEt6CbCppuUIMAEmwKa7BFi6S4CluwRY0kuATTUtR4AJMAE23SXA0l0CLN0lwJJeAmyqabm/Azhfr12w3mW8tSoEdoWFd+sGO3F2t9YHz6Kwyp9GwNp5jNPyWfEelv7sZq3kP8bDYi+thrm1LKS1/05BmG/tRNivJ5m19k6OhKWy6Q+723ezVvLZt2GlY3bBvrS4odVybHOYh/tVrUz7S8OCD16APWs5VGvD6/qwyW3LwzLVGqwVficNbMqdnbDmH4tr7d2TE3ZodRHYsyp2Wm+nuMD6TW2mdS7rCFjagxthM2+e0Uo5LA6W1s8BtmbRLy2PrzNggaMLwnI07a41bOpz2Kp002AeUWW1smwfDtv7KEqr59NpsBof/sAmTe6k9TvtHVjHmbtgg8qd1tq0tgAs//PKsIoNPbSavE6EfbpyDua+7rjW8PkLYB1+HYC97FBBq+n4HbDdDT9o3e/dB9a3b01YqlWFtDwLrIOZalqOABNgAmy6S4CluwRYukuAJb0E2FTTcgSYABNg010CLN0lwNJdAizpJcCmmpYjwASYAJvuEmDpLgGW7hJgSS8BNtW0HAEmwATYdJcAS3cJsHSXAEt6CbCppuUIMAEmwKa7BFi6S4CluwRY0kuATTUtR4AJMAE23SXA0l0CLN0lwJJeAmyqaTkCTIAJsOkuAZbuEmDpLgGW9BJgU03LEWACTIBNdwmwdJcAS3cJsKSXAJtqWu7vAB5UIxrWNfN2rWWfCsPmDW2E89uk1brtXdia53tg/gXPaH336QH7mK+rVpphp2ETas2FnbL5ppXpSF5Y07c9YRGDkmndKX4Vdq6cCyzhyzyttMuTw+y2J8JSNtyq1TlpN2zZ/P5ad59MhhWL2wj7MPuQlu+IyrDNa31hRUbu0FpZeC2sZnBd2KS4clrxrbxg9bLPhMXN/KI1vetIWKGVQ7WW2+GeZVsOa2wzSWvn0/cwnxebYC4BrbReTvsDK/bGDVbc95BWJed7sAMHOsBcHjhppQj2gf2It9EaHLkW1u9Ma1j1hz5aFx1TwZyuHYfFn6yvVTTIE5axzUxY6k+/tTblLAhbU7kVrOnGWVpun/xgoza1g51/XUFr8WQ7mG3wI60/DtNh7m2aw97mvqgV63wXZqppOQJMgAmw6S4Blu4SYOkuAZb0EmBTTcsRYAJMgE13CbB0lwBLdwmwpJcAm2pajgATYAJsukuApbsEWLpLgCW9BNhU03IEmAATYNNdAizdJcDSXQIs6SXAppqWI8AEmACb7hJg6S4Blu4SYEkvATbVtBwBJsAE2HSXAEt3CbB0lwBLegmwqablCDABJsCmuwRYukuApbsEWNJLgE01Lfd3AD/73hg2JsMdreShA2Gx131hf/wuauVt7AxLm2kWLF/VXVrR9V7C+u8fo/VtoyvMKe9nWLXK+bVy12wES5HlLKxn1DitTN5PYW3uf4b1Hlpc6/HR1bCm/znB8rw8pDWr5SLYV58BWvNzhcDiHrSABe1aqfVzTB3Yw7X1YRsv/NLKVNID5rXIAfY16aVWtg89YfVdN8MO5Dmqdb9NFpj38A1a+Wq3hAXP6QorF1te6/WH4rDVcdVg6TY91dr5tgWsydSxMI+rXlrvh9rDbg9rCvvesKhWeecRsDtdU2o1idgHW7hoOMxl+Q2tMp/ywFZ2soVVnBOltX5XH1izUpthU5pM06p2pgfsp50HrGh8mFbC8B64Bldgtu23aLVOqgs7MeuNViOHl7CQXg1gzeM7a0VMKAAz1bQcASbABNh0lwBLdwmwdJcAS3oJsKmm5QgwASbAprsEWLpLgKW7BFjSS4BNNS1HgAkwATbdJcDSXQIs3SXAkl4CbKppOQJMgAmw6S4Blu4SYOkuAZb0EmBTTcsRYAJMgE13CbB0lwBLdwmwpJcAm2pajgATYAJsukuApbsEWLpLgCW9BNhU03IEmAATYNNdAizdJcDSXQIs6SXAppqWI8AEmACb7hJg6S4Blu4SYEkvATbVtNzfARw2twss1rWl1uySv2AdcgXAWixPr9X9WVpYvx7LYPeX5dfyPJENtqDhMq1mU0bAKjVfB3vW3FOr062DsFRZJ8A+NY/Tsl+3BzYsnxPsQdcQrcJTHWE/AtLCRh69qdXrZSTs/q5JWoszNoTlWv0EdtRhktbJJmlh9ZcUhSUF19AavG4BbMX5JrA0q+9q+ZX8DTvkVgqWr7SL1vKyqWBlP73RKl7sMezLhpSwKw4ftfa0S4SlGFAbNj32hVbMG3dY5Vy9YYXXz9HKOPIe7PrwerC7HVy1ho7sDrvY5YFWcP38sPUxi2BJg+9qhUTmg70IOAsb28hDa+tNV9jP5QmwnpsitVp0vQA7Vzsn7EKJ/VoRT2rBeo4ZCiu374FWoRTrYPaNo7T6Z/wJsxnyCzZ881Gt8fX9YaaaliPABJgAm+4SYOkuAZbuEmBJLwE21bQcASbABNh0lwBLdwmwdJcAS3oJsKmm5QgwASbAprsEWLpLgKW7BFjSS4BNNS1HgAkwATbdJcDSXQIs3SXAkl4CbKppOQJMgAmw6S4Blu4SYOkuAZb0EmBTTcsRYAJMgE13CbB0lwBLdwmwpJcAm2pajgATYAJsukuApbsEWLpLgCW9BNhU03J/B/CDBnVgHXPv1SqdbhYsyn0/bHC5rVq3nR/CLux/DcseuV6rY7scsP3TwrQy3vWA1XRxhzXY6qZll2Y0bGL4DJhTmIdWl1L5YTnvXIVtjain5RyQF/bcbRrMMzRM6+zoobAh3V5rDV9yCFZlbgVYku9eLdtPX2HhixNhWd7l1uqSrhrscokEWPCdXVqebUNgTh2Hw5qmK6mVlPoX7HzhAK0t9aJgue7Nhi2+9ErrUrJ5sLa2g2BznvlpFZhcG1Z/QxXY6WpXtQLcgmB1H3aDvYrsqeWXMxuscqWmWqMfPYP1HtcOlrL2ba1SZXPAXpxxgYUHu2v133YBlj1dLdi0QgO1JiZlhOUoHQtb8ryglkvB07AOdoGwhDGNtAJt3WDeQxK0SkYthVWc6QdrNPuH1qeA2jBTTcsRYAJMgE13CbB0lwBLdwmwpJcAm2pajgATYAJsukuApbsEWLpLgCW9BNhU03IEmAATYNNdAizdJcDSXQIs6SXAppqWI8AEmACb7hJg6S4Blu4SYEkvATbVtBwBJsAE2HSXAEt3CbB0lwBLegmwqablCDABJsCmuwRYukuApbsEWNJLgE01LUeACTABNt0lwNJdAizdJcCSXgJsqmm5vwPYrt4TWOkHybWWTa4MW1y5CGzPuc1aue4fh81z7gC7W/OjVpMWk2C9b4VqPdmfCzb7XXlY8iVZtXpXOw1LtXYL7JhXf62th9LBKqzvCYvI81PLaXACLH+pcNjXN021Xpw+BUseVUJrX4Iz7EzWXLA0Lke1Us0vDcud0hVW6mFardFldsH23v4DCxwdp9X85jOYs70fLF1cFq3E5vNg2SMraKUP2Qb7uS8NrGqdx1rlE67COudeDstwcb9WmsXFYFOWzIFNb1dEa0itKNjRludgaw7M0ir70B72PMcsLa+i6WCldoyDzYzvqDXiTg7YgmTLYQ4ZXmq5ZusGixs/G9bKfrjWrlHTYH4vfsGOX8qitSLsAGzY84qwXQumaBWq7wmb8bilVku/GrARk+1hSRPeaG1s0gdmqmk5AkyACbDpLgGW7hJg6S4BlvQSYFNNyxFgAkyATXcJsHSXAEt3CbCklwCbalqOABNgAmy6S4CluwRYukuAJb0E2FTTcgSYABNg010CLN0lwNJdAizpJcCmmpYjwASYAJvuEmDpLgGW7hJgSS8BNtW0HAEmwATYdJcAS3cJsHSXAEt6CbCppuUIMAEmwKa7BFi6S4CluwRY0kuATTUtR4AJMAE23SXA0l0CLN0lwJJeAmyqabm/A3hA4Yewi8lnaNXd9AwW6dkXNrfIN610F3rAAh/4wy77PNH6VdEZtnKDn1bWmE2wNuMfw0KzXdVat3spbnpxWKUXR7WqVvoKu9HtJ6xsZEutgeFzYMlGOsAKbA/QGhodDKv0sZjWk4tjYFH1t8DON1uu9fPKYdhihzMw58BjWkXetYLNGOEFG1tptFbRDR1g+/rYwHafHaM15u1r2NRLvlqFy6+HpfvkAHve4KHWPLsYWLH/1sOmFLmpldAjHrZvTkrYtXENtFpNbQ8LvVQYNn1CHq0y1b1hnzuv1YqJ7wizHZoJ5r94ulaAX1HY9PhFsJKzu2vtaFcflsd+BuxMl6JaVwutgVV0uQWrvaOZ1siNx2HpIz7BhrUtrnVtVCRsx73GWvc3VoQtfzse1n/iDa0PW3fATDUtR4AJMAE23SXA0l0CLN0lwJJeAmyqaTkCTIAJsOkuAZbuEmDpLgGW9BJgU03LEWACTIBNdwmwdJcAS3cJsKSXAJtqWo4AE2ACbLpLgKW7BFi6S4AlvQTYVNNyBJgAE2DTXQIs3SXA0l0CLOklwKaaliPABJgAm+4SYOkuAZbuEmBJLwE21bQcASbABNh0lwBLdwmwdJcAS3oJsKmm5f4O4KCSl2CVc8zTKrOzA+ywR2XYzhsbtZZebgibv6M6LCJusNY6l4awVb2fak0rOgq2qV8+WJRjiFaR2wmwNvaBsGQJP7R+9o2DjUpMgFXcMF9r4xFH2KTJVWHD/eto9YwLh3W5/l7rRUQYzD9zEKzylVdao506wvyK9oeVm7VCq11lD9irX3dh8flGa7Xv1QqWItMi2Kmj/loZn+SBpYsYpFX9xTiYW3c/WLObW7XyO7jDUg5YA0vmM0urXlQizL9GN1iHnG21Ujf5DSs01ge2NNMtLY++k2DXp/XTWrxjD6xwg2uwwZ6ztQ5VcoOdCc4Ac8v1XCs4/0NYpbszYSWzuGllTDgCa5d0AnZ/3EctmxkbYPmzfIDVXt1Ga3a1u7DldrFaeTbng3W33wcLeL9Nq3TGVjBTTcsRYAJMgE13CbB0lwBLdwmwpJcAm2pajgATYAJsukuApbsEWLpLgCW9BNhU03IEmAATYNNdAizdJcDSXQIs6SXAppqWI8AEmACb7hJg6S4Blu4SYEkvATbVtBwBJsAE2HSXAEt3CbB0lwBLegmwqablCDABJsCmuwRYukuApbsEWNJLgE01LUeACTABNt0lwNJdAizdJcCSXgJsqmm5vwO4d4YXsI1LXbQcyl+D/TowC/anSYDWrpSPYRke9IFF57qpVaH+R1hAeS+tP6eSwVonNILlb1JEK3bLCdhelyKwE78Gac1eMxG2vtg52JG1CVrdkzrC5i3eAotJbKxlc6EWLKK5vdbSIS6wBVu+wA40OKc181ME7G6tobDiWVpp1Y9ygBWcFQ17c8pVq9/TdrC+a/rBPo2/pNXr5CrY5tHztXzsU8LCDqaCxTY+rLVqoSMsyD0FbFKZblqBD0bBUvtXga12G6h1//0z2DMfX1jk7uZaIf3nw2p7emkluU+BFUg3DDasUwat9WM/wkq1WAJrPjC51pjJR2DbWqeBNbowTCvItRUsuHdF2PfOTlr9bb7DvHM2hrU7Gq1VLnwM7MH6ZFpbo/LCfHa/g6W8NEer3cKeMFNNyxFgAkyATXcJsHSXAEt3CbCklwCbalqOABNgAmy6S4CluwRYukuAJb0E2FTTcgSYABNg010CLN0lwNJdAizpJcCmmpYjwASYAJvuEmDpLgGW7hJgSS8BNtW0HAEmwATYdJcAS3cJsHSXAEt6CbCppuUIMAEmwKa7BFi6S4CluwRY0kuATTUtR4AJMAE23SXA0l0CLN0lwJJeAmyqaTkCTIAJsOkuAZbuEmDpLgGW9BJgU03L/R3AaVqfgn1oF6bl0GoxzP7tcFjBW7+1ikQdhg1xiIC5FOyh9aWoGyzttDxaH2LrwsKft4D1u/ZY68yNBNjlt+dhqwb+0BpcPBDmHfQLtvfsKK03a7vBNufMDrvV00YrtJc77NvoMVo5fvrDbHs8hT1+M0Gr1IRdsNKlv8CuJt+ulcfpN2zS4T+wd2maaxW9WQaWYt1E2LkZDloddxyH9b6WSSv7nvuwOWsvwq7bxmtt2zIW5jvlCCxzUF+tTdWXwPaeyQd7HNRSa+fuabBBoYdg7yvP1Xp76CBsSfb1Wlsr14FteVAN9nxNKrXgS7D+7SbCquZZq5W1SxpY4O90sJn9U2vt6zsVFu5ZDDbv/VatllddYa4da8O86/XQio5aA+vU86lWQLG2sLA7a2GvsozROtnWA2aqaTkCTIAJsOkuAZbuEmDpLgGW9BJgU03LEWACTIBNdwmwdJcAS3cJsKSXAJtqWo4AE2ACbLpLgKW7BFi6S4AlvQTYVNNyBJgAE2DTXQIs3SXA0l0CLOklwKaaliPABJgAm+4SYOkuAZbuEmBJLwE21bQcASbABNh0lwBLdwmwdJcAS3oJsKmm5QgwASbAprsEWLpLgKW7BFjSS4BNNS33dwCX2ucL25s6UStqchZYwFhfWGBSWa2f76rCHiX8hP3a2l+rl98KWPyptFoPXm+DpQteBSuS/YhW1brxsA5hrWDbYrJoDernBKuWOhJ2IPksLecKQ2He+3bAhu/trJWqVkuY/Z+mWl0upoatjHwGK9ynj1bb9VdhkfnjYaPG5NbaWqwTbH/hdDDnewW0gnI8hn2OPgHbUHiO1u1lg2HJ7+fTSh9/BTYyuTusXu9TWvZ1gmAekbNgTauM1fKO2AHr49Qb5jpslZZ9zUhYrvSBsCUFO2ttapwFViYxt9bilu1g3S84wtznH9UKcZ0A25b1OSxN+QSt+8UvwOJ+Toc5+PXXsnWuBTsQnA+2/t5NrUWZJsFiqhaFLc5VRqvRi0TY4WmFtWZ4FIJ55KsPc+jcWuudT3OYqablCDABJsCmuwRYukuApbsEWNJLgE01LUeACTABNt0lwNJdAizdJcCSXgJsqmk5AkyACbDpLgGW7hJg6S4BlvQSYFNNyxFgAkyATXcJsHSXAEt3CbCklwCbalqOABNgAmy6S4CluwRYukuAJb0E2FTTcgSYABNg010CLN0lwNJdAizpJcCmmpYjwASYAJvuEmDpLgGW7hJgSS8BNtW03N8BPKeWB8zu1Fmtn1UawGK9vsF2FXHS2p1qIKyVwwLYxueptHxGO8IKlFihdapmAOzJhyDYf/W3arn1XwxzGN0FdmFQL63QY6lhx5w6wZa0H6b1+mN/WP2tTWCh08tqFe7hBzu2fKhWw1/nYenndYXt2Fhe60C5dbDGg37AkmUZo9W780zYxDTHYF+zVNKaVmA67Ne0gbDslWdqdZj/BhZccYlWc7vbsD55Z8OeX47VuuqzBOae4Sese6qGWn6Vv8DuHeoGG5ehpdbG6Xthw3rVgT0sOVHLedR02J7CmbSerZ4De3u9CKxEtyVaSVWLwqq/GAs7O3a+lvfEBNjxx6NgWcdU0GrwoAMswwlfWNpuKbWqex2F/RgTDst+P7lWr1uXYPNTuWp99IiAfT0xDLazyC+t2ENHYKaaliPABJgAm+4SYOkuAZbuEmBJLwE21bQcASbABNh0lwBLdwmwdJcAS3oJsKmm5QgwASbAprsEWLpLgKW7BFjSS4BNNS1HgAkwATbdJcDSXQIs3SXAkl4CbKppOQJMgAmw6S4Blu4SYOkuAZb0EmBTTcsRYAJMgE13CbB0lwBLdwmwpJcAm2pajgATYAJsukuApbsEWLpLgCW9BNhU03IEmAATYNNdAizdJcDSXQIs6SXAppqW+zuAnds+h2Vy36wV0ikv7N62d7DamVdp2Xzxgx1bvxD2atBGrWfLi8Ns3rbXmpw9HayBRyvYhIHXtcIm5oLFLKoH23s4QGtCl+GwHjVKwIbVvaflPXYNbPTyUFhwrI/WxyavYA9fvtcqnXYmbOO0P7DCxWtrVes+DlakclPYjvFPtG64P4N9jv4CS+V1TuvQk/KwHwcew/yfzdC6V/sNLKZzbq1rZwbC7JdmhLX0u6R1tZ0/7PK7/2A5cmzV+l6xO6x4/Smw4YkNtVb+3gJbO3cbrGPSci3nN4dhG7L102o0sTAs6rc/LEeL8VrTZt6E7fzeFDZwaWott7DfsKX+GWAF3oZruZdNDcte9xwsJPyu1vHraWBX2p2DlZ9YTmvurAiYbfbkWjYNvWG5etjAHmT4qXU89AXMVNNyBJgAE2DTXQIs3SXA0l0CLOklwKaaliPABJgAm+4SYOkuAZbuEmBJLwE21bQcASbABNh0lwBLdwmwdJcAS3oJsKmm5QgwASbAprsEWLpLgKW7BFjSS4BNNS1HgAkwATbdJcDSXQIs3SXAkl4CbKppOQJMgAmw6S4Blu4SYOkuAZb0EmBTTcsRYAJMgE13CbB0lwBLdwmwpJcAm2pa7u8APmOfH9a/T2ut2KqRsEIZbsI23OmnlSL2KiyL+1vYxDxvtOpt+wNrn+aEVkynsrCmG7LDPhwtrbXfvQ2s8eAPsFVrk2tV7XMLtta5E2zPZx+tWq1tYdeuBMHW7fml1XfcS1iT6TZqfzLBSkyfCDtyW63NpPGwR8kewx6n3qAVuOcG7Ep5P5j38VZay9fYw47X3QHLMeWk1rorN2CLk1XVetW+AKxp1sewDVPc1LzewIau/Ayrs1XNq9B42LlcxWDlBj/SarjYDjYj5QaY/ejMWtnOrYHZuOXRqpp+H2zG7XDYl4jXWv4nu8DWXfeFNZqbRqt84FzYiJPbYNejErVifg6ArbgxA7avQLhWnZUfYKcXXIQ9+LNOq6/Td9jqPze0GuZrDEsTNxfWa1sKrUbnn8JMNS1HgAkwATbdJcAmugSYAKMkvQTYVNNyBJgAE2DTXQJsokuACTBK0kuATTUtR4AJMAE23SXAJroEmACjJL0E2FTTcgSYABNg010CbKJLgAkwStJLgE01LUeACTABNt0lwCa6BJgAoyS9BNhU03IEmAATYNNdAmyiS4AJMErSS4BNNS1HgAkwATbdJcAmugSYAKMkvQTYVNNyBJgAE2DTXQJsokuACTBK0kuATTUt93cAH30ZDKtZz18r/4UVsFGlusC+dKmnVfeFFyz72gKwRT0PaI2/3AJW/r8SWt1nlYE1HZsJlmtYSa2EUg1hjj0TYd9S9te6NCwR9vVtQdidFtW0str+B0t2ezysXvNyWt9q7IBtKZRLK+HaDZjvpEYw1zMOWqM7PoJFti4IC6nQXsujSS9YnQL9YD0+PtFal+In7OqST7Aj7adp9TyRB9awxBUt1wm5YYW3VYENTuqudWJBMCywgges2+P8Wtcv9IetiJgPa3Y8pdZA//Qw255BsOi4xlp/+t+FjXSM0+qY3QnW4l4crNKICVq3E9xhW4NWwkplyK6VtqUPrHtYNMwn4zytWWmDYBeXToNduZ9V6+imSNipLatgA8910JqathMsy4nqWsXuZYQVOv4cZv++nVbshiIwU03LEWACTIBNdwmwdJcAS3cJsKSXAJtqWo4AE2ACbLpLgKW7BFi6S4AlvQTYVNNyBJgAE2DTXQIs3SXA0l0CLOklwKaaliPABJgAm+4SYOkuAZbuEmBJLwE21bQcASbABNh0lwBLdwmwdJcAS3oJsKmm5QgwASbAprsEWLpLgKW7BFjSS4BNNS1HgAkwATbdJcDSXQIs3SXAkl4CbKppub8D+OTqBrAM/gW1CiwdA8tX6Rjs/JZ8WrcyRsF+B1SAfQuppvXRcxBsUJNQrVmb7WHuw/vCBuRy1rIpeAKWfkpX2J8dU7TqNeoI69YjBHbw6WKtXrPGwILt+sF8M+7QWv0hLWxjyTVaoS1ewir6ToD9rDVX60iG7bCsL8/BHEo00rJf1ABW/nBGWGi/EK1kDmVhjzM+g21/lE5r9ZWvsJMNpmqVeBMIO3bPEfbbabTWqPvnYCdsQmCHdmzXqrQmDubX7iDsfVcXrZthI2ATbjvAoq5V0VrwJQHmeOeMVrHV+2AjfmSAjb5zR8s10x5Y9M26sOPtjmo1W/ETFnXyCqzQsJRaR0Zdga36vAmWolJrrcolw2HDc1+FdT8SrrXqxCjY0ZglWh3P9YJ1+N0TNvv8SK1n4RlhppqWI8AEmACb7hJg6S4Blu4SYEkvATbVtBwBJsAE2HSXAEt3CbB0lwBLegmwqablCDABJsCmuwRYukuApbsEWNJLgE01LUeACTABNt0lwNJdAizdJcCSXgJsqmk5AkyACbDpLgGW7hJg6S4BlvQSYFNNyxFgAkyATXcJsHSXAEt3CbCklwCbalqOABNgAmy6S4CluwRYukuAJb0E2FTTcn8HcMdUZWCRGQdpVYoYC5sQ9h52O1lhLd835WDBvbLDPmTvrHWp2jvYsUKOWlfjF8He1baDlY6x0TrcuCws59m1sJg187WWrAiDfc5dA+bk6Km1rM9c2LRKr2DuhRO0giqkhh3+mV2rQ667sJ0brsJOZ5ivNfxiZVi6sy9gr77d0NoW9w52eWgaWM7jebVqle0J27t1Paxb11CtZ1/zwap8SqW1/Cxuus8rWNH6hbRWBF6DVS3TC9b6Y7TWmu81YQmrnsPSRa7WClrSF7a7RENYm5Rq9tHfYAHTH2vl758bdrD2FtjrW0e0Sr6zhY2Mnwyz8dmqNWfrRZhNl+8wu451tbwcU8C6ZrGHVVhyW2vxFFvYigqZYfmv/NEacOUF7GqxNVpdJsyCNcl7BnbL6YXWm0+nYaaaliPABJgAm+4SYOkuAZbuEmBJLwE21bQcASbABNh0lwBLdwmwdJcAS3oJsKmm5QgwASbAprsEWLpLgKW7BFjSS4BNNS1HgAkwATbdJcDSXQIs3SXAkl4CbKppOQJMgAmw6S4Blu4SYOkuAZb0EmBTTcsRYAJMgE13CbB0lwBLdwmwpJcAm2pajgATYAJsukuApbsEWLpLgCW9BNhU03IEmAATYNNdAizdJcDSXQIs6SXAppqW+zuAH67vCFuf7orWxQxRsO7jXsGKl2qjFZZ1AOxp0iRYkn0FrSzRqWAjz13Ucj4UAhsT0h/2430/rdtuuN7T42BXT8/TWuTRGtb9Wh3Y6DJNtLI83Qyr3GkiLF90jNbziMWw/ZtttPzOj4e5dZ4Bc91RTSvDzCewq2nHwl41raPlO9cXdvRHOOxu33Zaa46vh+X4Pg82oc1jrbXHUsJa1MqtFX1zGCx/7s+wwt12abVtNw2WWLov7MP5/Fr1/5sEm3V0PMwn5VOtKeubwIYcDYe5Zums9dUlJ+zQi35a88sPgT20mQtLNbeAVul9c2BTSsbDtt2K0epvOwi2aeEcWP26r7TOpb4LWzbvC6zRxqVa9c9cgdWZ+wAW095Da2n/QrAGsTe0vvfBxbQ+Diu5bafWoajhMFNNyxFgAkyATXcJsHSXAEt3CbCklwCbalqOABNgAmy6S4CluwRYukuAJb0E2FTTcgSYABNg010CLN0lwNJdAizpJcCmmpYjwASYAJvuEmDpLgGW7hJgSS8BNtW0HAEmwATYdJcAS3cJsHSXAEt6CbCppuUIMAEmwKa7BFi6S4CluwRY0kuATTUtR4AJMAE23SXA0l0CLN0lwJJeAmyqabm/A3hxtoWw7FXstaa8mQ8bN+QerHTJQloVgsbDlviGwO7MHKlVKlUe2O6lmbXcz3+Due0qCytSr6tW0bX+sOOZSsFGT6ypNTvVaNiV2riutatoedt8h/We3Ay2bUWg1ri7hWA1+m/V6pI0EFbpzjyY27VqWgWOjIb1C8sAC/JprGUb8xWW4tp92DyXnFrdcjSA5elQBWYTWkirgV0fWPJ2w7QeL/WAtb+eBFvfObOWS4+BsEnrf8OSe/trpX2zALZqXzNYA19HrYAlJWFX6rnBeqxIobW/diys+r21Wq8XlYC17zka1vvab62Oza7Ctk4+Ctsb10vLdWxnmFuRirD+19W61kmAPdpVANZ36QmtWy6XYYHbm8Amfm6rVTm+Fyw+ZITW7QOfYbMyBsM8XSpp1ekQBDPVtBwBJsAE2HSXAEt3CbB0lwBLegmwqablCDABJsCmuwRYukuApbsEWNJLgE01LUeACTABNt0lwNJdAizdJcCSXgJsqmk5AkyACbDpLgGW7hJg6S4BlvQSYFNNyxFgAkyATXcJsHSXAEt3CbCklwCbalqOABNgAmy6S4CluwRYukuAJb0E2FTTcgSYABNg010CLN0lwNJdAizpJcCmmpb7O4BDLn6FNa6XT6tUw9SwxPO3YF7nB2ndOJEIW2S7H3bep7lWxJfusPNfL2p53wmErZ07FHZr8GWt0G03YL9L9ofV+7pYa027/bDSFdfCHsYk05qTtAFWKvQE7MZLD63MI9LCGgX4amW44wXz75wJ9qVGCq3YXDawMvkTYWETGmoVaucOCywyEFZ5/Fut+28WwiZcyQa7HLRAK37vR1i/c7Fal0u2gcXmWwore2SV1oiVnrA94bdhv0Yv0Orj/AXmsjEeVsptgdbbN7tgx48HwtbY/tTqsGwUzK5cda3kvU7Atgd3glV77Kf1+/Rp2KNVb2GB66tp5bteBvb+Qixs3PT3WiEr0sBCvz6EFTx3SsslIRWs0YVWsEfz62rVGj8R9iJtHq3x7qdgF2omwiIzvtDqs3EBzFTTcgSYABNg010CLN0lwNJdAizpJcCmmpYjwASYAJvuEmDpLgGW7hJgSS8BNtW0HAEmwATYdJcAS3cJsHSXAEt6CbCppuUIMAEmwKa7BFi6S4CluwRY0kuATTUtR4AJMAE23SXA0l0CLN0lwJJeAmyqaTkCTIAJsOkuAZbuEmDpLgGW9BJgU03LEWACTIBNdwmwdJcAS3cJsKSXAJtqWo4AE2ACbLpLgKW7BFi6S4AlvQTYVNNyfwew7d2jsPXhX7Xsku7Dyu4eBpu1wlZra76zsId1esMm9s+n1T4BV7JqoNavM21hS54/hb3rHKWVPLEHrJljTVjWBZO1pthOhB3x6wCL8cqjFd3uB6zGqumw/CWnaHne+AJ7+rSwVp20Z2H1L26HnT49Qqv72gMwr5bjYVVT2GtdyOMFq1+hNKzH1Dxaddfchm2cNgDWu0YDreI108DmJZuj9aZXAdjoZPVh1+07aCW0fAI77bofVssvSKvs+3swu1lnYc2+ldBaFHQWNvuqPaxGjd5aU2cdhvkvqaVVdvwI2J+buWGLR4zS6tivImxPaA9YQE4/rS89LsNWnqkI6/b4vFaNx8dhT7e9ggWGZtZyL3AJtnnQAFhm14ZanoV/w5wGe2t9jlgHazZgL2xnmJfWwHvxMFNNyxFgAkyATXcJsHSXAEt3CbCklwCbalqOABNgAmy6S4CluwRYukuAJb0E2FTTcgSYABNg010CLN0lwNJdAizpJcCmmpYjwASYAJvuEmDpLgGW7hJgSS8BNtW0HAEmwATYdJcAS3cJsHSXAEt6CbCppuUIMAEmwKa7BFi6S4CluwRY0kuATTUtR4AJMAE23SXA0l0CLN0lwJJeAmyqabm/A3j/1yWwGn2WaX3+cgr2KktPWLViz7S8F96Fxc27DlufPkBrf991sGc7A7WSfJrBatYpBzu210nr8rA9sCzR5WF3y9trxU8cCvudcQKs2X/5tdZ5tIU1i9sGG9tqlNbrWsGwhfcKqTVPD3N89gNWrMRrrYU5FsEWbImGNY5areVR5BTsz4XSMJvEKVoOsTGw2lXSw+yefdcatGw0bM0KG630HbPB/twOhG37/J9W5SkHYBOerIe1CLDTco59Btu85T3sU/JfWjV3doP5JDrBVtml1uqx5zSszpWCWlt2Foe1yFAItrFyH60vIZlghZI1hFW7MFerY9QQ2MZlHrCMXs20Gn4PhW1rmRq2pmcbrVQ9BsMSB2aHzR1nq1XB4Qksop2/1q4XeWC5H16HJa9ZT8u50iqYqablCDABJsCmuwRYukuApbsEWNJLgE01LUeACTABNt0lwNJdAizdJcCSXgJsqmk5AkyACbDpLgGW7hJg6S4BlvQSYFNNyxFgAkyATXcJsHSXAEt3CbCklwCbalqOABNgAmy6S4CluwRYukuAJb0E2FTTcgSYABNg010CLN0lwNJdAizpJcCmmpYjwASYAJvuEmDpLgGW7hJgSS8BNtW0HAEmwATYdJcAS3cJsHSXAEt6CbCppuX+EuAjQ2E+gYe04ma0h9nl2QTzfW2v5fkhAmZffAXs5J7pWikmbII51nmu1dWlJixbqvmwrytyazUNnAPLl7cGrHamBK00+2fC3p4fC4udbK+1M/w77IRLDph9nbVaL8aNhPnXX6cVvSAzbGz8D1hQ4TFa26rGw9afqgZbsa641n+hZWEfBvWElfbroZWi1gBYSZ/BsKS377SuX/gAO52pvtbY6Kuw4qebwhy9V2itL5EP5lp9J8zDuYyWfdw+WPdP82EtymTRqnNjBizX0X2w16UHap3N1RHWL/0UrWNna8JyfZ8Ky5Nzs9biHPlgWTeHwDqsLq1V8LEj7FHkCpjnh8paYc5NYdPW+sBqXhygdf/uY1jaktlhdb+811q7tQTsU4uJWifK5YKNnTQWNn96kNbgigkwU03LEWACTIBNdwmwdJcAS3cJsKSXAJtqWo4AE2ACbLpLgKW7BFi6S4AlvQTYVNNyBJgAE2DTXQIs3SXA0l0CLOklwKaaliPABJgAm+4SYOkuAZbuEmBJLwE21bQcASbABNh0lwBLdwmwdJcAS3oJsKmm5QgwASbAprsEWLpLgKW7BFjSS4BNNS1HgAkwATbdJcDSXQIs3SXAkl4CbKppub8D+EFOH1iO2ru1znd8D6sx1RfmOeSJVsijUrBmFfbDBqcP0WrW/zLsVNs0Wks6FYV1OnAPFrEzn5btn1+wE7lfw6aMrKw1vtQcWO6k9LDGq75r1e+wHnZgeTJY54DVWuuyboENaTBL63Pqx7BOuSfB4trW18o5qRwsj99T2G7vgVq/aheD9V03EDZ/YHet0lvmwh50WQ3ruvSt1hHPIbCDA35qeZ55C2s3dAMs15UhWg22FoLVa/cT9vPOIK3bye1hq2psglWZckbL2SkWdvFVF1ijRzW1qnX7AGt5Zq/WsM53YEff/wdb1fyHllPiANiIaSlgKbp01lry6yjsc6fesNRrXmhdGOQMO9MrEDZ74Botz96xsFxl08AKN+6rtXPtb9z8w1o10jSGuaZIDSteeJnW+wxNYKaaliPABJgAm+4SYOkuAZbuEmBJLwE21bQcASbABNh0lwBLdwmwdJcAS3oJsKmm5QgwASbAprsEWLpLgKW7BFjSS4BNNS1HgAkwATbdJcDSXQIs3SXAkl4CbKppOQJMgAmw6S4Blu4SYOkuAZb0EmBTTcsRYAJMgE13CbB0lwBLdwmwpJcAm2pajgATYAJsukuApbsEWLpLgCW9BNhU03J/B/Da6S6wRzPnaq0+9x6WJls6mMfn/7QcQsbCdi2KgnmPttFqcfgZrFIKe601i5NgWVLOgeUpVUSrwfVysBI1gmEHaz/Q6n7kGKzu02WwG+6XtHq62sFmv3GA7fRdqzWwf0ZY+Su5tMoMfAmb/rEE7FTvxlrpOtyG3ah/Dua3/J2We7MtsA/3B8FOXkmnVfJ2V9ii4gdhcxaN1Bq0dj3sc8pJWnN3DoUVzeoCKz/igFbcWWdY28A6sPn3O2mt9V4D6z7rBqzb9kNatd54w67n/w8WmOeL2vtMsPBhH7TmhBSDNd6ZB9a+VVutehmTwTpmWg9rnZBS6+KieFiFBr6w7I9Wal3fWBG2xfEirHy2UlqrhnrCHJZPw804oTWjZwis+VQ3rY4rSsOyheyF7fGI0trqnQZmqmk5AkyACbDpLgGW7hJg6S4BlvQSYFNNyxFgAkyATXcJsHSXAEt3CbCklwCbalqOABNgAmy6S4CluwRYukuAJb0E2FTTcgSYABNg010CLN0lwNJdAizpJcCmmpYjwASYAJvuEmDpLgGW7hJgSS8BNtW0HAEmwATYdJcAS3cJsHSXAEt6CbCppuUIMAEmwKa7BFi6S4CluwRY0kuATTUtR4AJMAE23SXA0l0CLN0lwJJeAmyqabm/Azh3tkuwzQt/aZ0LLgKrkHkBLL7RH61B92fD3Na1hT2Ytl+r981PsObXkmtNy+gLK164ISzu4lCtka37wM4M+wF7/ui81tfuTWD+FxbCfLrm1ip7qzXMdtYx2NJkr7XmhpaEjf+WWSuuaBrYgLBBsJ3lSmtVX7sJNrj1L1jN2x5aQS3nwzz6PoQNjHuvVWr0GdjXQtGw+uW7avValgeWx6+R1vgfo2Ez/wyHrYzJqTVtUw/Y2UVTYC6nwrRmNwyAVd4UBxvTLV7LvY0XzK1+OtiJZI21eqaqBQsOdtPyaloL5nSuDKyM8xutDeM/wtpdbgjL9eCyVn//VLB7F6Jhuce5af3YPR8Wn7oqbOCyY1p5N5WF7cjmAfvSdY7WyEspYeXux2glLjkF875SFja80gCt9Fs6wkw1LUeACTABNt0lwNJdAizdJcCSXgJsqmk5AkyACbDpLgGW7hJg6S4BlvQSYFNNyxFgAkyATXcJsHSXAEt3CbCklwCbalqOABNgAmy6S4CluwRYukuAJb0E2FTTcgSYABNg010CLN0lwNJdAizpJcCmmpYjwASYAJvuEmDpLgGW7hJgSS8BNtW0HAEmwATYdJcAS3cJsHSXAEt6CbCppuX+DuAzfg6wMS+faBW8kQhLGuQFu9Dyi9aA2ZlhC6aWh61zHq/Vo2d+2K3fdbQKtCsDS+hSCVZnV4hWbsdBsCeL5sI6f+ijVTqmFKyf7UlYpaoxWq1WFoD1jdoIyxMZolWn/QXYzOJztTKH5YQdWX0ENrBFJq2RxdrAYuevhe1Z3FhrjV8YrNPIR7AMeydqrfgUCGv25x3sc7o3Wg0uBcOyVc6tFTHwCMy1YVlY4bH7tL7m6gCz+1YLNuTgKq1X3nthFwbPgW1rXFhra+djsDXb1sO8rx7Vajj+NGxMlfJa9x44wHpeWQKLqFFc601QKdhD5/WwpL0XtBZszAdb41QEVnPRYK31hZPDjg5wh1XbUU6raUIRWLmAZ7ASW2prBX1KhFUo4qYVmXc4rPkxR9i+VD20Du66BzPVtBwBJsAE2HSXAEt3CbB0lwBLegmwqablCDABJsCmuwRYukuApbsEWNJLgE01LUeACTABNt0lwNJdAizdJcCSXgJsqmk5AkyACbDpLgGW7hJg6S4BlvQSYFNNyxFgAkyATXcJsHSXAEt3CbCklwCbalqOABNgAmy6S4CluwRYukuAJb0E2FTTcgSYABNg010CLN0lwNJdAizpJcCmmpb7O4Dzl0mElQpur2XfMRHWYXosrHKv1FqpPNfBWuR2gd3sV1HrR4a3sBkDH2pViMgN23m2MmxGlyxaHvv8YfMde8PS39mjNXb6PFitMZVhFXe/11pafCIsXcdYmPO+PVp5UvrB6rSK1IpJmQi7tGob7NT131rtFt6BLSy9Ahb96KPWye5bYJc+doQ9qLtJa7xvMdidnKVhLTbW17L97gobfjCX1qrsF2ArT0yCJXN7rFVh52rYpV43Ya2ru2jl3+4OGxBcH/a6prNWk0Bf2IC3BWDHg7y0ejl7wGwfXNY63m0FbmMtWNzAnFoVpzjCPge7wK43ya317tdYmMvi5bAfdxppndlQFjZnehjsSfMbWs4HG8Gad10Jy3XQXavMifywgLoTtVLmTITFr74KmzLNVWtemvEwU03LEWACTIBNdwmwdJcAS3cJsKSXAJtqWo4AE2ACbLpLgKW7BFi6S4AlvQTYVNNyBJgAE2DTXQIs3SXA0l0CLOklwKaaliPABJgAm+4SYOkuAZbuEmBJLwE21bQcASbABNh0lwBLdwmwdJcAS3oJsKmm5QgwASbAprsEWLpLgKW7BFjSS4BNNS1HgAkwATbdJcDSXQIs3SXAkl4CbKppOQJMgAmw6S4Blu4SYOkuAZb0EmBTTcv9HcBlIl/Bdjd5ojVrcVHYh6W4Pe0eaiVmnw7LknMZ7GDj8Vp785eCNV/6RqvNHj/YzS4OsI43nbXWJDSFPTs1BtZ0xkStTddiYdN2VYRN33VH6+AiP9gVpwWwDD8baM1PVwL24OsPrZAN1WC9ep6Ahbnf0uq7aiKsYcessM+5lmuV7HYEFpP/Eywq4Y9W8gVPYP8d6g2rFd5Q6233h7DDdzpr+dmVgO0rtAeW/VBFreg8g2HV642HffA+qXUmOgXsR+QgmF3r2lrRnzfAdqbZDUs/N6PWmNB2MIdP1bXuhmWEnd4UAruf9YpW+RmJsDU/m8MSps3QWnnLE7az523YuDkZtf6UHQDLNHg/rN2YkVpt5taF3X2yAZbpibvWlLOXYDvTBGgtPp0K9vlOL5h3wkOt1t8qwUw1LUeACTABNt0lwNJdAizdJcCSXgJsqmk5AkyACbDpLgGW7hJg6S4BlvQSYFNNyxFgAkyATXcJsHSXAEt3CbCklwCbalqOABNgAmy6S4CluwRYukuAJb0E2FTTcgSYABNg010CLN0lwNJdAizpJcCmmpYjwASYAJvuEmDpLgGW7hJgSS8BNtW0HAEmwATYdJcAS3cJsHSXAEt6CbCppuX+DmCblsVhoTFvtOyepICdOTIN5n/oglbvTjVgQTn7w25HNdK6vtMbtqxYHq1fp/PDfBp7wCLHOWmlC00Gi7u1Dlb4s4NW5uspYK1H7IFtTztV69bgtrC0wRNhBw+81/py1BUWsDlC6/Og2rA5KUJhyz16a5U4VgQ2qMhnWOyMjVr1n2SErY4MhkXViddyv/YGVstnO+zRjlVax/dFwQr+N0qr+TAv2ORNfWGTtiRo5UrsDdu1wwXW9sotrUE73sG6Jw2HFS3UTCt9+7ewrx8+wjwdM2pNLXofFnvZTiu//1dYmfItYU2O7Ncq75gadvXmVdjNqrW1IruPgn385g0LSH1Xa8PaNrBj5X/Akl+9rRXsGgDLc2A0LO/YvVpHr3nBNtdYq9U5aAyso0NP2K0Hs7QervGGmWpajgATYAJsukuApbsEWLpLgCW9BNhU03IEmAATYNNdAizdJcDSXQIs6SXAppqWI8AEmACb7hJg6S4Blu4SYEkvATbVtBwBJsAE2HSXAEt3CbB0lwBLegmwqablCDABJsCmuwRYukuApbsEWNJLgE01LUeACTABNt0lwNJdAizdJcCSXgJsqmk5AkyACbDpLgGW7hJg6S4BlvQSYFNNy/0dwOmfloI1HtdAK9+e/LBrTVfCJn6uoTUq6QIsocARWJ/QUVqFbd/DKk/IqTXm/XzYzkv+sLt3S2o96RsEG7F1FmzQyQpaH28dg9150hR26798WjsqTobtmt8b5n/0j9blRjj3A+m1PtQaBDvx+DRs5KdyWqN6R8ImzD8HOx1USutVmY2w/WO2wL5VGat1plUmWGTX+bC+00K10ny2hZXbs17rY+hBmMOvjLBtg8ppVUs2EWZ/twfM9XGM1px7ibCLr/vBNt58ruWaPids/HgnWL3I5lqeMQtgvYIzaLUsNhu25JkXLOi7p9aQ944w16fZYTnmTtJ6vPEr7M/nR7BDT2Zrzdj5AbbvZQ9Y15pTtYbWKgiblK0xrGSaOK2xTRbDRmX7rRXv7wjb4xcDq3CxsFayp11gppqWI8AEmACb7hJg6S4Blu4SYEkvATbVtBwBJsAE2HSXAEt3CbB0lwBLegmwqablCDABJsCmuwRYukuApbsEWNJLgE01LUeACTABNt0lwNJdAizdJcCSXgJsqmk5AkyACbDpLgGW7hJg6S4BlvQSYFNNyxFgAkyATXcJsHSXAEt3CbCklwCbalqOABNgAmy6S4CluwRYukuAJb0E2FTTcgSYABNg010CLN0lwNJdAizpJcCmmpb7O4CzzbgH+xQbrvXjYgdY3sDqsMKffmktrRACC50wCxY3IIPWmCnHYY7htbQupTsCa7VvEixv/jitS/2uwC5fOAHbNSdJq8vIU7BkzSvAmj0bqRVaJDvs0e7psL0bWmmdLZANNuHZC61XAS1gj+O6wvpG2WllSjkENuLMVdjBCo+0HjWKhQUumQqzDSuoNTnoKGx/5WjY1PDMWqUWr4dVdEur9bbVUtiLFldhzyfO0Fqx7yLs0oFYWKuZv7WidkXABvQvDgtf6a11v8AI2MKftWHVMrXWWnJ5GCz8blGtqtvqw5ZnvQwLC26o1Tt7Zlib0EqwEhdPa/kN6QiL3XgNlq3AMa0tvutgGU9XgUWHVNfyyNEDVuJ1GGxCyklag4t7wnwy7NWKvv0RVt7rIWxDmyitmEOhMFNNyxFgAkyATXcJsHSXAEt3CbCklwCbalqOABNgAmy6S4CluwRYukuAJb0E2FTTcgSYABNg010CLN0lwNJdAizpJcCmmpYjwASYAJvuEmDpLgGW7hJgSS8BNtW0HAEmwATYdJcAS3cJsHSXAEt6CbCppuUIMAEmwKa7BFi6S4CluwRY0kuATTUtR4AJMAE23SXA0l0CLN0lwJJeAmyqabm/A7jG8h6wOR+HaC2MqAJzHpQIG/6sltagr/6wsOAjsNZxy7S2JC8Ge+o1VmvdwLSwYskqwxbFbNP6tXEkzO2GLezdozlazUKdYL29/WDXHQ9rLT2fAjbUrgrM8X60Vva5rWDzXt/UOt75DWzk4ghYuaw+WiO9XsM8t1SDHT42RSumvBss+MVC2JAL3bSmPjkLSyo2BHa0baxWocEPYW6rI7SGl6kLu338ICzYdp1Wl+RbYVH9XsI2h/ppXfgvFcxn+SXY5efeWiGLRsEcHebBVjRYq3UtpBtsQ9bvWqOj7WDvS9SHeY55o5WYPy+uaCNY0F0/rdaPbsAeFtkCi/5STmtkNU9Y+juVYbX852gVytoPVnR0IKzt0VJaTn+2wYq4RGqlSREMOxFQGGYTlUvLNvMxmKmm5QgwASbAprsEWLpLgKW7BFjSS4BNNS1HgAkwATbdJcDSXQIs3SXAkl4CbKppOQJMgAmw6S4Blu4SYOkuAZb0EmBTTcsRYAJMgE13CbB0lwBLdwmwpJcAm2pajgATYAJsukuApbsEWLpLgCW9BNhU03IEmAATYNNdAizdJcDSXQIs6SXAppqWI8AEmACb7hJg6S4Blu4SYEkvATbVtBwBJsAE2HSXAEt3CbB0lwBLegmwqabl/g7gxqNSwLxqlNPKlbQYtmhSHKy882qtNK3SwtZtbwjL3NJFa26WC7ChPmO12hU4CzvzeyisTEMfrUEzo2Fbi9vBpr0fpWVTaDTsWNVdsD1OWbT6282GtT9XClZzUketbs1Owvq9d9MKfzwX9n5JN1ip7we0qm6YD4uo2gmW5+dGrSvDqsHalV0Dq9qjttbWWnGwCflGwKZPuaj17sl9WGB4Sa3tOTbDnCuGwyKT59aamz0Klr+aF+zHkK9aM0t0hi2LWQo7W3WJVrLX22BlmuaGFfJL0no5zR32wWOo1r4hCbCwgLSwmJvftCJtzsNG/vcalr7uCa2jQVdgNtXCYFWDD2nVnrQb5lwlFFYiYI9Wq63dYavz14SdnX1Cq87yXLDZgUO1Jn1sDSvf7zNsabFwrSI2ITBTTcsRYAJMgE13CbB0lwBLdwmwpJcAm2pajgATYAJsukuApbsEWLpLgCW9BNhU03IEmAATYNNdAizdJcDSXQIs6SXAppqWI8AEmACb7hJg6S4Blu4SYEkvATbVtBwBJsAE2HSXAEt3CbB0lwBLegmwqablCDABJsCmuwRYukuApbsEWNJLgE01LUeACTABNt0lwNJdAizdJcCSXgJsqmm5vwM4wH0PbNfLD1prar+G7W51FDa7+iOtYdnHwVr0+gPr5hSo1bHsflia8rO0BhcfATtVZicsKnSt1r7PP2BfW/2B9dsUo3X97ThYkb7JYD9rOWo98GoNa3wkN8xuf2+tCU6zYU877NIqnuQES7pXATbZNZPWpgNesOVve8GuD+uu9b1BH1iNY0VgezLHaX2IiIYNWF4XlmJCF62q6cfAmi2cr1WiOK5lGWdYn4lftX7s3wrblLotLGjAHK3M+UrCFkfOhjm0TaO1uvs3mPfdANiCb2+0bth0ho1Zdkqr8MwWME/7KrCsnd21nGaehn3rPA1WvWpGrcfLjsFmh76AHXbYqPWn6hzYzj6JsNrpXmpVdUmCnQ3KC7udeF1rzPsIWIn3o7Qa5z4JW+i/FTayWIxWyg2fYKaaliPABJgAm+4SYOkuAZbuEmBJLwE21bQcASbABNh0lwBLdwmwdJcAS3oJsKmm5QgwASbAprsEWLpLgKW7BFjSS4BNNS1HgAkwATbdJcDSXQIs3SXAkl4CbKppOQJMgAmw6S4Blu4SYOkuAZb0EmBTTcsRYAJMgE13CbB0lwBLdwmwpJcAm2pajgATYAJsukuApbsEWLpLgCW9BNhU03J/B3DE0D6wnikqaZ086AcrGOQI29jyhla/HL1gd6pVgpUY8FsrJtwGlvZQola+XVdhvxbGw4LOZdd6vqMDzHvJDljrA45a8f1aw5Z0WgKbWLmKVp7YGNiD34Gw3mfOaJ2IbAs77flJK7zRBtiUchthBy/7as0rWRUWlGEwLG/6BK2bP6/B4mzbwJwuHtW6cyMvzH35OVjLjLe09qz4CPPr11OrrsMuWETdpjDP3o+0OjdpCOt06BCsc8ZZWt2z/YFlbuUEq/XGUWu2/VFYmxrfYFeHX9ZK7tUX1tHWSSvT3JewwRXvw2LjN2gdSHMF1r/YbFhz1ydaSQfLw/70HAub7DxM68frA7DJdh6wX0UeaA3ImgLWftxF2DkfW630owbBQsbYaD360RhWfHAW2IaAZ1q3Nw6AmWpajgATYAJsukuApbsEWLpLgCW9BNhU03IEmAATYNNdAizdJcDSXQIs6SXAppqWI8AEmACb7hJg6S4Blu4SYEkvATbVtBwBJsAE2HSXAEt3CbB0lwBLegmwqablCDABJsCmuwRYukuApbsEWNJLgE01LUeACTABNt0lwNJdAizdJcCSXgJsqmk5AkyACbDpLgGW7hJg6S4BlvQSYFNNyxFgAkyATXcJsHSXAEt3CbCklwCbalru7wCuHRUL8zpUUiuw9UFY9v3LYaNuldZq1dwX1vidH+yp8wytlA03wAbnmKzl5TYaNj3tCli5xzm0Rn+4BXvS6jbsxtq1WlerdYZtSXcHViO8ilbN+a9gJ6/3hP1evF8rU2R5WPvrKbRW12kK861WFPa8uZtW8lV3YZnyeMG67NquNWvCLliNs5tgRU9V1Ir+1BL2Pe8c2K/V7bWmrXWCRa8opzXGbRQsR73GsHk1/mjVzn4fVmFGPCzpc1WtO2dvwUq1OArz9ByrNSd/S1jJh5lh+eZe1OrQeips+pOmWun9fWBJ121hn04kaoVOGgWbsLggrGV0I61Zy71huWr7wyosna5VvvYJ2MSCwbDwdx+1xtcfALu2aDTM2+G6VqcSL2EdM/pq2ZzPAdtauBDsjW2iVsk2OWGmmpYjwASYAJvuEmDpLgGW7hJgSS8BNtW0HAEmwATYdJcAS3cJsHSXAEt6CbCppuUIMAEmwKa7BFi6S4CluwRY0kuATTUtR4AJMAE23SXA0l0CLN0lwJJeAmyqaTkCTIAJsOkuAZbuEmDpLgGW9BJgU03LEWACTIBNdwmwdJcAS3cJsKSXAJtqWo4AE2ACbLpLgKW7BFi6S4AlvQTYVNNyfwfwLa+vsP5hVbRu7+oOe5a7EyzjqLZa21Otg924FAcrFDJd6/eQibDgzZe00t3JBHO6kAK2Otk7rR5fLsGiXjnB1tYL1eozuTPs9mZf2MLyH7TerswJK79jP6xW6lRaniU2wJbXGqg1u8v/aq/Ov3yu+z+OI4QkUxxJvhJluUI1WbIXLkS2TDQoWVORriwRmstIZtCISfRtsSYyIVuiKcuVJUuMMUVdZAkhy9iydL6/v56P5/sc53zP+fxyv5/7/3DLkt8yqLz81tFHvJMyFsmHTK4tHzmugveE7Fvkb1csL084FO8d3+eafNnej+QpN7/n3WNFEfmYo397j3i+pLxMzR/lm15t5l1vynj5tc555BXad/M+kbeB/Ni9reV9jq73nvvJR/ISA9PlH7Uq67187Fz5mnLHvctuOCm/92JD+eor47wTnt4g/673Nvn13HLeGfu+lL9woJJ8yAe3epddUUl+76HB8psOXPQ+8XJeeWKLmvJd7Wp5/358k3zD6X7eGSMS5Z/f3Ua+7a3nvJ/6qZc8VDMyAAZgAA7dBWDrLgBbdwHY0gvAoZqRATAAA3DoLgBbdwHYugvAll4ADtWMDIABGIBDdwHYugvA1l0AtvQCcKhmZAAMwAAcugvA1l0Atu4CsKUXgEM1IwNgAAbg0F0Atu4CsHUXgC29AByqGRkAAzAAh+4CsHUXgK27AGzpBeBQzcgAGIABOHQXgK27AGzdBWBLLwCHakZ2YwC3bTNVnrzkU++ZnbrLi6X1kxd/aof3le2fyLMvT5ffU+sP79GHd8hb9C3vnafXS/KtOXfIEyZt8b6/1g75snW3yy+N/dh7WP6N8rUV0uVv1LnDu++Br+TNrt8tf3J4G++Bz90hH/rMZu/cYmXlzTu/JP97aob3rhWp8lb3FJSnnsz1nnB1ubxfgUbyRwuleZfqsEleve8C+bfpt3u/G99EPr9FDe82U1Lkbwx7TT7nvne913TqJ29/KFdeuvBY78y0NPnvZc/KS0wf6j1mTld5l6xV8s8eT/He32OUfNvODO+De5PkK18fJd/3zEDvToMLyLedekU+fd4R70lx3eSZm1bJs6fl936wyxl5+mOb5UsL/un9xcXf5TtGTJZ/s7+q94jEr+WrnnjBe/1/VsoP590hX3DnLd4rl62Uh2pGBsAADMChuwBs3QVg6y4AW3oBOFQzMgAGYAAO3QVg6y4AW3cB2NILwKGakQEwAANw6C4AW3cB2LoLwJZeAA7VjAyAARiAQ3cB2LoLwNZdALb0AnCoZmQADMAAHLoLwNZdALbuArClF4BDNSMDYAAG4NBdALbuArB1F4AtvQAcqhkZAAMwAIfuArB1F4CtuwBs6QXgUM3IABiAATh0F4CtuwBs3QVgSy8Ah2pGdmMAd8/cL6/xzlDvSsWKyPfHpcon/DPTu/fDHeUd6kyUJyTX9G7edZ284pAr3kcyP5JXe2yt/PbHKnnHTT8vH3WkjPxs3Wredcfmkyf3PSpvdDrNe1Pdz+UdT1eRX0zb5/3D0lby5BZXvLOyTstvzdD3mLjZu++oBvJ17VvIf5sx3Xv5rV/K+zxVQF6y+Zvei/KdkScmbZEffmyyd+2dreXpaQO9d3/xqPzj1Y3kvZY09S7yVqL8+bPZ8o5tz3uvb7RGXu3lXfKJL4z2bjz8a/mos93lqTX/13t/wy3yKZf/6V2q/OfyzZ2mypvOG+D9wrL+8riSPeUHFjT3rtilqrx+1ffkp+/u6r14eGN5n5GD5e8/NNl7ScrX8tWdv5F/UyLXe8PV2+QJ1X/1/qzMavnN/X+T9xs42Dvl1HB5qGZkAAzAABy6C8DWXQC27gKwpReAQzUjA2AABuDQXQC27gKwdReALb0AHKoZGQADMACH7gKwdReArbsAbOkF4FDNyAAYgAE4dBeArbsAbN0FYEsvAIdqRgbAAAzAobsAbN0FYOsuAFt6AThUMzIABmAADt0FYOsuAFt3AdjSC8ChmpEBMAADcOguAFt3Adi6C8CWXgAO1YzsxgCOKzxN3rhSGe+98Xvl6WPj5BPjt3o/2aOmfGSNtvLOSXHelR84KT9xX7z3XVe+lTfd1lJe/uoU70NVO8qPpL0h7/dIFe+mv94kX9LpmnxPVj3vzpMLyPv3fU7+aLdL3v/e/Jl8TbdfvCu3TJCvb7JTXm5INe/e9f8jX5RzQf5niQ+9X9mVIL/WsJV8+/bvvLslH5SvOFhdPit1rferXQ7IhxW87N3zXD15wvBd8uOvH/R+5/vF8snTpsiLZC3yfnzmJPnIxr/It+0p7V2ua1d5sQZF5MtXF/cu89dg+bJLdb3Te+aT52+ZIq9WbpZ3wfvayL/eky0/vWmd97qemfLcxvp322V7f305nzxv4T3yLa1f9x6Tfkk+cdJOebsf+njvLDJGPv/h096dR7SQr/+5p3zo+w28WzZOlYdqRgbAAAzAobsAbN0FYOsuAFt6AThUMzIABmAADt0FYOsuAFt3AdjSC8ChmpEBMAADcOguAFt3Adi6C8CWXgAO1YwMgAEYgEN3Adi6C8DWXQC29AJwqGZkAAzAABy6C8DWXQC27gKwpReAQzUjA2AABuDQXQC27gKwdReALb0AHKoZGQADMACH7gKwdReArbsAbOkF4FDNyAAYgAE4dBeArbsAbN0FYEsvAIdqRnZjAJdO2Cn/KvNO7+xz2+Vn1p+Ub8i85F389ED59PmJ8invdfeed/yk/LWid3sP6btG/vmMcvJeB+/1Tp9/UB7fr7y87mep3sXznpOve2ShvMCJ2d7vHCoinz8vSf7+2iPev3T/VP7SmjLez75xu3z8Q7Pl04v19/7rvavyGp3elacVqeWduXSQfGmfKvLyueO852+4Lq950zp587mfeH9zfKC8d80Z3nN/PCRf/OE1ef7xT3qvSNkqL7umt/zv6qu8k8uXlu8+/6l89rSj3sPfPiyfOWyc/IeXJ3hPG1BAnti0qPf2VsnyUaXayu8fMdp7Y9E/5f8d/j/y+DZZ3hnNTsrjO3SQN/1uqvf0jvHy9vty5Hd+l+x9rFmq/EzKJHl25VPev6XXkde+ctS70h3fytdO6C9f99Br3p33PSAP1YwMgAEYgEN3Adi6C8DWXQC29AJwqGZkAAzAABy6C8DWXQC27gKwpReAQzUjA2AABuDQXQC27gKwdReALb0AHKoZGQADMACH7gKwdReArbsAbOkF4FDNyAAYgAE4dBeArbsAbN0FYEsvAIdqRgbAAAzAobsAbN0FYOsuAFt6AThUMzIABmAADt0FYOsuAFt3AdjSC8ChmpHdGMBzOk2VX77+rffcznvkLRevkF/6Msd78E+75c07d5Sn7svyXtupv/yecXm8DxfoKc9KWCuf0HGP9yeL2stLTJwmr9G9h/e4h6vIL3+SK08a8KX3O/9tLx+7ZoM8++1h3scTn5ZvyX/Be+EDD8tzd/4tn9F6vPeAxI3yYqOvyPssy/CuPOKQfH6TD+Rtrp7zrvfHL/Ju+TrIry/v5p36RkF5nn7tvK9nFJaff2aOPLvXUe9itarLM39Il6e0/Mx7TEoF+cLbJsiTD3T1Ht+igXzmqBz5/nz7vRcM+km+qVph78XZ98kXHD0gz7o6z/vClFryxsu3yj/+eJh3XFZP+e+vJMhPPVTPu+Cs2fIlHwySn1jZwfuVZw7Jh7w4UX6s2nXvnbVqy5se7u1d9KUe8p6FcuTj83fwPjx7pTxUMzIABmAADt0FYOsuAFt3AdjSC8ChmpEBMAADcOguAFt3Adi6C8CWXgAO1YwMgAEYgEN3Adi6C8DWXQC29AJwqGZkAAzAABy6C8DWXQC27gKwpReAQzUjA2AABuDQXQC27gKwdReALb0AHKoZGQADMACH7gKwdReArbsAbOkF4FDNyAAYgAE4dBeArbsAbN0FYEsvAIdqRnZjAF/rkSB/a9Bs73wfdpXPzJ8or36kkHfHW3bLW/88RV4qI6/3lb275TkD07wzmzwof73C9/Iz4y56/3rvHfKFe1bJdz//vffMhi/K3+zSTv5Ex5Levdovli+8XZ+vygDvlrNKy+sO/Yd38oD58j9uXiWP31LSe9uoXHm1tlPkeQ/meHdpUlN+qGE9+bpmu70fermLvMGpc/IHNuf3/rR7F/ltQ2Z4D93eXX7xkYbyBgVOe0+rMl+eWesR+d3LX/Ne8USO/IuW98gbVtvlfdOdheTL//pCftuIn71n3fy5/MKATt4TSyyXjxn5rvzKicXeB1+tKt9dNEleZ0kJ7yZVb5Lnb7dZnrnlfu/zad3ldy3eLj+VVNW7Q04R+ayLSfI8K/7l3e6Bn+STBr3svXF3KXnthPryrktTvVdXHiAP1YwMgAEYgEN3Adi6C8DWXQC29AJwqGZkAAzAABy6C8DWXQC27gKwpReAQzUjA2AABuDQXQC27gKwdReALb0AHKoZGQADMACH7gKwdReArbsAbOkF4FDNyAAYgAE4dBeArbsAbN0FYEsvAIdqRgbAAAzAobsAbN0FYOsuAFt6AThUMzIABmAADt0FYOsuAFt3AdjSC8ChmpEBMAADcOguAFt3Adi6C8CWXgAO1YzsxgC+vGCX/ELFA95zjxWXr7r0rDxpUhvvr94rLX8q7iv59xUyvDvc9bT82Pt9vYsVryJPr9xVfnnqEu+Kw4bKJ13NJ2+zco73T9nt5ZNr6xPmvem9pElx+eDHSsrnHN/nvb78THlK4V7evRetkC+qf4v8pYWNvFu3HCMfObC7fNXPjbyrf5kof3DWVvnuv1p697zroHxks8flG7PXeFdvulF+ZmJj736r88lztjaQryvaxnv+yufl5RZOlueZNsx7cqlv5M8Xbye/kHzEu2beYfJ7ln4rf3XmWe9mP/4h37xzh/fqFx+VH6vTR17j7bHeHYdOkE+oOF3ePHOc97Ui9eRz6g2VHx/9gffC2q/J74r7UH7qlfreSalPy/OuqSSfte2w9/o698vbPvuV996bZ8g35I6Tn81o5x1fqL48VDMyAAZgAA7dBWDrLgBbdwHY0gvAoZqRATAAA3DoLgBbdwHYugvAll4ADtWMDIABGIBDdwHYugvA1l0AtvQCcKhmZAAMwAAcugvA1l0Atu4CsKUXgEM1IwNgAAbg0F0Atu4CsHUXgC29AByqGRkAAzAAh+4CsHUXgK27AGzpBeBQzcgAGIABOHQXgK27AGzdBWBLLwCHakZ2YwATERHR/0sATEREFIMAmIiIKAYBMBERUQwCYCIiohgEwERERDEIgImIiGIQABMREcUgACYiIopBAExERBSDAJiIiCgGATAREVEMAmAiIqIYBMBEREQxCICJiIhiEAATERHFIAAmIiKKQQBMREQUgwCYiIgoBgEwERFRDAJgIiKiGATAREREMQiAiYiIYhAAExERxSAAJiIiikEATEREFIMAmIiIKAYBMBERUQwCYCIiohgEwERERDEIgImIiGIQABMREcUgACYiIopBAExERBSDAJiIiCgG/R8KEfQQxrrU5wAAAABJRU5ErkJggg==;fontSize=18;fontColor=#FF0000;imageBorder=default;strokeWidth=4;" vertex="1" parent="1">
          <mxGeometry x="86" y="410" width="155" height="116.03" as="geometry" />
        </mxCell>
        <mxCell id="OKugaLKOANu714c_Y-tR-22" style="edgeStyle=orthogonalEdgeStyle;rounded=0;orthogonalLoop=1;jettySize=auto;html=1;entryX=0;entryY=0.5;entryDx=0;entryDy=0;fontSize=18;fontColor=#FF0000;startArrow=none;startFill=0;endArrow=classic;endFill=1;" edge="1" parent="1" source="OKugaLKOANu714c_Y-tR-15" target="OKugaLKOANu714c_Y-tR-18">
          <mxGeometry relative="1" as="geometry" />
        </mxCell>
        <mxCell id="OKugaLKOANu714c_Y-tR-15" value="&lt;font style=&quot;font-size: 14px&quot;&gt;Differentiable Model&lt;br&gt;F(x,W)&lt;/font&gt;" style="rounded=1;whiteSpace=wrap;html=1;" vertex="1" parent="1">
          <mxGeometry x="340" y="433.52" width="250" height="69" as="geometry" />
        </mxCell>
        <mxCell id="OKugaLKOANu714c_Y-tR-17" value="" style="edgeStyle=orthogonalEdgeStyle;rounded=0;orthogonalLoop=1;jettySize=auto;html=1;fontSize=14;" edge="1" parent="1" source="OKugaLKOANu714c_Y-tR-18" target="OKugaLKOANu714c_Y-tR-20">
          <mxGeometry relative="1" as="geometry" />
        </mxCell>
        <mxCell id="OKugaLKOANu714c_Y-tR-18" value="Pred&#39;" style="rounded=0;whiteSpace=wrap;html=1;fontSize=14;strokeColor=none;" vertex="1" parent="1">
          <mxGeometry x="650" y="438.02" width="50" height="60" as="geometry" />
        </mxCell>
        <mxCell id="OKugaLKOANu714c_Y-tR-19" value="" style="edgeStyle=orthogonalEdgeStyle;rounded=0;orthogonalLoop=1;jettySize=auto;html=1;fontSize=14;startArrow=classic;startFill=1;endArrow=none;endFill=0;" edge="1" parent="1" source="OKugaLKOANu714c_Y-tR-20" target="OKugaLKOANu714c_Y-tR-21">
          <mxGeometry relative="1" as="geometry" />
        </mxCell>
        <mxCell id="OKugaLKOANu714c_Y-tR-23" value="&lt;b style=&quot;font-family: &amp;#34;arial&amp;#34; , sans-serif ; font-size: 14px&quot;&gt;&lt;font style=&quot;font-size: 18px&quot;&gt;∇&amp;nbsp;&lt;/font&gt;&lt;span style=&quot;font-size: 15px&quot;&gt;W&#39;&lt;/span&gt;&lt;/b&gt;" style="edgeStyle=orthogonalEdgeStyle;rounded=0;orthogonalLoop=1;jettySize=auto;html=1;entryX=0.5;entryY=0;entryDx=0;entryDy=0;fontSize=18;fontColor=#FF0000;startArrow=none;startFill=0;endArrow=classic;endFill=1;strokeWidth=2;spacingLeft=-8;" edge="1" parent="1" source="OKugaLKOANu714c_Y-tR-20" target="OKugaLKOANu714c_Y-tR-15">
          <mxGeometry x="0.0305" y="-14" relative="1" as="geometry">
            <Array as="points">
              <mxPoint x="765" y="414" />
              <mxPoint x="465" y="414" />
            </Array>
            <mxPoint x="1" as="offset" />
          </mxGeometry>
        </mxCell>
        <mxCell id="OKugaLKOANu714c_Y-tR-20" value="Loss&#39;" style="rounded=0;whiteSpace=wrap;html=1;fontSize=14;strokeColor=none;" vertex="1" parent="1">
          <mxGeometry x="740" y="454.5" width="50" height="28.02" as="geometry" />
        </mxCell>
        <mxCell id="OKugaLKOANu714c_Y-tR-21" value="[0.2,0.7,0.1]" style="rounded=0;whiteSpace=wrap;html=1;fontSize=14;strokeColor=default;strokeWidth=4;" vertex="1" parent="1">
          <mxGeometry x="882.5" y="454.5" width="85" height="27.03" as="geometry" />
        </mxCell>
        <mxCell id="OKugaLKOANu714c_Y-tR-24" value="&lt;font color=&quot;#000000&quot;&gt;Try to match&lt;/font&gt;" style="shape=flexArrow;endArrow=classic;html=1;rounded=0;fontSize=18;fontColor=#FF0000;strokeWidth=2;width=4;endSize=4.06;strokeColor=#FF0000;fillColor=#FF0000;" edge="1" parent="1">
          <mxGeometry x="-0.5" y="-60" width="50" height="50" relative="1" as="geometry">
            <mxPoint x="620" y="380" as="sourcePoint" />
            <mxPoint x="620" y="300" as="targetPoint" />
            <Array as="points">
              <mxPoint x="620" y="340" />
            </Array>
            <mxPoint as="offset" />
          </mxGeometry>
        </mxCell>
        <mxCell id="OKugaLKOANu714c_Y-tR-26" style="edgeStyle=orthogonalEdgeStyle;rounded=0;orthogonalLoop=1;jettySize=auto;html=1;entryX=0.5;entryY=1;entryDx=0;entryDy=0;fontSize=18;fontColor=#000000;startArrow=none;startFill=0;endArrow=classic;endFill=1;strokeColor=#000000;strokeWidth=3;fillColor=#FF0000;" edge="1" parent="1" source="OKugaLKOANu714c_Y-tR-25" target="OKugaLKOANu714c_Y-tR-21">
          <mxGeometry relative="1" as="geometry" />
        </mxCell>
        <mxCell id="OKugaLKOANu714c_Y-tR-25" value="D = ||&lt;span style=&quot;font-family: &amp;#34;arial&amp;#34; , sans-serif ; font-size: 14px ; background-color: rgb(255 , 255 , 255)&quot;&gt;&lt;font style=&quot;font-size: 18px&quot;&gt;∇&amp;nbsp;&lt;/font&gt;&lt;span style=&quot;font-size: 15px&quot;&gt;W&#39; -&amp;nbsp;&lt;/span&gt;&lt;/span&gt;&lt;span style=&quot;font-family: &amp;#34;arial&amp;#34; , sans-serif ; font-size: 14px ; background-color: rgb(255 , 255 , 255)&quot;&gt;&lt;font style=&quot;font-size: 18px&quot;&gt;∇&amp;nbsp;&lt;/font&gt;&lt;span style=&quot;font-size: 15px&quot;&gt;W ||²&lt;/span&gt;&lt;/span&gt;" style="rounded=0;whiteSpace=wrap;html=1;fontSize=18;fontColor=#000000;strokeColor=none;strokeWidth=4;" vertex="1" parent="1">
          <mxGeometry x="460" y="555" width="180" height="60" as="geometry" />
        </mxCell>
      </root>
    </mxGraphModel>
  </diagram>
</mxfile>
